{
copyright = "Copyright (c) 2015, Cadson Demak (info@cadsondemak.com)";
customParameters = (
{
name = vendorID;
value = CDK;
},
{
name = description;
value = "Copyright (c) 2015, Cadson Demak (info@cadsondemak.com)";
},
{
name = license;

glyphs = (
{
glyphname = A;
lastChange = "2015-10-25 05:21:50 +0000";
layers = (
{
layerId = "63223F5B-13B6-47A7-8CD6-727EAFF9983D";
name = Light;
paths = (
{
closed = 1;
nodes = (
"89 0 LINE",
"164 200 LINE",
"487 200 LINE",
"562 0 LINE",
"590 0 LINE",
"348 644 LINE",
"303 644 LINE",
"60 0 LINE"
);
},
{
closed = 1;
nodes = (
"325 628 LINE",
"477 225 LINE",
"173 225 LINE"
);
}
);
width = 650;
}
);
leftKerningGroup = A;
note = A;
rightKerningGroup = A;
unicode = 0041;
},
{
glyphname = Aacute;
lastChange = "2015-10-25 05:21:51 +0000";
layers = (
{
layerId = "63223F5B-13B6-47A7-8CD6-727EAFF9983D";
name = Light;
paths = (
{
closed = 1;
nodes = (
"89 0 LINE",
"164 200 LINE",
"487 200 LINE",
"562 0 LINE",
"590 0 LINE",
"348 644 LINE",
"303 644 LINE",
"60 0 LINE"
);
},
{
closed = 1;
nodes = (
"325 628 LINE",
"477 225 LINE",
"173 225 LINE"
);
},
{
closed = 1;
nodes = (
"332 688 LINE",
"402 837 LINE",
"372 837 LINE",
"309 688 LINE"
);
}
);
width = 650;
}
);
leftKerningGroup = A;
note = Aacute;
rightKerningGroup = A;
unicode = 00C1;
},
{
glyphname = Abreve;
lastChange = "2015-10-25 05:21:51 +0000";
layers = (
{
layerId = "63223F5B-13B6-47A7-8CD6-727EAFF9983D";
name = Light;
paths = (
{
closed = 1;
nodes = (
"89 0 LINE",
"164 200 LINE",
"487 200 LINE",
"562 0 LINE",
"590 0 LINE",
"348 644 LINE",
"303 644 LINE",
"60 0 LINE"
);
},
{
closed = 1;
nodes = (
"325 628 LINE",
"477 225 LINE",
"173 225 LINE"
);
},
{
closed = 1;
nodes = (
"379 688 OFFCURVE",
"421 730 OFFCURVE",
"421 783 CURVE",
"396 783 LINE",
"396 743 OFFCURVE",
"366 713 OFFCURVE",
"325 713 CURVE SMOOTH",
"285 713 OFFCURVE",
"255 743 OFFCURVE",
"255 783 CURVE",
"230 783 LINE",
"230 730 OFFCURVE",
"272 688 OFFCURVE",
"325 688 CURVE SMOOTH"
);
}
);
width = 650;
}
);
leftKerningGroup = A;
note = Abreve;
rightKerningGroup = A;
unicode = 0102;
},
{
glyphname = Abreveacute;
lastChange = "2015-10-25 05:21:51 +0000";
layers = (
{
layerId = "63223F5B-13B6-47A7-8CD6-727EAFF9983D";
name = Light;
paths = (
{
closed = 1;
nodes = (
"89 0 LINE",
"164 200 LINE",
"487 200 LINE",
"562 0 LINE",
"590 0 LINE",
"348 644 LINE",
"303 644 LINE",
"60 0 LINE"
);
},
{
closed = 1;
nodes = (
"325 628 LINE",
"477 225 LINE",
"173 225 LINE"
);
},
{
closed = 1;
nodes = (
"391 688 OFFCURVE",
"455 720 OFFCURVE",
"455 812 CURVE",
"430 812 LINE",
"430 743 OFFCURVE",
"386 713 OFFCURVE",
"325 713 CURVE SMOOTH",
"264 713 OFFCURVE",
"220 743 OFFCURVE",
"220 812 CURVE",
"195 812 LINE",
"195 720 OFFCURVE",
"259 688 OFFCURVE",
"325 688 CURVE SMOOTH"
);
},
{
closed = 1;
nodes = (
"323 780 LINE",
"387 889 LINE",
"358 889 LINE",
"301 780 LINE"
);
}
);
width = 650;
}
);
leftKerningGroup = A;
note = Abreveacute;
rightKerningGroup = A;
unicode = 1EAE;
},
{
glyphname = Abrevedotbelow;
lastChange = "2015-11-24 07:48:36 +0000";
layers = (
{
layerId = "63223F5B-13B6-47A7-8CD6-727EAFF9983D";
name = Light;
paths = (
{
closed = 1;
nodes = (
"89 0 LINE",
"164 200 LINE",
"487 200 LINE",
"562 0 LINE",
"590 0 LINE",
"348 644 LINE",
"303 644 LINE",
"60 0 LINE"
);
},
{
closed = 1;
nodes = (
"325 628 LINE",
"477 225 LINE",
"173 225 LINE"
);
},
{
closed = 1;
nodes = (
"379 688 OFFCURVE",
"421 730 OFFCURVE",
"421 783 CURVE",
"396 783 LINE",
"396 743 OFFCURVE",
"366 713 OFFCURVE",
"325 713 CURVE SMOOTH",
"285 713 OFFCURVE",
"255 743 OFFCURVE",
"255 783 CURVE",
"230 783 LINE",
"230 730 OFFCURVE",
"272 688 OFFCURVE",
"325 688 CURVE SMOOTH"
);
},
{
closed = 1;
nodes = (
"344 -139 LINE",
"344 -102 LINE",
"307 -102 LINE",
"307 -139 LINE"
);
}
);
width = 650;
}
);
leftKerningGroup = A;
note = Abrevedotbelow;
rightKerningGroup = A;
unicode = 1EB6;
},
{
glyphname = Abrevegrave;
lastChange = "2015-10-25 05:21:51 +0000";
layers = (
{
layerId = "63223F5B-13B6-47A7-8CD6-727EAFF9983D";
name = Light;
paths = (
{
closed = 1;
nodes = (
"89 0 LINE",
"164 200 LINE",
"487 200 LINE",
"562 0 LINE",
"590 0 LINE",
"348 644 LINE",
"303 644 LINE",
"60 0 LINE"
);
},
{
closed = 1;
nodes = (
"325 628 LINE",
"477 225 LINE",
"173 225 LINE"
);
},
{
closed = 1;
nodes = (
"391 688 OFFCURVE",
"455 720 OFFCURVE",
"455 812 CURVE",
"430 812 LINE",
"430 743 OFFCURVE",
"386 713 OFFCURVE",
"325 713 CURVE SMOOTH",
"264 713 OFFCURVE",
"220 743 OFFCURVE",
"220 812 CURVE",
"195 812 LINE",
"195 720 OFFCURVE",
"259 688 OFFCURVE",
"325 688 CURVE SMOOTH"
);
},
{
closed = 1;
nodes = (
"349 780 LINE",
"292 889 LINE",
"263 889 LINE",
"327 780 LINE"
);
}
);
width = 650;
}
);
leftKerningGroup = A;
note = Abrevegrave;
rightKerningGroup = A;
unicode = 1EB0;
},
{
glyphname = Abrevehookabove;
lastChange = "2015-10-25 05:21:50 +0000";
layers = (
{
layerId = "63223F5B-13B6-47A7-8CD6-727EAFF9983D";
name = Light;
paths = (
{
closed = 1;
nodes = (
"89 0 LINE",
"164 200 LINE",
"487 200 LINE",
"562 0 LINE",
"590 0 LINE",
"348 644 LINE",
"303 644 LINE",
"60 0 LINE"
);
},
{
closed = 1;
nodes = (
"325 628 LINE",
"477 225 LINE",
"173 225 LINE"
);
},
{
closed = 1;
nodes = (
"391 688 OFFCURVE",
"455 720 OFFCURVE",
"455 812 CURVE",
"430 812 LINE",
"430 743 OFFCURVE",
"386 713 OFFCURVE",
"325 713 CURVE SMOOTH",
"264 713 OFFCURVE",
"220 743 OFFCURVE",
"220 812 CURVE",
"195 812 LINE",
"195 720 OFFCURVE",
"259 688 OFFCURVE",
"325 688 CURVE SMOOTH"
);
},
{
closed = 1;
nodes = (
"321 759 LINE",
"321 796 LINE",
"379 802 OFFCURVE",
"403 823 OFFCURVE",
"403 865 CURVE SMOOTH",
"403 910 OFFCURVE",
"372 934 OFFCURVE",
"322 934 CURVE SMOOTH",
"298 934 OFFCURVE",
"278 929 OFFCURVE",
"262 922 CURVE",
"262 897 LINE",
"280 905 OFFCURVE",
"298 910 OFFCURVE",
"322 910 CURVE SMOOTH",
"360 910 OFFCURVE",
"378 894 OFFCURVE",
"378 865 CURVE SMOOTH",
"378 834 OFFCURVE",
"365 819 OFFCURVE",
"293 815 CURVE",
"293 759 LINE"
);
}
);
width = 650;
}
);
leftKerningGroup = A;
note = Abrevehookabove;
rightKerningGroup = A;
unicode = 1EB2;
},
{
glyphname = Abrevetilde;
lastChange = "2015-10-25 05:21:51 +0000";
layers = (
{
layerId = "63223F5B-13B6-47A7-8CD6-727EAFF9983D";
name = Light;
paths = (
{
closed = 1;
nodes = (
"89 0 LINE",
"164 200 LINE",
"487 200 LINE",
"562 0 LINE",
"590 0 LINE",
"348 644 LINE",
"303 644 LINE",
"60 0 LINE"
);
},
{
closed = 1;
nodes = (
"325 628 LINE",
"477 225 LINE",
"173 225 LINE"
);
},
{
closed = 1;
nodes = (
"391 688 OFFCURVE",
"455 720 OFFCURVE",
"455 812 CURVE",
"430 812 LINE",
"430 743 OFFCURVE",
"386 713 OFFCURVE",
"325 713 CURVE SMOOTH",
"264 713 OFFCURVE",
"220 743 OFFCURVE",
"220 812 CURVE",
"195 812 LINE",
"195 720 OFFCURVE",
"259 688 OFFCURVE",
"325 688 CURVE SMOOTH"
);
},
{
closed = 1;
nodes = (
"220 874 OFFCURVE",
"242 880 OFFCURVE",
"270 880 CURVE SMOOTH",
"307 880 OFFCURVE",
"334 848 OFFCURVE",
"380 848 CURVE SMOOTH",
"409 848 OFFCURVE",
"434 857 OFFCURVE",
"450 874 CURVE",
"450 905 LINE",
"427 879 OFFCURVE",
"405 873 OFFCURVE",
"377 873 CURVE SMOOTH",
"334 873 OFFCURVE",
"316 905 OFFCURVE",
"267 905 CURVE SMOOTH",
"238 905 OFFCURVE",
"213 896 OFFCURVE",
"197 879 CURVE",
"197 848 LINE"
);
}
);
width = 650;
}
);
leftKerningGroup = A;
note = Abrevetilde;
rightKerningGroup = A;
unicode = 1EB4;
},
{
glyphname = Acaron;
lastChange = "2015-10-25 05:21:51 +0000";
layers = (
{
layerId = "63223F5B-13B6-47A7-8CD6-727EAFF9983D";
name = Light;
paths = (
{
closed = 1;
nodes = (
"89 0 LINE",
"164 200 LINE",
"487 200 LINE",
"562 0 LINE",
"590 0 LINE",
"348 644 LINE",
"303 644 LINE",
"60 0 LINE"
);
},
{
closed = 1;
nodes = (
"325 628 LINE",
"477 225 LINE",
"173 225 LINE"
);
},
{
closed = 1;
nodes = (
"340 688 LINE",
"435 810 LINE",
"406 810 LINE",
"325 706 LINE",
"244 810 LINE",
"215 810 LINE",
"310 688 LINE"
);
}
);
width = 650;
}
);
leftKerningGroup = A;
note = Acaron;
rightKerningGroup = A;
unicode = 01CD;
},
{
glyphname = Acircumflex;
lastChange = "2015-10-25 05:21:51 +0000";
layers = (
{
layerId = "63223F5B-13B6-47A7-8CD6-727EAFF9983D";
name = Light;
paths = (
{
closed = 1;
nodes = (
"89 0 LINE",
"164 200 LINE",
"487 200 LINE",
"562 0 LINE",
"590 0 LINE",
"348 644 LINE",
"303 644 LINE",
"60 0 LINE"
);
},
{
closed = 1;
nodes = (
"325 628 LINE",
"477 225 LINE",
"173 225 LINE"
);
},
{
closed = 1;
nodes = (
"244 688 LINE",
"325 792 LINE",
"406 688 LINE",
"435 688 LINE",
"340 810 LINE",
"310 810 LINE",
"215 688 LINE"
);
}
);
width = 650;
}
);
leftKerningGroup = A;
note = Acircumflex;
rightKerningGroup = A;
unicode = 00C2;
},
{
glyphname = Acircumflexacute;
lastChange = "2015-10-25 05:21:51 +0000";
layers = (
{
layerId = "63223F5B-13B6-47A7-8CD6-727EAFF9983D";
name = Light;
paths = (
{
closed = 1;
nodes = (
"89 0 LINE",
"164 200 LINE",
"487 200 LINE",
"562 0 LINE",
"590 0 LINE",
"348 644 LINE",
"303 644 LINE",
"60 0 LINE"
);
},
{
closed = 1;
nodes = (
"325 628 LINE",
"477 225 LINE",
"173 225 LINE"
);
},
{
closed = 1;
nodes = (
"242 688 LINE",
"323 774 LINE",
"404 688 LINE",
"433 688 LINE",
"338 790 LINE",
"308 790 LINE",
"213 688 LINE"
);
},
{
closed = 1;
nodes = (
"404 790 LINE",
"468 899 LINE",
"439 899 LINE",
"382 790 LINE"
);
}
);
width = 650;
}
);
leftKerningGroup = A;
note = Acircumflexacute;
rightKerningGroup = A;
unicode = 1EA4;
},
{
glyphname = Acircumflexdotbelow;
lastChange = "2015-11-24 07:48:43 +0000";
layers = (
{
layerId = "63223F5B-13B6-47A7-8CD6-727EAFF9983D";
name = Light;
paths = (
{
closed = 1;
nodes = (
"89 0 LINE",
"164 200 LINE",
"487 200 LINE",
"562 0 LINE",
"590 0 LINE",
"348 644 LINE",
"303 644 LINE",
"60 0 LINE"
);
},
{
closed = 1;
nodes = (
"325 628 LINE",
"477 225 LINE",
"173 225 LINE"
);
},
{
closed = 1;
nodes = (
"244 688 LINE",
"325 792 LINE",
"406 688 LINE",
"435 688 LINE",
"340 810 LINE",
"310 810 LINE",
"215 688 LINE"
);
},
{
closed = 1;
nodes = (
"344 -139 LINE",
"344 -102 LINE",
"307 -102 LINE",
"307 -139 LINE"
);
}
);
width = 650;
}
);
leftKerningGroup = A;
note = Acircumflexdotbelow;
rightKerningGroup = A;
unicode = 1EAC;
},
{
glyphname = Acircumflexgrave;
lastChange = "2015-11-24 07:48:54 +0000";
layers = (
{
layerId = "63223F5B-13B6-47A7-8CD6-727EAFF9983D";
name = Light;
paths = (
{
closed = 1;
nodes = (
"89 0 LINE",
"164 200 LINE",
"487 200 LINE",
"562 0 LINE",
"590 0 LINE",
"348 644 LINE",
"303 644 LINE",
"60 0 LINE"
);
},
{
closed = 1;
nodes = (
"325 628 LINE",
"477 225 LINE",
"173 225 LINE"
);
},
{
closed = 1;
nodes = (
"246 688 LINE",
"327 774 LINE",
"408 688 LINE",
"437 688 LINE",
"342 790 LINE",
"312 790 LINE",
"217 688 LINE"
);
},
{
closed = 1;
nodes = (
"268 790 LINE",
"211 899 LINE",
"182 899 LINE",
"246 790 LINE"
);
}
);
width = 650;
}
);
leftKerningGroup = A;
note = Acircumflexgrave;
rightKerningGroup = A;
unicode = 1EA6;
},
{
glyphname = Acircumflexhookabove;
lastChange = "2015-10-25 05:21:51 +0000";
layers = (
{
layerId = "63223F5B-13B6-47A7-8CD6-727EAFF9983D";
name = Light;
paths = (
{
closed = 1;
nodes = (
"89 0 LINE",
"164 200 LINE",
"487 200 LINE",
"562 0 LINE",
"590 0 LINE",
"348 644 LINE",
"303 644 LINE",
"60 0 LINE"
);
},
{
closed = 1;
nodes = (
"325 628 LINE",
"477 225 LINE",
"173 225 LINE"
);
},
{
closed = 1;
nodes = (
"246 688 LINE",
"327 774 LINE",
"408 688 LINE",
"437 688 LINE",
"342 790 LINE",
"312 790 LINE",
"217 688 LINE"
);
},
{
closed = 1;
nodes = (
"421 769 LINE",
"421 806 LINE",
"479 812 OFFCURVE",
"503 833 OFFCURVE",
"503 875 CURVE SMOOTH",
"503 920 OFFCURVE",
"472 944 OFFCURVE",
"422 944 CURVE SMOOTH",
"398 944 OFFCURVE",
"378 939 OFFCURVE",
"362 932 CURVE",
"362 907 LINE",
"380 915 OFFCURVE",
"398 920 OFFCURVE",
"422 920 CURVE SMOOTH",
"460 920 OFFCURVE",
"478 904 OFFCURVE",
"478 875 CURVE SMOOTH",
"478 844 OFFCURVE",
"465 829 OFFCURVE",
"393 825 CURVE",
"393 769 LINE"
);
}
);
width = 650;
}
);
leftKerningGroup = A;
note = Acircumflexhookabove;
rightKerningGroup = A;
unicode = 1EA8;
},
{
glyphname = Acircumflextilde;
lastChange = "2015-11-24 07:48:59 +0000";
layers = (
{
layerId = "63223F5B-13B6-47A7-8CD6-727EAFF9983D";
name = Light;
paths = (
{
closed = 1;
nodes = (
"89 0 LINE",
"164 200 LINE",
"487 200 LINE",
"562 0 LINE",
"590 0 LINE",
"348 644 LINE",
"303 644 LINE",
"60 0 LINE"
);
},
{
closed = 1;
nodes = (
"325 628 LINE",
"477 225 LINE",
"173 225 LINE"
);
},
{
closed = 1;
nodes = (
"244 688 LINE",
"325 774 LINE",
"406 688 LINE",
"435 688 LINE",
"340 790 LINE",
"310 790 LINE",
"215 688 LINE"
);
},
{
closed = 1;
nodes = (
"224 829 OFFCURVE",
"246 835 OFFCURVE",
"274 835 CURVE SMOOTH",
"311 835 OFFCURVE",
"338 803 OFFCURVE",
"384 803 CURVE SMOOTH",
"413 803 OFFCURVE",
"438 812 OFFCURVE",
"454 829 CURVE",
"454 860 LINE",
"431 834 OFFCURVE",
"409 828 OFFCURVE",
"381 828 CURVE SMOOTH",
"338 828 OFFCURVE",
"320 860 OFFCURVE",
"271 860 CURVE SMOOTH",
"242 860 OFFCURVE",
"217 851 OFFCURVE",
"201 834 CURVE",
"201 803 LINE"
);
}
);
width = 650;
}
);
leftKerningGroup = A;
note = Acircumflextilde;
rightKerningGroup = A;
unicode = 1EAA;
},
{
glyphname = Adieresis;
lastChange = "2015-10-25 05:21:50 +0000";
layers = (
{
layerId = "63223F5B-13B6-47A7-8CD6-727EAFF9983D";
name = Light;
paths = (
{
closed = 1;
nodes = (
"89 0 LINE",
"164 200 LINE",
"487 200 LINE",
"562 0 LINE",
"590 0 LINE",
"348 644 LINE",
"303 644 LINE",
"60 0 LINE"
);
},
{
closed = 1;
nodes = (
"325 628 LINE",
"477 225 LINE",
"173 225 LINE"
);
},
{
closed = 1;
nodes = (
"264 718 LINE",
"264 753 LINE",
"229 753 LINE",
"229 718 LINE"
);
},
{
closed = 1;
nodes = (
"421 718 LINE",
"421 753 LINE",
"386 753 LINE",
"386 718 LINE"
);
}
);
width = 650;
}
);
leftKerningGroup = A;
note = Adieresis;
rightKerningGroup = A;
unicode = 00C4;
},
{
glyphname = Adotbelow;
lastChange = "2015-11-24 07:49:07 +0000";
layers = (
{
layerId = "63223F5B-13B6-47A7-8CD6-727EAFF9983D";
name = Light;
paths = (
{
closed = 1;
nodes = (
"89 0 LINE",
"164 200 LINE",
"487 200 LINE",
"562 0 LINE",
"590 0 LINE",
"348 644 LINE",
"303 644 LINE",
"60 0 LINE"
);
},
{
closed = 1;
nodes = (
"325 628 LINE",
"477 225 LINE",
"173 225 LINE"
);
},
{
closed = 1;
nodes = (
"344 -139 LINE",
"344 -102 LINE",
"307 -102 LINE",
"307 -139 LINE"
);
}
);
width = 650;
}
);
leftKerningGroup = A;
note = Adotbelow;
rightKerningGroup = A;
unicode = 1EA0;
},
{
glyphname = Agrave;
lastChange = "2015-10-25 05:21:51 +0000";
layers = (
{
layerId = "63223F5B-13B6-47A7-8CD6-727EAFF9983D";
name = Light;
paths = (
{
closed = 1;
nodes = (
"89 0 LINE",
"164 200 LINE",
"487 200 LINE",
"562 0 LINE",
"590 0 LINE",
"348 644 LINE",
"303 644 LINE",
"60 0 LINE"
);
},
{
closed = 1;
nodes = (
"325 628 LINE",
"477 225 LINE",
"173 225 LINE"
);
},
{
closed = 1;
nodes = (
"336 688 LINE",
"273 837 LINE",
"243 837 LINE",
"313 688 LINE"
);
}
);
width = 650;
}
);
leftKerningGroup = A;
note = Agrave;
rightKerningGroup = A;
unicode = 00C0;
},
{
glyphname = Ahookabove;
lastChange = "2015-10-25 05:21:51 +0000";
layers = (
{
layerId = "63223F5B-13B6-47A7-8CD6-727EAFF9983D";
name = Light;
paths = (
{
closed = 1;
nodes = (
"89 0 LINE",
"164 200 LINE",
"487 200 LINE",
"562 0 LINE",
"590 0 LINE",
"348 644 LINE",
"303 644 LINE",
"60 0 LINE"
);
},
{
closed = 1;
nodes = (
"325 628 LINE",
"477 225 LINE",
"173 225 LINE"
);
},
{
closed = 1;
nodes = (
"338 688 LINE",
"338 744 LINE",
"408 750 OFFCURVE",
"430 778 OFFCURVE",
"430 830 CURVE SMOOTH",
"430 885 OFFCURVE",
"392 915 OFFCURVE",
"319 915 CURVE SMOOTH",
"299 915 OFFCURVE",
"265 910 OFFCURVE",
"249 903 CURVE",
"249 878 LINE",
"267 885 OFFCURVE",
"296 890 OFFCURVE",
"318 890 CURVE SMOOTH",
"381 890 OFFCURVE",
"405 869 OFFCURVE",
"405 830 CURVE SMOOTH",
"405 789 OFFCURVE",
"392 767 OFFCURVE",
"310 763 CURVE",
"310 688 LINE"
);
}
);
width = 650;
}
);
leftKerningGroup = A;
note = Ahookabove;
rightKerningGroup = A;
unicode = 1EA2;
},
{
glyphname = Amacron;
lastChange = "2015-10-25 05:21:51 +0000";
layers = (
{
layerId = "63223F5B-13B6-47A7-8CD6-727EAFF9983D";
name = Light;
paths = (
{
closed = 1;
nodes = (
"89 0 LINE",
"164 200 LINE",
"487 200 LINE",
"562 0 LINE",
"590 0 LINE",
"348 644 LINE",
"303 644 LINE",
"60 0 LINE"
);
},
{
closed = 1;
nodes = (
"325 628 LINE",
"477 225 LINE",
"173 225 LINE"
);
},
{
closed = 1;
nodes = (
"459 718 LINE",
"459 743 LINE",
"192 743 LINE",
"192 718 LINE"
);
}
);
width = 650;
}
);
leftKerningGroup = A;
note = Amacron;
rightKerningGroup = A;
unicode = 0100;
},
{
glyphname = Aogonek;
lastChange = "2015-11-24 07:49:18 +0000";
layers = (
{
layerId = "63223F5B-13B6-47A7-8CD6-727EAFF9983D";
name = Light;
paths = (
{
closed = 1;
nodes = (
"584 -220 OFFCURVE",
"605 -217 OFFCURVE",
"619 -209 CURVE",
"619 -184 LINE",
"607 -191 OFFCURVE",
"586 -195 OFFCURVE",
"569 -195 CURVE SMOOTH",
"529 -195 OFFCURVE",
"513 -176 OFFCURVE",
"513 -135 CURVE SMOOTH",
"513 -88 OFFCURVE",
"537 -39 OFFCURVE",
"590 0 CURVE",
"348 644 LINE",
"303 644 LINE",
"60 0 LINE",
"89 0 LINE",
"164 200 LINE",
"487 200 LINE",
"562 0 LINE",
"521 -27 OFFCURVE",
"486 -80 OFFCURVE",
"486 -135 CURVE SMOOTH",
"486 -198 OFFCURVE",
"522 -220 OFFCURVE",
"569 -220 CURVE SMOOTH"
);
},
{
closed = 1;
nodes = (
"325 628 LINE",
"477 225 LINE",
"173 225 LINE"
);
}
);
width = 650;
}
);
leftKerningGroup = A;
note = Aogonek;
rightKerningGroup = A;
unicode = 0104;
},
{
glyphname = Aring;
lastChange = "2015-10-25 05:21:50 +0000";
layers = (
{
layerId = "63223F5B-13B6-47A7-8CD6-727EAFF9983D";
name = Light;
paths = (
{
closed = 1;
nodes = (
"89 0 LINE",
"164 200 LINE",
"487 200 LINE",
"562 0 LINE",
"590 0 LINE",
"352 631 LINE",
"392 643 OFFCURVE",
"421 679 OFFCURVE",
"421 723 CURVE SMOOTH",
"421 777 OFFCURVE",
"379 819 OFFCURVE",
"325 819 CURVE SMOOTH",
"272 819 OFFCURVE",
"230 777 OFFCURVE",
"230 723 CURVE SMOOTH",
"230 679 OFFCURVE",
"258 643 OFFCURVE",
"298 631 CURVE",
"60 0 LINE"
);
},
{
closed = 1;
nodes = (
"325 628 LINE",
"477 225 LINE",
"173 225 LINE"
);
},
{
closed = 1;
nodes = (
"285 653 OFFCURVE",
"255 683 OFFCURVE",
"255 723 CURVE SMOOTH",
"255 764 OFFCURVE",
"285 794 OFFCURVE",
"325 794 CURVE SMOOTH",
"366 794 OFFCURVE",
"396 764 OFFCURVE",
"396 723 CURVE SMOOTH",
"396 683 OFFCURVE",
"366 653 OFFCURVE",
"325 653 CURVE SMOOTH"
);
}
);
width = 650;
}
);
leftKerningGroup = A;
note = Aring;
rightKerningGroup = A;
unicode = 00C5;
},
{
glyphname = Aringacute;
lastChange = "2015-10-25 05:21:50 +0000";
layers = (
{
layerId = "63223F5B-13B6-47A7-8CD6-727EAFF9983D";
name = Light;
paths = (
{
closed = 1;
nodes = (
"89 0 LINE",
"164 200 LINE",
"487 200 LINE",
"562 0 LINE",
"590 0 LINE",
"352 631 LINE",
"392 643 OFFCURVE",
"421 679 OFFCURVE",
"421 723 CURVE SMOOTH",
"421 777 OFFCURVE",
"379 819 OFFCURVE",
"325 819 CURVE SMOOTH",
"272 819 OFFCURVE",
"230 777 OFFCURVE",
"230 723 CURVE SMOOTH",
"230 679 OFFCURVE",
"258 643 OFFCURVE",
"298 631 CURVE",
"60 0 LINE"
);
},
{
closed = 1;
nodes = (
"325 628 LINE",
"477 225 LINE",
"173 225 LINE"
);
},
{
closed = 1;
nodes = (
"285 653 OFFCURVE",
"255 683 OFFCURVE",
"255 723 CURVE SMOOTH",
"255 764 OFFCURVE",
"285 794 OFFCURVE",
"325 794 CURVE SMOOTH",
"366 794 OFFCURVE",
"396 764 OFFCURVE",
"396 723 CURVE SMOOTH",
"396 683 OFFCURVE",
"366 653 OFFCURVE",
"325 653 CURVE SMOOTH"
);
},
{
closed = 1;
nodes = (
"332 850 LINE",
"402 969 LINE",
"372 969 LINE",
"309 850 LINE"
);
}
);
width = 650;
}
);
leftKerningGroup = A;
note = Aringacute;
rightKerningGroup = A;
unicode = 01FA;
},
{
glyphname = Atilde;
lastChange = "2015-10-25 05:21:50 +0000";
layers = (
{
layerId = "63223F5B-13B6-47A7-8CD6-727EAFF9983D";
name = Light;
paths = (
{
closed = 1;
nodes = (
"89 0 LINE",
"164 200 LINE",
"487 200 LINE",
"562 0 LINE",
"590 0 LINE",
"348 644 LINE",
"303 644 LINE",
"60 0 LINE"
);
},
{
closed = 1;
nodes = (
"325 628 LINE",
"477 225 LINE",
"173 225 LINE"
);
},
{
closed = 1;
nodes = (
"422 718 OFFCURVE",
"443 728 OFFCURVE",
"456 746 CURVE",
"456 777 LINE",
"438 751 OFFCURVE",
"417 743 OFFCURVE",
"388 743 CURVE SMOOTH",
"345 743 OFFCURVE",
"316 779 OFFCURVE",
"267 779 CURVE SMOOTH",
"239 779 OFFCURVE",
"210 769 OFFCURVE",
"195 751 CURVE",
"195 720 LINE",
"217 747 OFFCURVE",
"242 754 OFFCURVE",
"270 754 CURVE SMOOTH",
"307 754 OFFCURVE",
"345 718 OFFCURVE",
"391 718 CURVE SMOOTH"
);
}
);
width = 650;
}
);
leftKerningGroup = A;
note = Atilde;
rightKerningGroup = A;
unicode = 00C3;
},
{
glyphname = AE;
lastChange = "2015-10-25 05:21:50 +0000";
layers = (
{
layerId = "63223F5B-13B6-47A7-8CD6-727EAFF9983D";
name = Light;
paths = (
{
closed = 1;
nodes = (
"89 0 LINE",
"164 200 LINE",
"412 200 LINE",
"412 0 LINE",
"765 0 LINE",
"765 25 LINE",
"440 25 LINE",
"440 309 LINE",
"730 309 LINE",
"730 335 LINE",
"440 335 LINE",
"440 618 LINE",
"765 618 LINE",
"765 644 LINE",
"303 644 LINE",
"60 0 LINE"
);
},
{
closed = 1;
nodes = (
"322 618 LINE",
"412 618 LINE",
"412 225 LINE",
"174 225 LINE"
);
}
);
width = 825;
}
);
leftKerningGroup = A;
note = AE;
rightKerningGroup = E;
unicode = 00C6;
},
{
glyphname = AEacute;
lastChange = "2015-10-25 05:21:51 +0000";
layers = (
{
layerId = "63223F5B-13B6-47A7-8CD6-727EAFF9983D";
name = Light;
paths = (
{
closed = 1;
nodes = (
"89 0 LINE",
"164 200 LINE",
"412 200 LINE",
"412 0 LINE",
"765 0 LINE",
"765 25 LINE",
"440 25 LINE",
"440 309 LINE",
"730 309 LINE",
"730 335 LINE",
"440 335 LINE",
"440 618 LINE",
"765 618 LINE",
"765 644 LINE",
"303 644 LINE",
"60 0 LINE"
);
},
{
closed = 1;
nodes = (
"322 618 LINE",
"412 618 LINE",
"412 225 LINE",
"174 225 LINE"
);
},
{
closed = 1;
nodes = (
"467 688 LINE",
"537 837 LINE",
"507 837 LINE",
"444 688 LINE"
);
}
);
width = 825;
}
);
leftKerningGroup = A;
note = AEacute;
rightKerningGroup = E;
unicode = 01FC;
},
{
glyphname = B;
lastChange = "2015-10-25 05:21:50 +0000";
layers = (
{
layerId = "63223F5B-13B6-47A7-8CD6-727EAFF9983D";
name = Light;
paths = (
{
closed = 1;
nodes = (
"370 0 LINE SMOOTH",
"492 0 OFFCURVE",
"552 54 OFFCURVE",
"552 181 CURVE SMOOTH",
"552 274 OFFCURVE",
"507 321 OFFCURVE",
"437 335 CURVE",
"492 357 OFFCURVE",
"525 405 OFFCURVE",
"525 478 CURVE SMOOTH",
"525 584 OFFCURVE",
"475 644 OFFCURVE",
"349 644 CURVE SMOOTH",
"80 644 LINE",
"80 0 LINE"
);
},
{
closed = 1;
nodes = (
"108 322 LINE",
"357 322 LINE SMOOTH",
"486 322 OFFCURVE",
"525 271 OFFCURVE",
"525 181 CURVE SMOOTH",
"525 69 OFFCURVE",
"478 25 OFFCURVE",
"374 25 CURVE SMOOTH",
"108 25 LINE"
);
},
{
closed = 1;
nodes = (
"108 619 LINE",
"344 619 LINE SMOOTH",
"467 619 OFFCURVE",
"498 568 OFFCURVE",
"498 478 CURVE SMOOTH",
"498 403 OFFCURVE",
"462 347 OFFCURVE",
"364 347 CURVE SMOOTH",
"108 347 LINE"
);
}
);
width = 612;
}
);
note = B;
unicode = 0042;
},
{
glyphname = C;
lastChange = "2015-10-25 05:21:49 +0000";
layers = (
{
layerId = "63223F5B-13B6-47A7-8CD6-727EAFF9983D";
name = Light;
paths = (
{
closed = 1;
nodes = (
"414 -10 OFFCURVE",
"474 -1 OFFCURVE",
"524 14 CURVE",
"524 40 LINE",
"474 24 OFFCURVE",
"407 15 OFFCURVE",
"349 15 CURVE SMOOTH",
"163 15 OFFCURVE",
"87 124 OFFCURVE",
"87 301 CURVE SMOOTH",
"87 494 OFFCURVE",
"146 629 OFFCURVE",
"346 629 CURVE SMOOTH",
"412 629 OFFCURVE",
"474 618 OFFCURVE",
"524 600 CURVE",
"524 626 LINE",
"474 644 OFFCURVE",
"414 654 OFFCURVE",
"343 654 CURVE SMOOTH",
"131 654 OFFCURVE",
"60 508 OFFCURVE",
"60 301 CURVE SMOOTH",
"60 117 OFFCURVE",
"143 -10 OFFCURVE",
"343 -10 CURVE SMOOTH"
);
}
);
width = 584;
}
);
leftKerningGroup = C;
note = C;
rightKerningGroup = C;
unicode = 0043;
},
{
glyphname = Cacute;
lastChange = "2015-10-25 05:21:50 +0000";
layers = (
{
layerId = "63223F5B-13B6-47A7-8CD6-727EAFF9983D";
name = Light;
paths = (
{
closed = 1;
nodes = (
"414 -10 OFFCURVE",
"474 -1 OFFCURVE",
"524 14 CURVE",
"524 40 LINE",
"474 24 OFFCURVE",
"407 15 OFFCURVE",
"349 15 CURVE SMOOTH",
"163 15 OFFCURVE",
"87 124 OFFCURVE",
"87 301 CURVE SMOOTH",
"87 494 OFFCURVE",
"146 629 OFFCURVE",
"346 629 CURVE SMOOTH",
"412 629 OFFCURVE",
"474 618 OFFCURVE",
"524 600 CURVE",
"524 626 LINE",
"474 644 OFFCURVE",
"414 654 OFFCURVE",
"343 654 CURVE SMOOTH",
"131 654 OFFCURVE",
"60 508 OFFCURVE",
"60 301 CURVE SMOOTH",
"60 117 OFFCURVE",
"143 -10 OFFCURVE",
"343 -10 CURVE SMOOTH"
);
},
{
closed = 1;
nodes = (
"349 688 LINE",
"419 837 LINE",
"389 837 LINE",
"326 688 LINE"
);
}
);
width = 584;
}
);
leftKerningGroup = C;
note = Cacute;
rightKerningGroup = C;
unicode = 0106;
},
{
glyphname = Ccaron;
lastChange = "2015-10-25 05:21:51 +0000";
layers = (
{
layerId = "63223F5B-13B6-47A7-8CD6-727EAFF9983D";
name = Light;
paths = (
{
closed = 1;
nodes = (
"414 -10 OFFCURVE",
"474 -1 OFFCURVE",
"524 14 CURVE",
"524 40 LINE",
"474 24 OFFCURVE",
"407 15 OFFCURVE",
"349 15 CURVE SMOOTH",
"163 15 OFFCURVE",
"87 124 OFFCURVE",
"87 301 CURVE SMOOTH",
"87 494 OFFCURVE",
"146 629 OFFCURVE",
"346 629 CURVE SMOOTH",
"412 629 OFFCURVE",
"474 618 OFFCURVE",
"524 600 CURVE",
"524 626 LINE",
"474 644 OFFCURVE",
"414 654 OFFCURVE",
"343 654 CURVE SMOOTH",
"131 654 OFFCURVE",
"60 508 OFFCURVE",
"60 301 CURVE SMOOTH",
"60 117 OFFCURVE",
"143 -10 OFFCURVE",
"343 -10 CURVE SMOOTH"
);
},
{
closed = 1;
nodes = (
"377 688 LINE",
"472 810 LINE",
"443 810 LINE",
"362 706 LINE",
"281 810 LINE",
"252 810 LINE",
"347 688 LINE"
);
}
);
width = 584;
}
);
leftKerningGroup = C;
note = Ccaron;
rightKerningGroup = C;
unicode = 010C;
},
{
glyphname = Ccedilla;
lastChange = "2015-10-25 05:21:49 +0000";
layers = (
{
layerId = "63223F5B-13B6-47A7-8CD6-727EAFF9983D";
name = Light;
paths = (
{
closed = 1;
nodes = (
"421 -240 OFFCURVE",
"459 -204 OFFCURVE",
"459 -139 CURVE SMOOTH",
"459 -81 OFFCURVE",
"416 -53 OFFCURVE",
"341 -53 CURVE",
"356 -10 LINE",
"421 -9 OFFCURVE",
"477 0 OFFCURVE",
"524 14 CURVE",
"524 40 LINE",
"474 24 OFFCURVE",
"407 15 OFFCURVE",
"349 15 CURVE SMOOTH",
"163 15 OFFCURVE",
"87 124 OFFCURVE",
"87 301 CURVE SMOOTH",
"87 494 OFFCURVE",
"146 629 OFFCURVE",
"346 629 CURVE SMOOTH",
"412 629 OFFCURVE",
"474 618 OFFCURVE",
"524 600 CURVE",
"524 626 LINE",
"474 644 OFFCURVE",
"414 654 OFFCURVE",
"343 654 CURVE SMOOTH",
"131 654 OFFCURVE",
"60 508 OFFCURVE",
"60 301 CURVE SMOOTH",
"60 121 OFFCURVE",
"139 -4 OFFCURVE",
"328 -10 CURVE",
"305 -76 LINE",
"333 -76 LINE SMOOTH",
"400 -76 OFFCURVE",
"432 -93 OFFCURVE",
"432 -141 CURVE SMOOTH",
"432 -195 OFFCURVE",
"397 -215 OFFCURVE",
"325 -215 CURVE SMOOTH",
"302 -215 OFFCURVE",
"279 -212 OFFCURVE",
"261 -207 CURVE",
"261 -232 LINE",
"276 -236 OFFCURVE",
"303 -240 OFFCURVE",
"324 -240 CURVE SMOOTH"
);
}
);
width = 584;
}
);
leftKerningGroup = C;
note = Ccedilla;
rightKerningGroup = C;
unicode = 00C7;
},
{
glyphname = Ccircumflex;
lastChange = "2015-10-25 05:21:50 +0000";
layers = (
{
layerId = "63223F5B-13B6-47A7-8CD6-727EAFF9983D";
name = Light;
paths = (
{
closed = 1;
nodes = (
"414 -10 OFFCURVE",
"474 -1 OFFCURVE",
"524 14 CURVE",
"524 40 LINE",
"474 24 OFFCURVE",
"407 15 OFFCURVE",
"349 15 CURVE SMOOTH",
"163 15 OFFCURVE",
"87 124 OFFCURVE",
"87 301 CURVE SMOOTH",
"87 494 OFFCURVE",
"146 629 OFFCURVE",
"346 629 CURVE SMOOTH",
"412 629 OFFCURVE",
"474 618 OFFCURVE",
"524 600 CURVE",
"524 626 LINE",
"474 644 OFFCURVE",
"414 654 OFFCURVE",
"343 654 CURVE SMOOTH",
"131 654 OFFCURVE",
"60 508 OFFCURVE",
"60 301 CURVE SMOOTH",
"60 117 OFFCURVE",
"143 -10 OFFCURVE",
"343 -10 CURVE SMOOTH"
);
},
{
closed = 1;
nodes = (
"259 688 LINE",
"340 792 LINE",
"421 688 LINE",
"450 688 LINE",
"355 810 LINE",
"325 810 LINE",
"230 688 LINE"
);
}
);
width = 584;
}
);
leftKerningGroup = C;
note = Ccircumflex;
rightKerningGroup = C;
unicode = 0108;
},
{
glyphname = Cdotaccent;
lastChange = "2015-10-25 05:21:51 +0000";
layers = (
{
layerId = "63223F5B-13B6-47A7-8CD6-727EAFF9983D";
name = Light;
paths = (
{
closed = 1;
nodes = (
"414 -10 OFFCURVE",
"474 -1 OFFCURVE",
"524 14 CURVE",
"524 40 LINE",
"474 24 OFFCURVE",
"407 15 OFFCURVE",
"349 15 CURVE SMOOTH",
"163 15 OFFCURVE",
"87 124 OFFCURVE",
"87 301 CURVE SMOOTH",
"87 494 OFFCURVE",
"146 629 OFFCURVE",
"346 629 CURVE SMOOTH",
"412 629 OFFCURVE",
"474 618 OFFCURVE",
"524 600 CURVE",
"524 626 LINE",
"474 644 OFFCURVE",
"414 654 OFFCURVE",
"343 654 CURVE SMOOTH",
"131 654 OFFCURVE",
"60 508 OFFCURVE",
"60 301 CURVE SMOOTH",
"60 117 OFFCURVE",
"143 -10 OFFCURVE",
"343 -10 CURVE SMOOTH"
);
},
{
closed = 1;
nodes = (
"366 718 LINE",
"366 753 LINE",
"331 753 LINE",
"331 718 LINE"
);
}
);
width = 584;
}
);
leftKerningGroup = C;
note = Cdotaccent;
rightKerningGroup = C;
unicode = 010A;
},
{
glyphname = D;
lastChange = "2015-10-25 05:21:51 +0000";
layers = (
{
layerId = "63223F5B-13B6-47A7-8CD6-727EAFF9983D";
name = Light;
paths = (
{
closed = 1;
nodes = (
"313 0 LINE SMOOTH",
"498 0 OFFCURVE",
"562 98 OFFCURVE",
"562 317 CURVE SMOOTH",
"562 548 OFFCURVE",
"495 644 OFFCURVE",
"313 644 CURVE SMOOTH",
"80 644 LINE",
"80 0 LINE"
);
},
{
closed = 1;
nodes = (
"108 619 LINE",
"303 619 LINE SMOOTH",
"472 619 OFFCURVE",
"535 552 OFFCURVE",
"535 317 CURVE SMOOTH",
"535 79 OFFCURVE",
"460 25 OFFCURVE",
"303 25 CURVE SMOOTH",
"108 25 LINE"
);
}
);
width = 622;
}
);
note = D;
rightKerningGroup = D;
unicode = 0044;
},
{
glyphname = Eth;
lastChange = "2015-10-25 05:21:51 +0000";
layers = (
{
layerId = "63223F5B-13B6-47A7-8CD6-727EAFF9983D";
name = Light;
paths = (
{
closed = 1;
nodes = (
"364 0 LINE SMOOTH",
"549 0 OFFCURVE",
"613 98 OFFCURVE",
"613 317 CURVE SMOOTH",
"613 548 OFFCURVE",
"546 644 OFFCURVE",
"364 644 CURVE SMOOTH",
"131 644 LINE",
"131 330 LINE",
"40 330 LINE",
"40 305 LINE",
"131 305 LINE",
"131 0 LINE"
);
},
{
closed = 1;
nodes = (
"159 305 LINE",
"357 305 LINE",
"357 330 LINE",
"159 330 LINE",
"159 618 LINE",
"354 618 LINE SMOOTH",
"523 618 OFFCURVE",
"586 552 OFFCURVE",
"586 317 CURVE SMOOTH",
"586 79 OFFCURVE",
"511 25 OFFCURVE",
"354 25 CURVE SMOOTH",
"159 25 LINE"
);
}
);
width = 673;
}
);
note = Eth;
rightKerningGroup = D;
unicode = 00D0;
},
{
glyphname = Dcaron;
lastChange = "2015-10-25 05:21:51 +0000";
layers = (
{
layerId = "63223F5B-13B6-47A7-8CD6-727EAFF9983D";
name = Light;
paths = (
{
closed = 1;
nodes = (
"313 0 LINE SMOOTH",
"498 0 OFFCURVE",
"562 98 OFFCURVE",
"562 317 CURVE SMOOTH",
"562 548 OFFCURVE",
"495 644 OFFCURVE",
"313 644 CURVE SMOOTH",
"80 644 LINE",
"80 0 LINE"
);
},
{
closed = 1;
nodes = (
"108 619 LINE",
"303 619 LINE SMOOTH",
"472 619 OFFCURVE",
"535 552 OFFCURVE",
"535 317 CURVE SMOOTH",
"535 79 OFFCURVE",
"460 25 OFFCURVE",
"303 25 CURVE SMOOTH",
"108 25 LINE"
);
},
{
closed = 1;
nodes = (
"324 732 LINE",
"419 854 LINE",
"390 854 LINE",
"309 750 LINE",
"228 854 LINE",
"199 854 LINE",
"294 732 LINE"
);
}
);
width = 622;
}
);
note = Dcaron;
rightKerningGroup = D;
unicode = 010E;
},
{
glyphname = Dcroat;
lastChange = "2015-10-25 05:21:51 +0000";
layers = (
{
layerId = "63223F5B-13B6-47A7-8CD6-727EAFF9983D";
name = Light;
paths = (
{
closed = 1;
nodes = (
"354 0 LINE SMOOTH",
"539 0 OFFCURVE",
"603 98 OFFCURVE",
"603 317 CURVE SMOOTH",
"603 548 OFFCURVE",
"536 644 OFFCURVE",
"354 644 CURVE SMOOTH",
"121 644 LINE",
"121 330 LINE",
"30 330 LINE",
"30 305 LINE",
"121 305 LINE",
"121 0 LINE"
);
},
{
closed = 1;
nodes = (
"149 305 LINE",
"347 305 LINE",
"347 330 LINE",
"149 330 LINE",
"149 618 LINE",
"344 618 LINE SMOOTH",
"513 618 OFFCURVE",
"576 552 OFFCURVE",
"576 317 CURVE SMOOTH",
"576 79 OFFCURVE",
"501 25 OFFCURVE",
"344 25 CURVE SMOOTH",
"149 25 LINE"
);
}
);
width = 663;
}
);
note = Dcroat;
rightKerningGroup = D;
unicode = 0110;
},
{
glyphname = Ddotbelow;
lastChange = "2015-11-24 07:49:35 +0000";
layers = (
{
layerId = "63223F5B-13B6-47A7-8CD6-727EAFF9983D";
name = Light;
paths = (
{
closed = 1;
nodes = (
"313 0 LINE SMOOTH",
"498 0 OFFCURVE",
"562 98 OFFCURVE",
"562 317 CURVE SMOOTH",
"562 548 OFFCURVE",
"495 644 OFFCURVE",
"313 644 CURVE SMOOTH",
"80 644 LINE",
"80 0 LINE"
);
},
{
closed = 1;
nodes = (
"108 619 LINE",
"303 619 LINE SMOOTH",
"472 619 OFFCURVE",
"535 552 OFFCURVE",
"535 317 CURVE SMOOTH",
"535 79 OFFCURVE",
"460 25 OFFCURVE",
"303 25 CURVE SMOOTH",
"108 25 LINE"
);
},
{
closed = 1;
nodes = (
"353 -139 LINE",
"353 -102 LINE",
"316 -102 LINE",
"316 -139 LINE"
);
}
);
width = 622;
}
);
note = Ddotbelow;
rightKerningGroup = D;
unicode = 1E0C;
},
{
glyphname = Dlinebelow;
lastChange = "2015-11-24 07:49:40 +0000";
layers = (
{
layerId = "63223F5B-13B6-47A7-8CD6-727EAFF9983D";
name = Light;
paths = (
{
closed = 1;
nodes = (
"313 0 LINE SMOOTH",
"498 0 OFFCURVE",
"562 98 OFFCURVE",
"562 317 CURVE SMOOTH",
"562 548 OFFCURVE",
"495 644 OFFCURVE",
"313 644 CURVE SMOOTH",
"80 644 LINE",
"80 0 LINE"
);
},
{
closed = 1;
nodes = (
"108 619 LINE",
"303 619 LINE SMOOTH",
"472 619 OFFCURVE",
"535 552 OFFCURVE",
"535 317 CURVE SMOOTH",
"535 79 OFFCURVE",
"460 25 OFFCURVE",
"303 25 CURVE SMOOTH",
"108 25 LINE"
);
},
{
closed = 1;
nodes = (
"425 -101 LINE",
"425 -76 LINE",
"158 -76 LINE",
"158 -101 LINE"
);
}
);
width = 622;
}
);
note = Dlinebelow;
rightKerningGroup = D;
unicode = 1E0E;
},
{
glyphname = E;
lastChange = "2015-10-25 05:21:49 +0000";
layers = (
{
layerId = "63223F5B-13B6-47A7-8CD6-727EAFF9983D";
name = Light;
paths = (
{
closed = 1;
nodes = (
"488 0 LINE",
"488 25 LINE",
"108 25 LINE",
"108 310 LINE",
"453 310 LINE",
"453 335 LINE",
"108 335 LINE",
"108 619 LINE",
"488 619 LINE",
"488 644 LINE",
"80 644 LINE",
"80 0 LINE"
);
}
);
width = 538;
}
);
leftKerningGroup = E;
note = E;
rightKerningGroup = E;
unicode = 0045;
},
{
glyphname = Eacute;
lastChange = "2015-10-25 05:21:50 +0000";
layers = (
{
layerId = "63223F5B-13B6-47A7-8CD6-727EAFF9983D";
name = Light;
paths = (
{
closed = 1;
nodes = (
"488 0 LINE",
"488 25 LINE",
"108 25 LINE",
"108 310 LINE",
"453 310 LINE",
"453 335 LINE",
"108 335 LINE",
"108 619 LINE",
"488 619 LINE",
"488 644 LINE",
"80 644 LINE",
"80 0 LINE"
);
},
{
closed = 1;
nodes = (
"300 688 LINE",
"370 837 LINE",
"340 837 LINE",
"277 688 LINE"
);
}
);
width = 538;
}
);
leftKerningGroup = E;
note = Eacute;
rightKerningGroup = E;
unicode = 00C9;
},
{
glyphname = Ebreve;
lastChange = "2015-11-24 07:49:47 +0000";
layers = (
{
layerId = "63223F5B-13B6-47A7-8CD6-727EAFF9983D";
name = Light;
paths = (
{
closed = 1;
nodes = (
"488 0 LINE",
"488 25 LINE",
"108 25 LINE",
"108 310 LINE",
"453 310 LINE",
"453 335 LINE",
"108 335 LINE",
"108 619 LINE",
"488 619 LINE",
"488 644 LINE",
"80 644 LINE",
"80 0 LINE"
);
},
{
closed = 1;
nodes = (
"351 688 OFFCURVE",
"393 730 OFFCURVE",
"393 783 CURVE",
"368 783 LINE",
"368 743 OFFCURVE",
"338 713 OFFCURVE",
"297 713 CURVE SMOOTH",
"257 713 OFFCURVE",
"227 743 OFFCURVE",
"227 783 CURVE",
"202 783 LINE",
"202 730 OFFCURVE",
"244 688 OFFCURVE",
"297 688 CURVE SMOOTH"
);
}
);
width = 538;
}
);
leftKerningGroup = E;
note = Ebreve;
rightKerningGroup = E;
unicode = 0114;
},
{
glyphname = Ecaron;
lastChange = "2015-11-24 07:49:51 +0000";
layers = (
{
layerId = "63223F5B-13B6-47A7-8CD6-727EAFF9983D";
name = Light;
paths = (
{
closed = 1;
nodes = (
"488 0 LINE",
"488 25 LINE",
"108 25 LINE",
"108 310 LINE",
"453 310 LINE",
"453 335 LINE",
"108 335 LINE",
"108 619 LINE",
"488 619 LINE",
"488 644 LINE",
"80 644 LINE",
"80 0 LINE"
);
},
{
closed = 1;
nodes = (
"313 688 LINE",
"408 810 LINE",
"379 810 LINE",
"298 706 LINE",
"217 810 LINE",
"188 810 LINE",
"283 688 LINE"
);
}
);
width = 538;
}
);
leftKerningGroup = E;
note = Ecaron;
rightKerningGroup = E;
unicode = 011A;
},
{
glyphname = Ecircumflex;
lastChange = "2015-11-24 07:49:54 +0000";
layers = (
{
layerId = "63223F5B-13B6-47A7-8CD6-727EAFF9983D";
name = Light;
paths = (
{
closed = 1;
nodes = (
"488 0 LINE",
"488 25 LINE",
"108 25 LINE",
"108 310 LINE",
"453 310 LINE",
"453 335 LINE",
"108 335 LINE",
"108 619 LINE",
"488 619 LINE",
"488 644 LINE",
"80 644 LINE",
"80 0 LINE"
);
},
{
closed = 1;
nodes = (
"201 688 LINE",
"282 792 LINE",
"363 688 LINE",
"392 688 LINE",
"297 810 LINE",
"267 810 LINE",
"172 688 LINE"
);
}
);
width = 538;
}
);
leftKerningGroup = E;
note = Ecircumflex;
rightKerningGroup = E;
unicode = 00CA;
},
{
glyphname = Ecircumflexacute;
lastChange = "2015-11-24 07:49:57 +0000";
layers = (
{
layerId = "63223F5B-13B6-47A7-8CD6-727EAFF9983D";
name = Light;
paths = (
{
closed = 1;
nodes = (
"488 0 LINE",
"488 25 LINE",
"108 25 LINE",
"108 310 LINE",
"453 310 LINE",
"453 335 LINE",
"108 335 LINE",
"108 619 LINE",
"488 619 LINE",
"488 644 LINE",
"80 644 LINE",
"80 0 LINE"
);
},
{
closed = 1;
nodes = (
"201 688 LINE",
"282 774 LINE",
"363 688 LINE",
"392 688 LINE",
"297 790 LINE",
"267 790 LINE",
"172 688 LINE"
);
},
{
closed = 1;
nodes = (
"363 790 LINE",
"427 899 LINE",
"398 899 LINE",
"341 790 LINE"
);
}
);
width = 538;
}
);
leftKerningGroup = E;
note = Ecircumflexacute;
rightKerningGroup = E;
unicode = 1EBE;
},
{
glyphname = Ecircumflexdotbelow;
lastChange = "2015-11-24 07:50:13 +0000";
layers = (
{
layerId = "63223F5B-13B6-47A7-8CD6-727EAFF9983D";
name = Light;
paths = (
{
closed = 1;
nodes = (
"488 0 LINE",
"488 25 LINE",
"108 25 LINE",
"108 310 LINE",
"453 310 LINE",
"453 335 LINE",
"108 335 LINE",
"108 619 LINE",
"488 619 LINE",
"488 644 LINE",
"80 644 LINE",
"80 0 LINE"
);
},
{
closed = 1;
nodes = (
"296 -139 LINE",
"296 -102 LINE",
"259 -102 LINE",
"259 -139 LINE"
);
},
{
closed = 1;
nodes = (
"196 688 LINE",
"277 792 LINE",
"358 688 LINE",
"387 688 LINE",
"292 810 LINE",
"262 810 LINE",
"167 688 LINE"
);
}
);
width = 538;
}
);
leftKerningGroup = E;
note = Ecircumflexdotbelow;
rightKerningGroup = E;
unicode = 1EC6;
},
{
glyphname = Ecircumflexgrave;
lastChange = "2015-11-24 07:50:13 +0000";
layers = (
{
layerId = "63223F5B-13B6-47A7-8CD6-727EAFF9983D";
name = Light;
paths = (
{
closed = 1;
nodes = (
"488 0 LINE",
"488 25 LINE",
"108 25 LINE",
"108 310 LINE",
"453 310 LINE",
"453 335 LINE",
"108 335 LINE",
"108 619 LINE",
"488 619 LINE",
"488 644 LINE",
"80 644 LINE",
"80 0 LINE"
);
},
{
closed = 1;
nodes = (
"215 688 LINE",
"296 774 LINE",
"377 688 LINE",
"406 688 LINE",
"311 790 LINE",
"281 790 LINE",
"186 688 LINE"
);
},
{
closed = 1;
nodes = (
"237 790 LINE",
"180 899 LINE",
"151 899 LINE",
"215 790 LINE"
);
}
);
width = 538;
}
);
leftKerningGroup = E;
note = Ecircumflexgrave;
rightKerningGroup = E;
unicode = 1EC0;
},
{
glyphname = Ecircumflexhookabove;
lastChange = "2015-11-24 07:50:13 +0000";
layers = (
{
layerId = "63223F5B-13B6-47A7-8CD6-727EAFF9983D";
name = Light;
paths = (
{
closed = 1;
nodes = (
"488 0 LINE",
"488 25 LINE",
"108 25 LINE",
"108 310 LINE",
"453 310 LINE",
"453 335 LINE",
"108 335 LINE",
"108 619 LINE",
"488 619 LINE",
"488 644 LINE",
"80 644 LINE",
"80 0 LINE"
);
},
{
closed = 1;
nodes = (
"210 688 LINE",
"291 774 LINE",
"372 688 LINE",
"401 688 LINE",
"306 790 LINE",
"276 790 LINE",
"181 688 LINE"
);
},
{
closed = 1;
nodes = (
"385 769 LINE",
"385 806 LINE",
"443 812 OFFCURVE",
"467 833 OFFCURVE",
"467 875 CURVE SMOOTH",
"467 920 OFFCURVE",
"436 944 OFFCURVE",
"386 944 CURVE SMOOTH",
"362 944 OFFCURVE",
"342 939 OFFCURVE",
"326 932 CURVE",
"326 907 LINE",
"344 915 OFFCURVE",
"362 920 OFFCURVE",
"386 920 CURVE SMOOTH",
"424 920 OFFCURVE",
"442 904 OFFCURVE",
"442 875 CURVE SMOOTH",
"442 844 OFFCURVE",
"429 829 OFFCURVE",
"357 825 CURVE",
"357 769 LINE"
);
}
);
width = 538;
}
);
leftKerningGroup = E;
note = Ecircumflexhookabove;
rightKerningGroup = E;
unicode = 1EC2;
},
{
glyphname = Ecircumflextilde;
lastChange = "2015-11-24 07:50:13 +0000";
layers = (
{
layerId = "63223F5B-13B6-47A7-8CD6-727EAFF9983D";
name = Light;
paths = (
{
closed = 1;
nodes = (
"488 0 LINE",
"488 25 LINE",
"108 25 LINE",
"108 310 LINE",
"453 310 LINE",
"453 335 LINE",
"108 335 LINE",
"108 619 LINE",
"488 619 LINE",
"488 644 LINE",
"80 644 LINE",
"80 0 LINE"
);
},
{
closed = 1;
nodes = (
"212 688 LINE",
"293 774 LINE",
"374 688 LINE",
"403 688 LINE",
"308 790 LINE",
"278 790 LINE",
"183 688 LINE"
);
},
{
closed = 1;
nodes = (
"192 829 OFFCURVE",
"214 835 OFFCURVE",
"242 835 CURVE SMOOTH",
"279 835 OFFCURVE",
"306 803 OFFCURVE",
"352 803 CURVE SMOOTH",
"381 803 OFFCURVE",
"406 812 OFFCURVE",
"422 829 CURVE",
"422 860 LINE",
"399 834 OFFCURVE",
"377 828 OFFCURVE",
"349 828 CURVE SMOOTH",
"306 828 OFFCURVE",
"288 860 OFFCURVE",
"239 860 CURVE SMOOTH",
"210 860 OFFCURVE",
"185 851 OFFCURVE",
"169 834 CURVE",
"169 803 LINE"
);
}
);
width = 538;
}
);
leftKerningGroup = E;
note = Ecircumflextilde;
rightKerningGroup = E;
unicode = 1EC4;
},
{
glyphname = Edieresis;
lastChange = "2015-11-24 07:50:13 +0000";
layers = (
{
layerId = "63223F5B-13B6-47A7-8CD6-727EAFF9983D";
name = Light;
paths = (
{
closed = 1;
nodes = (
"488 0 LINE",
"488 25 LINE",
"108 25 LINE",
"108 310 LINE",
"453 310 LINE",
"453 335 LINE",
"108 335 LINE",
"108 619 LINE",
"488 619 LINE",
"488 644 LINE",
"80 644 LINE",
"80 0 LINE"
);
},
{
closed = 1;
nodes = (
"228 718 LINE",
"228 753 LINE",
"193 753 LINE",
"193 718 LINE"
);
},
{
closed = 1;
nodes = (
"385 718 LINE",
"385 753 LINE",
"350 753 LINE",
"350 718 LINE"
);
}
);
width = 538;
}
);
leftKerningGroup = E;
note = Edieresis;
rightKerningGroup = E;
unicode = 00CB;
},
{
glyphname = Edotaccent;
lastChange = "2015-11-24 07:50:13 +0000";
layers = (
{
layerId = "63223F5B-13B6-47A7-8CD6-727EAFF9983D";
name = Light;
paths = (
{
closed = 1;
nodes = (
"488 0 LINE",
"488 25 LINE",
"108 25 LINE",
"108 310 LINE",
"453 310 LINE",
"453 335 LINE",
"108 335 LINE",
"108 619 LINE",
"488 619 LINE",
"488 644 LINE",
"80 644 LINE",
"80 0 LINE"
);
},
{
closed = 1;
nodes = (
"308 718 LINE",
"308 753 LINE",
"273 753 LINE",
"273 718 LINE"
);
}
);
width = 538;
}
);
leftKerningGroup = E;
note = Edotaccent;
rightKerningGroup = E;
unicode = 0116;
},
{
glyphname = Edotbelow;
lastChange = "2015-11-24 07:50:13 +0000";
layers = (
{
layerId = "63223F5B-13B6-47A7-8CD6-727EAFF9983D";
name = Light;
paths = (
{
closed = 1;
nodes = (
"488 0 LINE",
"488 25 LINE",
"108 25 LINE",
"108 310 LINE",
"453 310 LINE",
"453 335 LINE",
"108 335 LINE",
"108 619 LINE",
"488 619 LINE",
"488 644 LINE",
"80 644 LINE",
"80 0 LINE"
);
},
{
closed = 1;
nodes = (
"306 -139 LINE",
"306 -102 LINE",
"269 -102 LINE",
"269 -139 LINE"
);
}
);
width = 538;
}
);
leftKerningGroup = E;
note = Edotbelow;
rightKerningGroup = E;
unicode = 1EB8;
},
{
glyphname = Egrave;
lastChange = "2015-11-24 07:50:13 +0000";
layers = (
{
layerId = "63223F5B-13B6-47A7-8CD6-727EAFF9983D";
name = Light;
paths = (
{
closed = 1;
nodes = (
"488 0 LINE",
"488 25 LINE",
"108 25 LINE",
"108 310 LINE",
"453 310 LINE",
"453 335 LINE",
"108 335 LINE",
"108 619 LINE",
"488 619 LINE",
"488 644 LINE",
"80 644 LINE",
"80 0 LINE"
);
},
{
closed = 1;
nodes = (
"309 688 LINE",
"246 837 LINE",
"216 837 LINE",
"286 688 LINE"
);
}
);
width = 538;
}
);
leftKerningGroup = E;
note = Egrave;
rightKerningGroup = E;
unicode = 00C8;
},
{
glyphname = Ehookabove;
lastChange = "2015-11-24 07:50:13 +0000";
layers = (
{
layerId = "63223F5B-13B6-47A7-8CD6-727EAFF9983D";
name = Light;
paths = (
{
closed = 1;
nodes = (
"488 0 LINE",
"488 25 LINE",
"108 25 LINE",
"108 310 LINE",
"453 310 LINE",
"453 335 LINE",
"108 335 LINE",
"108 619 LINE",
"488 619 LINE",
"488 644 LINE",
"80 644 LINE",
"80 0 LINE"
);
},
{
closed = 1;
nodes = (
"295 688 LINE",
"295 744 LINE",
"365 750 OFFCURVE",
"387 778 OFFCURVE",
"387 830 CURVE SMOOTH",
"387 885 OFFCURVE",
"349 915 OFFCURVE",
"276 915 CURVE SMOOTH",
"256 915 OFFCURVE",
"222 910 OFFCURVE",
"206 903 CURVE",
"206 878 LINE",
"224 885 OFFCURVE",
"253 890 OFFCURVE",
"275 890 CURVE SMOOTH",
"338 890 OFFCURVE",
"362 869 OFFCURVE",
"362 830 CURVE SMOOTH",
"362 789 OFFCURVE",
"349 767 OFFCURVE",
"267 763 CURVE",
"267 688 LINE"
);
}
);
width = 538;
}
);
leftKerningGroup = E;
note = Ehookabove;
rightKerningGroup = E;
unicode = 1EBA;
},
{
glyphname = Emacron;
lastChange = "2015-11-24 07:50:13 +0000";
layers = (
{
layerId = "63223F5B-13B6-47A7-8CD6-727EAFF9983D";
name = Light;
paths = (
{
closed = 1;
nodes = (
"488 0 LINE",
"488 25 LINE",
"108 25 LINE",
"108 310 LINE",
"453 310 LINE",
"453 335 LINE",
"108 335 LINE",
"108 619 LINE",
"488 619 LINE",
"488 644 LINE",
"80 644 LINE",
"80 0 LINE"
);
},
{
closed = 1;
nodes = (
"421 718 LINE",
"421 743 LINE",
"154 743 LINE",
"154 718 LINE"
);
}
);
width = 538;
}
);
leftKerningGroup = E;
note = Emacron;
rightKerningGroup = E;
unicode = 0112;
},
{
glyphname = Eogonek;
lastChange = "2015-11-24 07:50:13 +0000";
layers = (
{
layerId = "63223F5B-13B6-47A7-8CD6-727EAFF9983D";
name = Light;
paths = (
{
closed = 1;
nodes = (
"488 0 LINE",
"488 25 LINE",
"108 25 LINE",
"108 310 LINE",
"453 310 LINE",
"453 335 LINE",
"108 335 LINE",
"108 619 LINE",
"488 619 LINE",
"488 644 LINE",
"80 644 LINE",
"80 0 LINE"
);
},
{
closed = 1;
nodes = (
"438 -220 OFFCURVE",
"459 -217 OFFCURVE",
"473 -209 CURVE",
"473 -184 LINE",
"461 -191 OFFCURVE",
"440 -195 OFFCURVE",
"423 -195 CURVE SMOOTH",
"383 -195 OFFCURVE",
"367 -176 OFFCURVE",
"367 -135 CURVE SMOOTH",
"367 -88 OFFCURVE",
"391 -39 OFFCURVE",
"444 0 CURVE",
"416 0 LINE",
"375 -27 OFFCURVE",
"340 -80 OFFCURVE",
"340 -135 CURVE SMOOTH",
"340 -198 OFFCURVE",
"376 -220 OFFCURVE",
"423 -220 CURVE SMOOTH"
);
}
);
width = 538;
}
);
leftKerningGroup = E;
note = Eogonek;
rightKerningGroup = E;
unicode = 0118;
},
{
glyphname = Etilde;
lastChange = "2015-11-24 07:50:13 +0000";
layers = (
{
layerId = "63223F5B-13B6-47A7-8CD6-727EAFF9983D";
name = Light;
paths = (
{
closed = 1;
nodes = (
"488 0 LINE",
"488 25 LINE",
"108 25 LINE",
"108 310 LINE",
"453 310 LINE",
"453 335 LINE",
"108 335 LINE",
"108 619 LINE",
"488 619 LINE",
"488 644 LINE",
"80 644 LINE",
"80 0 LINE"
);
},
{
closed = 1;
nodes = (
"383 718 OFFCURVE",
"404 728 OFFCURVE",
"417 746 CURVE",
"417 777 LINE",
"399 751 OFFCURVE",
"378 743 OFFCURVE",
"349 743 CURVE SMOOTH",
"306 743 OFFCURVE",
"277 779 OFFCURVE",
"228 779 CURVE SMOOTH",
"200 779 OFFCURVE",
"171 769 OFFCURVE",
"156 751 CURVE",
"156 720 LINE",
"178 747 OFFCURVE",
"203 754 OFFCURVE",
"231 754 CURVE SMOOTH",
"268 754 OFFCURVE",
"306 718 OFFCURVE",
"352 718 CURVE SMOOTH"
);
}
);
width = 538;
}
);
leftKerningGroup = E;
note = Etilde;
rightKerningGroup = E;
unicode = 1EBC;
},
{
glyphname = F;
lastChange = "2015-10-25 05:21:49 +0000";
layers = (
{
layerId = "63223F5B-13B6-47A7-8CD6-727EAFF9983D";
name = Light;
paths = (
{
closed = 1;
nodes = (
"108 0 LINE",
"108 310 LINE",
"434 310 LINE",
"434 335 LINE",
"108 335 LINE",
"108 619 LINE",
"470 619 LINE",
"470 644 LINE",
"80 644 LINE",
"80 0 LINE"
);
}
);
width = 510;
}
);
note = F;
unicode = 0046;
},
{
glyphname = G;
lastChange = "2015-10-25 05:21:49 +0000";
layers = (
{
layerId = "63223F5B-13B6-47A7-8CD6-727EAFF9983D";
name = Light;
paths = (
{
closed = 1;
nodes = (
"465 -10 OFFCURVE",
"534 15 OFFCURVE",
"567 37 CURVE",
"567 334 LINE",
"345 334 LINE",
"345 308 LINE",
"539 308 LINE",
"539 48 LINE",
"491 29 OFFCURVE",
"418 15 OFFCURVE",
"350 15 CURVE SMOOTH",
"164 15 OFFCURVE",
"87 124 OFFCURVE",
"87 301 CURVE SMOOTH",
"87 494 OFFCURVE",
"146 629 OFFCURVE",
"347 629 CURVE SMOOTH",
"412 629 OFFCURVE",
"474 619 OFFCURVE",
"524 604 CURVE",
"524 630 LINE",
"474 645 OFFCURVE",
"414 654 OFFCURVE",
"343 654 CURVE SMOOTH",
"132 654 OFFCURVE",
"60 508 OFFCURVE",
"60 301 CURVE SMOOTH",
"60 117 OFFCURVE",
"144 -10 OFFCURVE",
"344 -10 CURVE SMOOTH"
);
}
);
width = 627;
}
);
leftKerningGroup = G;
note = G;
unicode = 0047;
},
{
glyphname = Gbreve;
lastChange = "2015-10-25 05:21:51 +0000";
layers = (
{
layerId = "63223F5B-13B6-47A7-8CD6-727EAFF9983D";
name = Light;
paths = (
{
closed = 1;
nodes = (
"465 -10 OFFCURVE",
"534 15 OFFCURVE",
"567 37 CURVE",
"567 334 LINE",
"345 334 LINE",
"345 308 LINE",
"539 308 LINE",
"539 48 LINE",
"491 29 OFFCURVE",
"418 15 OFFCURVE",
"350 15 CURVE SMOOTH",
"164 15 OFFCURVE",
"87 124 OFFCURVE",
"87 301 CURVE SMOOTH",
"87 494 OFFCURVE",
"146 629 OFFCURVE",
"347 629 CURVE SMOOTH",
"412 629 OFFCURVE",
"474 619 OFFCURVE",
"524 604 CURVE",
"524 630 LINE",
"474 645 OFFCURVE",
"414 654 OFFCURVE",
"343 654 CURVE SMOOTH",
"132 654 OFFCURVE",
"60 508 OFFCURVE",
"60 301 CURVE SMOOTH",
"60 117 OFFCURVE",
"144 -10 OFFCURVE",
"344 -10 CURVE SMOOTH"
);
},
{
closed = 1;
nodes = (
"405 688 OFFCURVE",
"447 730 OFFCURVE",
"447 783 CURVE",
"422 783 LINE",
"422 743 OFFCURVE",
"392 713 OFFCURVE",
"351 713 CURVE SMOOTH",
"311 713 OFFCURVE",
"281 743 OFFCURVE",
"281 783 CURVE",
"256 783 LINE",
"256 730 OFFCURVE",
"298 688 OFFCURVE",
"351 688 CURVE SMOOTH"
);
}
);
width = 627;
}
);
leftKerningGroup = G;
note = Gbreve;
unicode = 011E;
},
{
glyphname = Gcaron;
lastChange = "2015-10-25 05:21:51 +0000";
layers = (
{
layerId = "63223F5B-13B6-47A7-8CD6-727EAFF9983D";
name = Light;
paths = (
{
closed = 1;
nodes = (
"465 -10 OFFCURVE",
"534 15 OFFCURVE",
"567 37 CURVE",
"567 334 LINE",
"345 334 LINE",
"345 308 LINE",
"539 308 LINE",
"539 48 LINE",
"491 29 OFFCURVE",
"418 15 OFFCURVE",
"350 15 CURVE SMOOTH",
"164 15 OFFCURVE",
"87 124 OFFCURVE",
"87 301 CURVE SMOOTH",
"87 494 OFFCURVE",
"146 629 OFFCURVE",
"347 629 CURVE SMOOTH",
"412 629 OFFCURVE",
"474 619 OFFCURVE",
"524 604 CURVE",
"524 630 LINE",
"474 645 OFFCURVE",
"414 654 OFFCURVE",
"343 654 CURVE SMOOTH",
"132 654 OFFCURVE",
"60 508 OFFCURVE",
"60 301 CURVE SMOOTH",
"60 117 OFFCURVE",
"144 -10 OFFCURVE",
"344 -10 CURVE SMOOTH"
);
},
{
closed = 1;
nodes = (
"369 688 LINE",
"464 810 LINE",
"435 810 LINE",
"354 706 LINE",
"273 810 LINE",
"244 810 LINE",
"339 688 LINE"
);
}
);
width = 627;
}
);
leftKerningGroup = G;
note = Gcaron;
unicode = 01E6;
},
{
glyphname = Gcircumflex;
lastChange = "2015-10-25 05:21:51 +0000";
layers = (
{
layerId = "63223F5B-13B6-47A7-8CD6-727EAFF9983D";
name = Light;
paths = (
{
closed = 1;
nodes = (
"465 -10 OFFCURVE",
"534 15 OFFCURVE",
"567 37 CURVE",
"567 334 LINE",
"345 334 LINE",
"345 308 LINE",
"539 308 LINE",
"539 48 LINE",
"491 29 OFFCURVE",
"418 15 OFFCURVE",
"350 15 CURVE SMOOTH",
"164 15 OFFCURVE",
"87 124 OFFCURVE",
"87 301 CURVE SMOOTH",
"87 494 OFFCURVE",
"146 629 OFFCURVE",
"347 629 CURVE SMOOTH",
"412 629 OFFCURVE",
"474 619 OFFCURVE",
"524 604 CURVE",
"524 630 LINE",
"474 645 OFFCURVE",
"414 654 OFFCURVE",
"343 654 CURVE SMOOTH",
"132 654 OFFCURVE",
"60 508 OFFCURVE",
"60 301 CURVE SMOOTH",
"60 117 OFFCURVE",
"144 -10 OFFCURVE",
"344 -10 CURVE SMOOTH"
);
},
{
closed = 1;
nodes = (
"271 688 LINE",
"352 792 LINE",
"433 688 LINE",
"462 688 LINE",
"367 810 LINE",
"337 810 LINE",
"242 688 LINE"
);
}
);
width = 627;
}
);
leftKerningGroup = G;
note = Gcircumflex;
unicode = 011C;
},
{
glyphname = Gcommaaccent;
lastChange = "2015-10-25 05:21:50 +0000";
layers = (
{
layerId = "63223F5B-13B6-47A7-8CD6-727EAFF9983D";
name = Light;
paths = (
{
closed = 1;
nodes = (
"465 -10 OFFCURVE",
"534 15 OFFCURVE",
"567 37 CURVE",
"567 334 LINE",
"345 334 LINE",
"345 308 LINE",
"539 308 LINE",
"539 48 LINE",
"491 29 OFFCURVE",
"418 15 OFFCURVE",
"350 15 CURVE SMOOTH",
"164 15 OFFCURVE",
"87 124 OFFCURVE",
"87 301 CURVE SMOOTH",
"87 494 OFFCURVE",
"146 629 OFFCURVE",
"347 629 CURVE SMOOTH",
"412 629 OFFCURVE",
"474 619 OFFCURVE",
"524 604 CURVE",
"524 630 LINE",
"474 645 OFFCURVE",
"414 654 OFFCURVE",
"343 654 CURVE SMOOTH",
"132 654 OFFCURVE",
"60 508 OFFCURVE",
"60 301 CURVE SMOOTH",
"60 117 OFFCURVE",
"144 -10 OFFCURVE",
"344 -10 CURVE SMOOTH"
);
},
{
closed = 1;
nodes = (
"340 -190 LINE",
"375 -37 LINE",
"342 -37 LINE",
"318 -190 LINE"
);
}
);
width = 627;
}
);
leftKerningGroup = G;
note = Gcommaaccent;
unicode = 0122;
},
{
glyphname = Gdotaccent;
lastChange = "2015-10-25 05:21:51 +0000";
layers = (
{
layerId = "63223F5B-13B6-47A7-8CD6-727EAFF9983D";
name = Light;
paths = (
{
closed = 1;
nodes = (
"465 -10 OFFCURVE",
"534 15 OFFCURVE",
"567 37 CURVE",
"567 334 LINE",
"345 334 LINE",
"345 308 LINE",
"539 308 LINE",
"539 48 LINE",
"491 29 OFFCURVE",
"418 15 OFFCURVE",
"350 15 CURVE SMOOTH",
"164 15 OFFCURVE",
"87 124 OFFCURVE",
"87 301 CURVE SMOOTH",
"87 494 OFFCURVE",
"146 629 OFFCURVE",
"347 629 CURVE SMOOTH",
"412 629 OFFCURVE",
"474 619 OFFCURVE",
"524 604 CURVE",
"524 630 LINE",
"474 645 OFFCURVE",
"414 654 OFFCURVE",
"343 654 CURVE SMOOTH",
"132 654 OFFCURVE",
"60 508 OFFCURVE",
"60 301 CURVE SMOOTH",
"60 117 OFFCURVE",
"144 -10 OFFCURVE",
"344 -10 CURVE SMOOTH"
);
},
{
closed = 1;
nodes = (
"368 718 LINE",
"368 753 LINE",
"333 753 LINE",
"333 718 LINE"
);
}
);
width = 627;
}
);
leftKerningGroup = G;
note = Gdotaccent;
unicode = 0120;
},
{
glyphname = Gmacron;
lastChange = "2015-10-25 05:21:51 +0000";
layers = (
{
layerId = "63223F5B-13B6-47A7-8CD6-727EAFF9983D";
name = Light;
paths = (
{
closed = 1;
nodes = (
"465 -10 OFFCURVE",
"534 15 OFFCURVE",
"567 37 CURVE",
"567 334 LINE",
"345 334 LINE",
"345 308 LINE",
"539 308 LINE",
"539 48 LINE",
"491 29 OFFCURVE",
"418 15 OFFCURVE",
"350 15 CURVE SMOOTH",
"164 15 OFFCURVE",
"87 124 OFFCURVE",
"87 301 CURVE SMOOTH",
"87 494 OFFCURVE",
"146 629 OFFCURVE",
"347 629 CURVE SMOOTH",
"412 629 OFFCURVE",
"474 619 OFFCURVE",
"524 604 CURVE",
"524 630 LINE",
"474 645 OFFCURVE",
"414 654 OFFCURVE",
"343 654 CURVE SMOOTH",
"132 654 OFFCURVE",
"60 508 OFFCURVE",
"60 301 CURVE SMOOTH",
"60 117 OFFCURVE",
"144 -10 OFFCURVE",
"344 -10 CURVE SMOOTH"
);
},
{
closed = 1;
nodes = (
"486 718 LINE",
"486 743 LINE",
"219 743 LINE",
"219 718 LINE"
);
}
);
width = 627;
}
);
leftKerningGroup = G;
note = Gmacron;
unicode = 1E20;
},
{
glyphname = H;
lastChange = "2015-10-25 05:21:49 +0000";
layers = (
{
layerId = "63223F5B-13B6-47A7-8CD6-727EAFF9983D";
name = Light;
paths = (
{
closed = 1;
nodes = (
"108 0 LINE",
"108 310 LINE",
"509 310 LINE",
"509 0 LINE",
"537 0 LINE",
"537 644 LINE",
"509 644 LINE",
"509 335 LINE",
"108 335 LINE",
"108 644 LINE",
"80 644 LINE",
"80 0 LINE"
);
}
);
width = 617;
}
);
note = H;
unicode = 0048;
},
{
glyphname = Hbar;
lastChange = "2015-10-25 05:21:51 +0000";
layers = (
{
layerId = "63223F5B-13B6-47A7-8CD6-727EAFF9983D";
name = Light;
paths = (
{
closed = 1;
nodes = (
"136 0 LINE",
"136 310 LINE",
"537 310 LINE",
"537 0 LINE",
"565 0 LINE",
"565 644 LINE",
"537 644 LINE",
"537 335 LINE",
"136 335 LINE",
"136 644 LINE",
"108 644 LINE",
"108 0 LINE"
);
},
{
closed = 1;
nodes = (
"659 478 LINE",
"659 503 LINE",
"40 503 LINE",
"40 478 LINE"
);
}
);
width = 699;
}
);
note = Hbar;
unicode = 0126;
},
{
glyphname = Hbrevebelow;
lastChange = "2015-10-25 05:21:51 +0000";
layers = (
{
layerId = "63223F5B-13B6-47A7-8CD6-727EAFF9983D";
name = Light;
paths = (
{
closed = 1;
nodes = (
"108 0 LINE",
"108 310 LINE",
"509 310 LINE",
"509 0 LINE",
"537 0 LINE",
"537 644 LINE",
"509 644 LINE",
"509 335 LINE",
"108 335 LINE",
"108 644 LINE",
"80 644 LINE",
"80 0 LINE"
);
},
{
closed = 1;
nodes = (
"379 -174 OFFCURVE",
"453 -142 OFFCURVE",
"453 -40 CURVE",
"428 -40 LINE",
"428 -119 OFFCURVE",
"374 -149 OFFCURVE",
"308 -149 CURVE SMOOTH",
"242 -149 OFFCURVE",
"188 -119 OFFCURVE",
"188 -40 CURVE",
"163 -40 LINE",
"163 -142 OFFCURVE",
"237 -174 OFFCURVE",
"308 -174 CURVE SMOOTH"
);
}
);
width = 617;
}
);
note = Hbrevebelow;
unicode = 1E2A;
},
{
glyphname = Hcircumflex;
lastChange = "2015-10-25 05:21:51 +0000";
layers = (
{
layerId = "63223F5B-13B6-47A7-8CD6-727EAFF9983D";
name = Light;
paths = (
{
closed = 1;
nodes = (
"108 0 LINE",
"108 310 LINE",
"509 310 LINE",
"509 0 LINE",
"537 0 LINE",
"537 644 LINE",
"509 644 LINE",
"509 335 LINE",
"108 335 LINE",
"108 644 LINE",
"80 644 LINE",
"80 0 LINE"
);
},
{
closed = 1;
nodes = (
"227 688 LINE",
"308 792 LINE",
"389 688 LINE",
"418 688 LINE",
"323 810 LINE",
"293 810 LINE",
"198 688 LINE"
);
}
);
width = 617;
}
);
note = Hcircumflex;
unicode = 0124;
},
{
glyphname = Hdotbelow;
lastChange = "2015-10-25 05:21:50 +0000";
layers = (
{
layerId = "63223F5B-13B6-47A7-8CD6-727EAFF9983D";
name = Light;
paths = (
{
closed = 1;
nodes = (
"108 0 LINE",
"108 310 LINE",
"509 310 LINE",
"509 0 LINE",
"537 0 LINE",
"537 644 LINE",
"509 644 LINE",
"509 335 LINE",
"108 335 LINE",
"108 644 LINE",
"80 644 LINE",
"80 0 LINE"
);
},
{
closed = 1;
nodes = (
"327 -139 LINE",
"327 -102 LINE",
"290 -102 LINE",
"290 -139 LINE"
);
}
);
width = 617;
}
);
note = Hdotbelow;
unicode = 1E24;
},
{
glyphname = I;
lastChange = "2015-10-25 05:21:49 +0000";
layers = (
{
layerId = "63223F5B-13B6-47A7-8CD6-727EAFF9983D";
name = Light;
paths = (
{
closed = 1;
nodes = (
"108 0 LINE",
"108 644 LINE",
"80 644 LINE",
"80 0 LINE"
);
}
);
width = 188;
}
);
note = I;
unicode = 0049;
},
{
glyphname = IJ;
lastChange = "2015-10-25 05:21:50 +0000";
layers = (
{
layerId = "63223F5B-13B6-47A7-8CD6-727EAFF9983D";
name = Light;
paths = (
{
closed = 1;
nodes = (
"450 -10 OFFCURVE",
"502 45 OFFCURVE",
"502 153 CURVE SMOOTH",
"502 644 LINE",
"474 644 LINE",
"474 153 LINE SMOOTH",
"474 58 OFFCURVE",
"434 16 OFFCURVE",
"328 16 CURVE SMOOTH",
"282 16 OFFCURVE",
"237 25 OFFCURVE",
"206 40 CURVE",
"206 14 LINE",
"235 1 OFFCURVE",
"279 -10 OFFCURVE",
"332 -10 CURVE SMOOTH"
);
},
{
closed = 1;
nodes = (
"108 0 LINE",
"108 644 LINE",
"80 644 LINE",
"80 0 LINE"
);
}
);
width = 577;
}
);
note = IJ;
unicode = 0132;
},
{
glyphname = Iacute;
lastChange = "2015-10-25 05:21:51 +0000";
layers = (
{
layerId = "63223F5B-13B6-47A7-8CD6-727EAFF9983D";
name = Light;
paths = (
{
closed = 1;
nodes = (
"108 0 LINE",
"108 644 LINE",
"80 644 LINE",
"80 0 LINE"
);
},
{
closed = 1;
nodes = (
"110 688 LINE",
"180 837 LINE",
"150 837 LINE",
"87 688 LINE"
);
}
);
width = 188;
}
);
note = Iacute;
unicode = 00CD;
},
{
glyphname = Ibreve;
lastChange = "2015-10-25 05:21:51 +0000";
layers = (
{
layerId = "63223F5B-13B6-47A7-8CD6-727EAFF9983D";
name = Light;
paths = (
{
closed = 1;
nodes = (
"148 688 OFFCURVE",
"190 730 OFFCURVE",
"190 783 CURVE",
"165 783 LINE",
"165 743 OFFCURVE",
"135 713 OFFCURVE",
"94 713 CURVE SMOOTH",
"54 713 OFFCURVE",
"24 743 OFFCURVE",
"24 783 CURVE",
"-1 783 LINE",
"-1 730 OFFCURVE",
"41 688 OFFCURVE",
"94 688 CURVE SMOOTH"
);
},
{
closed = 1;
nodes = (
"108 0 LINE",
"108 644 LINE",
"80 644 LINE",
"80 0 LINE"
);
}
);
width = 188;
}
);
note = Ibreve;
unicode = 012C;
},
{
glyphname = Icaron;
lastChange = "2015-10-25 05:21:51 +0000";
layers = (
{
layerId = "63223F5B-13B6-47A7-8CD6-727EAFF9983D";
name = Light;
paths = (
{
closed = 1;
nodes = (
"109 688 LINE",
"204 810 LINE",
"175 810 LINE",
"94 706 LINE",
"13 810 LINE",
"-16 810 LINE",
"79 688 LINE"
);
},
{
closed = 1;
nodes = (
"108 0 LINE",
"108 644 LINE",
"80 644 LINE",
"80 0 LINE"
);
}
);
width = 188;
}
);
note = Icaron;
unicode = 01CF;
},
{
glyphname = Icircumflex;
lastChange = "2015-10-25 05:21:50 +0000";
layers = (
{
layerId = "63223F5B-13B6-47A7-8CD6-727EAFF9983D";
name = Light;
paths = (
{
closed = 1;
nodes = (
"13 688 LINE",
"94 792 LINE",
"175 688 LINE",
"204 688 LINE",
"109 810 LINE",
"79 810 LINE",
"-16 688 LINE"
);
},
{
closed = 1;
nodes = (
"108 0 LINE",
"108 644 LINE",
"80 644 LINE",
"80 0 LINE"
);
}
);
width = 188;
}
);
note = Icircumflex;
unicode = 00CE;
},
{
glyphname = Idieresis;
lastChange = "2015-10-25 05:21:51 +0000";
layers = (
{
layerId = "63223F5B-13B6-47A7-8CD6-727EAFF9983D";
name = Light;
paths = (
{
closed = 1;
nodes = (
"108 0 LINE",
"108 644 LINE",
"80 644 LINE",
"80 0 LINE"
);
},
{
closed = 1;
nodes = (
"33 718 LINE",
"33 753 LINE",
"-2 753 LINE",
"-2 718 LINE"
);
},
{
closed = 1;
nodes = (
"190 718 LINE",
"190 753 LINE",
"155 753 LINE",
"155 718 LINE"
);
}
);
width = 188;
}
);
note = Idieresis;
unicode = 00CF;
},
{
glyphname = Idotaccent;
lastChange = "2015-10-25 05:21:51 +0000";
layers = (
{
layerId = "63223F5B-13B6-47A7-8CD6-727EAFF9983D";
name = Light;
paths = (
{
closed = 1;
nodes = (
"108 0 LINE",
"108 644 LINE",
"80 644 LINE",
"80 0 LINE"
);
},
{
closed = 1;
nodes = (
"112 718 LINE",
"112 753 LINE",
"77 753 LINE",
"77 718 LINE"
);
}
);
width = 188;
}
);
note = Idotaccent;
unicode = 0130;
},
{
glyphname = Idotbelow;
lastChange = "2015-10-25 05:21:50 +0000";
layers = (
{
layerId = "63223F5B-13B6-47A7-8CD6-727EAFF9983D";
name = Light;
paths = (
{
closed = 1;
nodes = (
"108 0 LINE",
"108 644 LINE",
"80 644 LINE",
"80 0 LINE"
);
},
{
closed = 1;
nodes = (
"113 -139 LINE",
"113 -102 LINE",
"76 -102 LINE",
"76 -139 LINE"
);
}
);
width = 188;
}
);
note = Idotbelow;
unicode = 1ECA;
},
{
glyphname = Igrave;
lastChange = "2015-10-25 05:21:50 +0000";
layers = (
{
layerId = "63223F5B-13B6-47A7-8CD6-727EAFF9983D";
name = Light;
paths = (
{
closed = 1;
nodes = (
"108 0 LINE",
"108 644 LINE",
"80 644 LINE",
"80 0 LINE"
);
},
{
closed = 1;
nodes = (
"104 688 LINE",
"41 837 LINE",
"11 837 LINE",
"81 688 LINE"
);
}
);
width = 188;
}
);
note = Igrave;
unicode = 00CC;
},
{
glyphname = Ihookabove;
lastChange = "2015-10-25 05:21:51 +0000";
layers = (
{
layerId = "63223F5B-13B6-47A7-8CD6-727EAFF9983D";
name = Light;
paths = (
{
closed = 1;
nodes = (
"108 688 LINE",
"108 744 LINE",
"178 750 OFFCURVE",
"200 778 OFFCURVE",
"200 830 CURVE SMOOTH",
"200 885 OFFCURVE",
"162 915 OFFCURVE",
"89 915 CURVE SMOOTH",
"69 915 OFFCURVE",
"35 910 OFFCURVE",
"19 903 CURVE",
"19 878 LINE",
"37 885 OFFCURVE",
"66 890 OFFCURVE",
"88 890 CURVE SMOOTH",
"151 890 OFFCURVE",
"175 869 OFFCURVE",
"175 830 CURVE SMOOTH",
"175 789 OFFCURVE",
"162 767 OFFCURVE",
"80 763 CURVE",
"80 688 LINE"
);
},
{
closed = 1;
nodes = (
"108 0 LINE",
"108 644 LINE",
"80 644 LINE",
"80 0 LINE"
);
}
);
width = 188;
}
);
note = Ihookabove;
unicode = 1EC8;
},
{
glyphname = Imacron;
lastChange = "2015-10-25 05:21:51 +0000";
layers = (
{
layerId = "63223F5B-13B6-47A7-8CD6-727EAFF9983D";
name = Light;
paths = (
{
closed = 1;
nodes = (
"108 0 LINE",
"108 644 LINE",
"80 644 LINE",
"80 0 LINE"
);
},
{
closed = 1;
nodes = (
"228 718 LINE",
"228 743 LINE",
"-39 743 LINE",
"-39 718 LINE"
);
}
);
width = 188;
}
);
note = Imacron;
unicode = 012A;
},
{
glyphname = Iogonek;
lastChange = "2015-10-25 05:21:50 +0000";
layers = (
{
layerId = "63223F5B-13B6-47A7-8CD6-727EAFF9983D";
name = Light;
paths = (
{
closed = 1;
nodes = (
"102 -220 OFFCURVE",
"123 -217 OFFCURVE",
"137 -209 CURVE",
"137 -184 LINE",
"125 -191 OFFCURVE",
"104 -195 OFFCURVE",
"87 -195 CURVE SMOOTH",
"47 -195 OFFCURVE",
"31 -176 OFFCURVE",
"31 -135 CURVE SMOOTH",
"31 -88 OFFCURVE",
"55 -39 OFFCURVE",
"108 0 CURVE",
"80 0 LINE",
"39 -27 OFFCURVE",
"4 -80 OFFCURVE",
"4 -135 CURVE SMOOTH",
"4 -198 OFFCURVE",
"40 -220 OFFCURVE",
"87 -220 CURVE SMOOTH"
);
},
{
closed = 1;
nodes = (
"108 0 LINE",
"108 644 LINE",
"80 644 LINE",
"80 0 LINE"
);
}
);
width = 188;
}
);
note = Iogonek;
unicode = 012E;
},
{
glyphname = Itilde;
lastChange = "2015-10-25 05:21:51 +0000";
layers = (
{
layerId = "63223F5B-13B6-47A7-8CD6-727EAFF9983D";
name = Light;
paths = (
{
closed = 1;
nodes = (
"108 0 LINE",
"108 644 LINE",
"80 644 LINE",
"80 0 LINE"
);
},
{
closed = 1;
nodes = (
"191 688 OFFCURVE",
"212 698 OFFCURVE",
"225 716 CURVE",
"225 747 LINE",
"207 721 OFFCURVE",
"186 713 OFFCURVE",
"157 713 CURVE SMOOTH",
"114 713 OFFCURVE",
"85 749 OFFCURVE",
"36 749 CURVE SMOOTH",
"8 749 OFFCURVE",
"-21 739 OFFCURVE",
"-36 721 CURVE",
"-36 690 LINE",
"-14 717 OFFCURVE",
"11 724 OFFCURVE",
"39 724 CURVE SMOOTH",
"76 724 OFFCURVE",
"114 688 OFFCURVE",
"160 688 CURVE SMOOTH"
);
}
);
width = 188;
}
);
note = Itilde;
unicode = 0128;
},
{
glyphname = J;
lastChange = "2015-10-25 05:21:49 +0000";
layers = (
{
layerId = "63223F5B-13B6-47A7-8CD6-727EAFF9983D";
name = Light;
paths = (
{
closed = 1;
nodes = (
"284 -10 OFFCURVE",
"336 45 OFFCURVE",
"336 153 CURVE SMOOTH",
"336 644 LINE",
"308 644 LINE",
"308 153 LINE SMOOTH",
"308 58 OFFCURVE",
"268 16 OFFCURVE",
"162 16 CURVE SMOOTH",
"116 16 OFFCURVE",
"71 25 OFFCURVE",
"40 40 CURVE",
"40 14 LINE",
"69 1 OFFCURVE",
"113 -10 OFFCURVE",
"166 -10 CURVE SMOOTH"
);
}
);
width = 411;
}
);
note = J;
unicode = 004A;
},
{
glyphname = Jcircumflex;
lastChange = "2015-10-25 05:21:51 +0000";
layers = (
{
layerId = "63223F5B-13B6-47A7-8CD6-727EAFF9983D";
name = Light;
paths = (
{
closed = 1;
nodes = (
"284 -10 OFFCURVE",
"336 45 OFFCURVE",
"336 153 CURVE SMOOTH",
"336 644 LINE",
"308 644 LINE",
"308 153 LINE SMOOTH",
"308 58 OFFCURVE",
"268 16 OFFCURVE",
"162 16 CURVE SMOOTH",
"116 16 OFFCURVE",
"71 25 OFFCURVE",
"40 40 CURVE",
"40 14 LINE",
"69 1 OFFCURVE",
"113 -10 OFFCURVE",
"166 -10 CURVE SMOOTH"
);
},
{
closed = 1;
nodes = (
"240 688 LINE",
"321 792 LINE",
"402 688 LINE",
"431 688 LINE",
"336 810 LINE",
"306 810 LINE",
"211 688 LINE"
);
}
);
width = 411;
}
);
note = Jcircumflex;
unicode = 0134;
},
{
glyphname = K;
lastChange = "2015-10-25 05:21:49 +0000";
layers = (
{
layerId = "63223F5B-13B6-47A7-8CD6-727EAFF9983D";
name = Light;
paths = (
{
closed = 1;
nodes = (
"108 0 LINE",
"108 241 LINE",
"233 370 LINE",
"471 0 LINE",
"503 0 LINE",
"253 389 LINE",
"500 644 LINE",
"462 644 LINE",
"108 279 LINE",
"108 644 LINE",
"80 644 LINE",
"80 0 LINE"
);
}
);
width = 563;
}
);
leftKerningGroup = K;
note = K;
rightKerningGroup = K;
unicode = 004B;
},
{
glyphname = Kcommaaccent;
lastChange = "2015-10-25 05:21:50 +0000";
layers = (
{
layerId = "63223F5B-13B6-47A7-8CD6-727EAFF9983D";
name = Light;
paths = (
{
closed = 1;
nodes = (
"108 0 LINE",
"108 241 LINE",
"233 370 LINE",
"471 0 LINE",
"503 0 LINE",
"253 389 LINE",
"500 644 LINE",
"462 644 LINE",
"108 279 LINE",
"108 644 LINE",
"80 644 LINE",
"80 0 LINE"
);
},
{
closed = 1;
nodes = (
"257 -190 LINE",
"292 -37 LINE",
"259 -37 LINE",
"235 -190 LINE"
);
}
);
width = 563;
}
);
leftKerningGroup = K;
note = Kcommaaccent;
rightKerningGroup = K;
unicode = 0136;
},
{
glyphname = L;
lastChange = "2015-10-25 05:21:49 +0000";
layers = (
{
layerId = "63223F5B-13B6-47A7-8CD6-727EAFF9983D";
name = Light;
paths = (
{
closed = 1;
nodes = (
"478 0 LINE",
"478 25 LINE",
"108 25 LINE",
"108 644 LINE",
"80 644 LINE",
"80 0 LINE"
);
}
);
width = 518;
}
);
note = L;
rightKerningGroup = L;
unicode = 004C;
},
{
glyphname = Lacute;
lastChange = "2015-10-25 05:21:50 +0000";
layers = (
{
layerId = "63223F5B-13B6-47A7-8CD6-727EAFF9983D";
name = Light;
paths = (
{
closed = 1;
nodes = (
"478 0 LINE",
"478 25 LINE",
"108 25 LINE",
"108 644 LINE",
"80 644 LINE",
"80 0 LINE"
);
},
{
closed = 1;
nodes = (
"109 688 LINE",
"179 837 LINE",
"149 837 LINE",
"86 688 LINE"
);
}
);
width = 518;
}
);
note = Lacute;
rightKerningGroup = L;
unicode = 0139;
},
{
glyphname = Lcaron;
lastChange = "2015-10-25 05:21:51 +0000";
layers = (
{
layerId = "63223F5B-13B6-47A7-8CD6-727EAFF9983D";
name = Light;
paths = (
{
closed = 1;
nodes = (
"478 0 LINE",
"478 25 LINE",
"108 25 LINE",
"108 644 LINE",
"80 644 LINE",
"80 0 LINE"
);
},
{
closed = 1;
nodes = (
"304 573 LINE",
"339 726 LINE",
"306 726 LINE",
"282 573 LINE"
);
}
);
width = 518;
}
);
note = Lcaron;
rightKerningGroup = L;
unicode = 013D;
},
{
glyphname = Lcommaaccent;
lastChange = "2015-10-25 05:21:50 +0000";
layers = (
{
layerId = "63223F5B-13B6-47A7-8CD6-727EAFF9983D";
name = Light;
paths = (
{
closed = 1;
nodes = (
"478 0 LINE",
"478 25 LINE",
"108 25 LINE",
"108 644 LINE",
"80 644 LINE",
"80 0 LINE"
);
},
{
closed = 1;
nodes = (
"252 -190 LINE",
"287 -37 LINE",
"254 -37 LINE",
"230 -190 LINE"
);
}
);
width = 518;
}
);
note = Lcommaaccent;
rightKerningGroup = L;
unicode = 013B;
},
{
glyphname = Ldot;
lastChange = "2015-11-24 08:59:09 +0000";
layers = (
{
layerId = "63223F5B-13B6-47A7-8CD6-727EAFF9983D";
name = Light;
paths = (
{
closed = 1;
nodes = (
"478 0 LINE",
"478 25 LINE",
"108 25 LINE",
"108 644 LINE",
"80 644 LINE",
"80 0 LINE"
);
},
{
closed = 1;
nodes = (
"339 253 LINE",
"339 288 LINE",
"304 288 LINE",
"304 253 LINE"
);
}
);
width = 518;
}
);
note = Ldot;
rightKerningGroup = L;
unicode = 013F;
},
{
glyphname = Ldotbelow;
lastChange = "2015-10-25 05:21:51 +0000";
layers = (
{
layerId = "63223F5B-13B6-47A7-8CD6-727EAFF9983D";
name = Light;
paths = (
{
closed = 1;
nodes = (
"478 0 LINE",
"478 25 LINE",
"108 25 LINE",
"108 644 LINE",
"80 644 LINE",
"80 0 LINE"
);
},
{
closed = 1;
nodes = (
"293 -139 LINE",
"293 -102 LINE",
"256 -102 LINE",
"256 -139 LINE"
);
}
);
width = 518;
}
);
note = Ldotbelow;
rightKerningGroup = L;
unicode = 1E36;
},
{
glyphname = Ldotbelowmacron;
lastChange = "2015-10-25 05:21:50 +0000";
layers = (
{
layerId = "63223F5B-13B6-47A7-8CD6-727EAFF9983D";
name = Light;
paths = (
{
closed = 1;
nodes = (
"506 0 LINE",
"506 25 LINE",
"136 25 LINE",
"136 644 LINE",
"108 644 LINE",
"108 0 LINE"
);
},
{
closed = 1;
nodes = (
"324 -139 LINE",
"324 -102 LINE",
"287 -102 LINE",
"287 -139 LINE"
);
},
{
closed = 1;
nodes = (
"297 718 LINE",
"297 743 LINE",
"30 743 LINE",
"30 718 LINE"
);
}
);
width = 546;
}
);
note = Ldotbelowmacron;
rightKerningGroup = L;
unicode = 1E38;
},
{
glyphname = Llinebelow;
lastChange = "2015-10-25 05:21:50 +0000";
layers = (
{
layerId = "63223F5B-13B6-47A7-8CD6-727EAFF9983D";
name = Light;
paths = (
{
closed = 1;
nodes = (
"478 0 LINE",
"478 25 LINE",
"108 25 LINE",
"108 644 LINE",
"80 644 LINE",
"80 0 LINE"
);
},
{
closed = 1;
nodes = (
"412 -101 LINE",
"412 -76 LINE",
"145 -76 LINE",
"145 -101 LINE"
);
}
);
width = 518;
}
);
note = Llinebelow;
rightKerningGroup = L;
unicode = 1E3A;
},
{
glyphname = Lslash;
lastChange = "2015-10-25 05:21:50 +0000";
layers = (
{
layerId = "63223F5B-13B6-47A7-8CD6-727EAFF9983D";
name = Light;
paths = (
{
closed = 1;
nodes = (
"525 0 LINE",
"525 25 LINE",
"155 25 LINE",
"155 644 LINE",
"127 644 LINE",
"127 0 LINE"
);
},
{
closed = 1;
nodes = (
"327 394 LINE",
"327 419 LINE",
"30 289 LINE",
"30 264 LINE"
);
}
);
width = 565;
}
);
note = Lslash;
rightKerningGroup = L;
unicode = 0141;
},
{
glyphname = M;
lastChange = "2015-10-25 05:21:49 +0000";
layers = (
{
layerId = "63223F5B-13B6-47A7-8CD6-727EAFF9983D";
name = Light;
paths = (
{
closed = 1;
nodes = (
"108 0 LINE",
"108 613 LINE",
"353 113 LINE",
"385 113 LINE",
"629 613 LINE",
"629 0 LINE",
"657 0 LINE",
"657 644 LINE",
"616 644 LINE",
"369 137 LINE",
"121 644 LINE",
"80 644 LINE",
"80 0 LINE"
);
}
);
width = 737;
}
);
note = M;
unicode = 004D;
},
{
glyphname = Mdotbelow;
lastChange = "2015-10-25 05:21:50 +0000";
layers = (
{
layerId = "63223F5B-13B6-47A7-8CD6-727EAFF9983D";
name = Light;
paths = (
{
closed = 1;
nodes = (
"108 0 LINE",
"108 613 LINE",
"353 113 LINE",
"385 113 LINE",
"629 613 LINE",
"629 0 LINE",
"657 0 LINE",
"657 644 LINE",
"616 644 LINE",
"369 137 LINE",
"121 644 LINE",
"80 644 LINE",
"80 0 LINE"
);
},
{
closed = 1;
nodes = (
"412 -139 LINE",
"412 -102 LINE",
"375 -102 LINE",
"375 -139 LINE"
);
}
);
width = 737;
}
);
note = Mdotbelow;
unicode = 1E42;
},
{
glyphname = N;
lastChange = "2015-10-25 05:21:49 +0000";
layers = (
{
layerId = "63223F5B-13B6-47A7-8CD6-727EAFF9983D";
name = Light;
paths = (
{
closed = 1;
nodes = (
"108 0 LINE",
"108 606 LINE",
"538 0 LINE",
"569 0 LINE",
"569 644 LINE",
"541 644 LINE",
"541 38 LINE",
"111 644 LINE",
"80 644 LINE",
"80 0 LINE"
);
}
);
width = 649;
}
);
note = N;
unicode = 004E;
},
{
glyphname = Nacute;
lastChange = "2015-10-25 05:21:51 +0000";
layers = (
{
layerId = "63223F5B-13B6-47A7-8CD6-727EAFF9983D";
name = Light;
paths = (
{
closed = 1;
nodes = (
"108 0 LINE",
"108 606 LINE",
"538 0 LINE",
"569 0 LINE",
"569 644 LINE",
"541 644 LINE",
"541 38 LINE",
"111 644 LINE",
"80 644 LINE",
"80 0 LINE"
);
},
{
closed = 1;
nodes = (
"347 688 LINE",
"417 837 LINE",
"387 837 LINE",
"324 688 LINE"
);
}
);
width = 649;
}
);
note = Nacute;
unicode = 0143;
},
{
glyphname = Ncaron;
lastChange = "2015-10-25 05:21:50 +0000";
layers = (
{
layerId = "63223F5B-13B6-47A7-8CD6-727EAFF9983D";
name = Light;
paths = (
{
closed = 1;
nodes = (
"108 0 LINE",
"108 606 LINE",
"538 0 LINE",
"569 0 LINE",
"569 644 LINE",
"541 644 LINE",
"541 38 LINE",
"111 644 LINE",
"80 644 LINE",
"80 0 LINE"
);
},
{
closed = 1;
nodes = (
"370 688 LINE",
"465 810 LINE",
"436 810 LINE",
"355 706 LINE",
"274 810 LINE",
"245 810 LINE",
"340 688 LINE"
);
}
);
width = 649;
}
);
note = Ncaron;
unicode = 0147;
},
{
glyphname = Ncommaaccent;
lastChange = "2015-10-25 05:21:50 +0000";
layers = (
{
layerId = "63223F5B-13B6-47A7-8CD6-727EAFF9983D";
name = Light;
paths = (
{
closed = 1;
nodes = (
"108 0 LINE",
"108 606 LINE",
"538 0 LINE",
"569 0 LINE",
"569 644 LINE",
"541 644 LINE",
"541 38 LINE",
"111 644 LINE",
"80 644 LINE",
"80 0 LINE"
);
},
{
closed = 1;
nodes = (
"303 -190 LINE",
"338 -37 LINE",
"305 -37 LINE",
"281 -190 LINE"
);
}
);
width = 649;
}
);
note = Ncommaaccent;
unicode = 0145;
},
{
glyphname = Ndotaccent;
lastChange = "2015-10-25 05:21:50 +0000";
layers = (
{
layerId = "63223F5B-13B6-47A7-8CD6-727EAFF9983D";
name = Light;
paths = (
{
closed = 1;
nodes = (
"108 0 LINE",
"108 606 LINE",
"538 0 LINE",
"569 0 LINE",
"569 644 LINE",
"541 644 LINE",
"541 38 LINE",
"111 644 LINE",
"80 644 LINE",
"80 0 LINE"
);
},
{
closed = 1;
nodes = (
"360 718 LINE",
"360 753 LINE",
"325 753 LINE",
"325 718 LINE"
);
}
);
width = 649;
}
);
note = Ndotaccent;
unicode = 1E44;
},
{
glyphname = Ndotbelow;
lastChange = "2015-10-25 05:21:51 +0000";
layers = (
{
layerId = "63223F5B-13B6-47A7-8CD6-727EAFF9983D";
name = Light;
paths = (
{
closed = 1;
nodes = (
"108 0 LINE",
"108 606 LINE",
"538 0 LINE",
"569 0 LINE",
"569 644 LINE",
"541 644 LINE",
"541 38 LINE",
"111 644 LINE",
"80 644 LINE",
"80 0 LINE"
);
},
{
closed = 1;
nodes = (
"340 -139 LINE",
"340 -102 LINE",
"303 -102 LINE",
"303 -139 LINE"
);
}
);
width = 649;
}
);
note = Ndotbelow;
unicode = 1E46;
},
{
glyphname = Eng;
lastChange = "2015-10-25 05:21:50 +0000";
layers = (
{
layerId = "63223F5B-13B6-47A7-8CD6-727EAFF9983D";
name = Light;
paths = (
{
closed = 1;
nodes = (
"521 -234 OFFCURVE",
"569 -188 OFFCURVE",
"569 -110 CURVE SMOOTH",
"569 644 LINE",
"541 644 LINE",
"541 38 LINE",
"111 644 LINE",
"80 644 LINE",
"80 0 LINE",
"108 0 LINE",
"108 606 LINE",
"541 -4 LINE",
"541 -110 LINE SMOOTH",
"541 -174 OFFCURVE",
"511 -209 OFFCURVE",
"435 -209 CURVE SMOOTH",
"419 -209 OFFCURVE",
"397 -206 OFFCURVE",
"374 -198 CURVE",
"374 -224 LINE",
"393 -230 OFFCURVE",
"420 -234 OFFCURVE",
"444 -234 CURVE SMOOTH"
);
}
);
width = 649;
}
);
note = Eng;
unicode = 014A;
},
{
glyphname = Nlinebelow;
lastChange = "2015-10-25 05:21:51 +0000";
layers = (
{
layerId = "63223F5B-13B6-47A7-8CD6-727EAFF9983D";
name = Light;
paths = (
{
closed = 1;
nodes = (
"108 0 LINE",
"108 606 LINE",
"538 0 LINE",
"569 0 LINE",
"569 644 LINE",
"541 644 LINE",
"541 38 LINE",
"111 644 LINE",
"80 644 LINE",
"80 0 LINE"
);
},
{
closed = 1;
nodes = (
"466 -101 LINE",
"466 -76 LINE",
"199 -76 LINE",
"199 -101 LINE"
);
}
);
width = 649;
}
);
note = Nlinebelow;
unicode = 1E48;
},
{
glyphname = Ntilde;
lastChange = "2015-10-25 05:21:51 +0000";
layers = (
{
layerId = "63223F5B-13B6-47A7-8CD6-727EAFF9983D";
name = Light;
paths = (
{
closed = 1;
nodes = (
"108 0 LINE",
"108 606 LINE",
"538 0 LINE",
"569 0 LINE",
"569 644 LINE",
"541 644 LINE",
"541 38 LINE",
"111 644 LINE",
"80 644 LINE",
"80 0 LINE"
);
},
{
closed = 1;
nodes = (
"431 718 OFFCURVE",
"452 728 OFFCURVE",
"465 746 CURVE",
"465 777 LINE",
"447 751 OFFCURVE",
"426 743 OFFCURVE",
"397 743 CURVE SMOOTH",
"354 743 OFFCURVE",
"325 779 OFFCURVE",
"276 779 CURVE SMOOTH",
"248 779 OFFCURVE",
"219 769 OFFCURVE",
"204 751 CURVE",
"204 720 LINE",
"226 747 OFFCURVE",
"251 754 OFFCURVE",
"279 754 CURVE SMOOTH",
"316 754 OFFCURVE",
"354 718 OFFCURVE",
"400 718 CURVE SMOOTH"
);
}
);
width = 649;
}
);
note = Ntilde;
unicode = 00D1;
},
{
glyphname = O;
lastChange = "2015-10-25 05:21:51 +0000";
layers = (
{
layerId = "63223F5B-13B6-47A7-8CD6-727EAFF9983D";
name = Light;
paths = (
{
closed = 1;
nodes = (
"536 -10 OFFCURVE",
"622 117 OFFCURVE",
"622 316 CURVE SMOOTH",
"622 546 OFFCURVE",
"537 654 OFFCURVE",
"341 654 CURVE SMOOTH",
"145 654 OFFCURVE",
"60 546 OFFCURVE",
"60 316 CURVE SMOOTH",
"60 117 OFFCURVE",
"145 -10 OFFCURVE",
"341 -10 CURVE SMOOTH"
);
},
{
closed = 1;
nodes = (
"170 15 OFFCURVE",
"87 120 OFFCURVE",
"87 316 CURVE SMOOTH",
"87 546 OFFCURVE",
"170 629 OFFCURVE",
"341 629 CURVE SMOOTH",
"511 629 OFFCURVE",
"595 546 OFFCURVE",
"595 316 CURVE SMOOTH",
"595 120 OFFCURVE",
"511 15 OFFCURVE",
"341 15 CURVE SMOOTH"
);
}
);
width = 682;
}
);
leftKerningGroup = O;
note = O;
rightKerningGroup = O;
unicode = 004F;
},
{
glyphname = Oacute;
lastChange = "2015-10-25 05:21:51 +0000";
layers = (
{
layerId = "63223F5B-13B6-47A7-8CD6-727EAFF9983D";
name = Light;
paths = (
{
closed = 1;
nodes = (
"536 -10 OFFCURVE",
"622 117 OFFCURVE",
"622 316 CURVE SMOOTH",
"622 546 OFFCURVE",
"537 654 OFFCURVE",
"341 654 CURVE SMOOTH",
"145 654 OFFCURVE",
"60 546 OFFCURVE",
"60 316 CURVE SMOOTH",
"60 117 OFFCURVE",
"145 -10 OFFCURVE",
"341 -10 CURVE SMOOTH"
);
},
{
closed = 1;
nodes = (
"170 15 OFFCURVE",
"87 120 OFFCURVE",
"87 316 CURVE SMOOTH",
"87 546 OFFCURVE",
"170 629 OFFCURVE",
"341 629 CURVE SMOOTH",
"511 629 OFFCURVE",
"595 546 OFFCURVE",
"595 316 CURVE SMOOTH",
"595 120 OFFCURVE",
"511 15 OFFCURVE",
"341 15 CURVE SMOOTH"
);
},
{
closed = 1;
nodes = (
"357 688 LINE",
"427 837 LINE",
"397 837 LINE",
"334 688 LINE"
);
}
);
width = 682;
}
);
leftKerningGroup = O;
note = Oacute;
rightKerningGroup = O;
unicode = 00D3;
},
{
glyphname = Obreve;
lastChange = "2015-10-25 05:21:51 +0000";
layers = (
{
layerId = "63223F5B-13B6-47A7-8CD6-727EAFF9983D";
name = Light;
paths = (
{
closed = 1;
nodes = (
"536 -10 OFFCURVE",
"622 117 OFFCURVE",
"622 316 CURVE SMOOTH",
"622 546 OFFCURVE",
"537 654 OFFCURVE",
"341 654 CURVE SMOOTH",
"145 654 OFFCURVE",
"60 546 OFFCURVE",
"60 316 CURVE SMOOTH",
"60 117 OFFCURVE",
"145 -10 OFFCURVE",
"341 -10 CURVE SMOOTH"
);
},
{
closed = 1;
nodes = (
"170 15 OFFCURVE",
"87 120 OFFCURVE",
"87 316 CURVE SMOOTH",
"87 546 OFFCURVE",
"170 629 OFFCURVE",
"341 629 CURVE SMOOTH",
"511 629 OFFCURVE",
"595 546 OFFCURVE",
"595 316 CURVE SMOOTH",
"595 120 OFFCURVE",
"511 15 OFFCURVE",
"341 15 CURVE SMOOTH"
);
},
{
closed = 1;
nodes = (
"395 688 OFFCURVE",
"437 730 OFFCURVE",
"437 783 CURVE",
"412 783 LINE",
"412 743 OFFCURVE",
"382 713 OFFCURVE",
"341 713 CURVE SMOOTH",
"301 713 OFFCURVE",
"271 743 OFFCURVE",
"271 783 CURVE",
"246 783 LINE",
"246 730 OFFCURVE",
"288 688 OFFCURVE",
"341 688 CURVE SMOOTH"
);
}
);
width = 682;
}
);
leftKerningGroup = O;
note = Obreve;
rightKerningGroup = O;
unicode = 014E;
},
{
glyphname = Ocaron;
lastChange = "2015-10-25 05:21:51 +0000";
layers = (
{
layerId = "63223F5B-13B6-47A7-8CD6-727EAFF9983D";
name = Light;
paths = (
{
closed = 1;
nodes = (
"536 -10 OFFCURVE",
"622 117 OFFCURVE",
"622 316 CURVE SMOOTH",
"622 546 OFFCURVE",
"537 654 OFFCURVE",
"341 654 CURVE SMOOTH",
"145 654 OFFCURVE",
"60 546 OFFCURVE",
"60 316 CURVE SMOOTH",
"60 117 OFFCURVE",
"145 -10 OFFCURVE",
"341 -10 CURVE SMOOTH"
);
},
{
closed = 1;
nodes = (
"170 15 OFFCURVE",
"87 120 OFFCURVE",
"87 316 CURVE SMOOTH",
"87 546 OFFCURVE",
"170 629 OFFCURVE",
"341 629 CURVE SMOOTH",
"511 629 OFFCURVE",
"595 546 OFFCURVE",
"595 316 CURVE SMOOTH",
"595 120 OFFCURVE",
"511 15 OFFCURVE",
"341 15 CURVE SMOOTH"
);
},
{
closed = 1;
nodes = (
"356 688 LINE",
"451 810 LINE",
"422 810 LINE",
"341 706 LINE",
"260 810 LINE",
"231 810 LINE",
"326 688 LINE"
);
}
);
width = 682;
}
);
leftKerningGroup = O;
note = Ocaron;
rightKerningGroup = O;
unicode = 01D1;
},
{
glyphname = Ocircumflex;
lastChange = "2015-10-25 05:21:51 +0000";
layers = (
{
layerId = "63223F5B-13B6-47A7-8CD6-727EAFF9983D";
name = Light;
paths = (
{
closed = 1;
nodes = (
"536 -10 OFFCURVE",
"622 117 OFFCURVE",
"622 316 CURVE SMOOTH",
"622 546 OFFCURVE",
"537 654 OFFCURVE",
"341 654 CURVE SMOOTH",
"145 654 OFFCURVE",
"60 546 OFFCURVE",
"60 316 CURVE SMOOTH",
"60 117 OFFCURVE",
"145 -10 OFFCURVE",
"341 -10 CURVE SMOOTH"
);
},
{
closed = 1;
nodes = (
"170 15 OFFCURVE",
"87 120 OFFCURVE",
"87 316 CURVE SMOOTH",
"87 546 OFFCURVE",
"170 629 OFFCURVE",
"341 629 CURVE SMOOTH",
"511 629 OFFCURVE",
"595 546 OFFCURVE",
"595 316 CURVE SMOOTH",
"595 120 OFFCURVE",
"511 15 OFFCURVE",
"341 15 CURVE SMOOTH"
);
},
{
closed = 1;
nodes = (
"260 688 LINE",
"341 792 LINE",
"422 688 LINE",
"451 688 LINE",
"356 810 LINE",
"326 810 LINE",
"231 688 LINE"
);
}
);
width = 682;
}
);
leftKerningGroup = O;
note = Ocircumflex;
rightKerningGroup = O;
unicode = 00D4;
},
{
glyphname = Ocircumflexacute;
lastChange = "2015-10-25 05:21:50 +0000";
layers = (
{
layerId = "63223F5B-13B6-47A7-8CD6-727EAFF9983D";
name = Light;
paths = (
{
closed = 1;
nodes = (
"536 -10 OFFCURVE",
"622 117 OFFCURVE",
"622 316 CURVE SMOOTH",
"622 546 OFFCURVE",
"537 654 OFFCURVE",
"341 654 CURVE SMOOTH",
"145 654 OFFCURVE",
"60 546 OFFCURVE",
"60 316 CURVE SMOOTH",
"60 117 OFFCURVE",
"145 -10 OFFCURVE",
"341 -10 CURVE SMOOTH"
);
},
{
closed = 1;
nodes = (
"170 15 OFFCURVE",
"87 120 OFFCURVE",
"87 316 CURVE SMOOTH",
"87 546 OFFCURVE",
"170 629 OFFCURVE",
"341 629 CURVE SMOOTH",
"511 629 OFFCURVE",
"595 546 OFFCURVE",
"595 316 CURVE SMOOTH",
"595 120 OFFCURVE",
"511 15 OFFCURVE",
"341 15 CURVE SMOOTH"
);
},
{
closed = 1;
nodes = (
"266 688 LINE",
"347 774 LINE",
"428 688 LINE",
"457 688 LINE",
"362 790 LINE",
"332 790 LINE",
"237 688 LINE"
);
},
{
closed = 1;
nodes = (
"428 790 LINE",
"492 899 LINE",
"463 899 LINE",
"406 790 LINE"
);
}
);
width = 682;
}
);
leftKerningGroup = O;
note = Ocircumflexacute;
rightKerningGroup = O;
unicode = 1ED0;
},
{
glyphname = Ocircumflexdotbelow;
lastChange = "2015-11-24 07:51:03 +0000";
layers = (
{
layerId = "63223F5B-13B6-47A7-8CD6-727EAFF9983D";
name = Light;
paths = (
{
closed = 1;
nodes = (
"536 -10 OFFCURVE",
"622 117 OFFCURVE",
"622 316 CURVE SMOOTH",
"622 546 OFFCURVE",
"537 654 OFFCURVE",
"341 654 CURVE SMOOTH",
"145 654 OFFCURVE",
"60 546 OFFCURVE",
"60 316 CURVE SMOOTH",
"60 117 OFFCURVE",
"145 -10 OFFCURVE",
"341 -10 CURVE SMOOTH"
);
},
{
closed = 1;
nodes = (
"170 15 OFFCURVE",
"87 120 OFFCURVE",
"87 316 CURVE SMOOTH",
"87 546 OFFCURVE",
"170 629 OFFCURVE",
"341 629 CURVE SMOOTH",
"511 629 OFFCURVE",
"595 546 OFFCURVE",
"595 316 CURVE SMOOTH",
"595 120 OFFCURVE",
"511 15 OFFCURVE",
"341 15 CURVE SMOOTH"
);
},
{
closed = 1;
nodes = (
"260 708 LINE",
"341 812 LINE",
"422 708 LINE",
"451 708 LINE",
"356 830 LINE",
"326 830 LINE",
"231 708 LINE"
);
},
{
closed = 1;
nodes = (
"360 -139 LINE",
"360 -102 LINE",
"323 -102 LINE",
"323 -139 LINE"
);
}
);
width = 682;
}
);
leftKerningGroup = O;
note = Ocircumflexdotbelow;
rightKerningGroup = O;
unicode = 1ED8;
},
{
glyphname = Ocircumflexgrave;
lastChange = "2015-10-25 05:21:50 +0000";
layers = (
{
layerId = "63223F5B-13B6-47A7-8CD6-727EAFF9983D";
name = Light;
paths = (
{
closed = 1;
nodes = (
"536 -10 OFFCURVE",
"622 117 OFFCURVE",
"622 316 CURVE SMOOTH",
"622 546 OFFCURVE",
"537 654 OFFCURVE",
"341 654 CURVE SMOOTH",
"145 654 OFFCURVE",
"60 546 OFFCURVE",
"60 316 CURVE SMOOTH",
"60 117 OFFCURVE",
"145 -10 OFFCURVE",
"341 -10 CURVE SMOOTH"
);
},
{
closed = 1;
nodes = (
"170 15 OFFCURVE",
"87 120 OFFCURVE",
"87 316 CURVE SMOOTH",
"87 546 OFFCURVE",
"170 629 OFFCURVE",
"341 629 CURVE SMOOTH",
"511 629 OFFCURVE",
"595 546 OFFCURVE",
"595 316 CURVE SMOOTH",
"595 120 OFFCURVE",
"511 15 OFFCURVE",
"341 15 CURVE SMOOTH"
);
},
{
closed = 1;
nodes = (
"263 688 LINE",
"344 774 LINE",
"425 688 LINE",
"454 688 LINE",
"359 790 LINE",
"329 790 LINE",
"234 688 LINE"
);
},
{
closed = 1;
nodes = (
"285 790 LINE",
"228 899 LINE",
"199 899 LINE",
"263 790 LINE"
);
}
);
width = 682;
}
);
leftKerningGroup = O;
note = Ocircumflexgrave;
rightKerningGroup = O;
unicode = 1ED2;
},
{
glyphname = Ocircumflexhookabove;
lastChange = "2015-10-25 05:21:50 +0000";
layers = (
{
layerId = "63223F5B-13B6-47A7-8CD6-727EAFF9983D";
name = Light;
paths = (
{
closed = 1;
nodes = (
"536 -10 OFFCURVE",
"622 117 OFFCURVE",
"622 316 CURVE SMOOTH",
"622 546 OFFCURVE",
"537 654 OFFCURVE",
"341 654 CURVE SMOOTH",
"145 654 OFFCURVE",
"60 546 OFFCURVE",
"60 316 CURVE SMOOTH",
"60 117 OFFCURVE",
"145 -10 OFFCURVE",
"341 -10 CURVE SMOOTH"
);
},
{
closed = 1;
nodes = (
"170 15 OFFCURVE",
"87 120 OFFCURVE",
"87 316 CURVE SMOOTH",
"87 546 OFFCURVE",
"170 629 OFFCURVE",
"341 629 CURVE SMOOTH",
"511 629 OFFCURVE",
"595 546 OFFCURVE",
"595 316 CURVE SMOOTH",
"595 120 OFFCURVE",
"511 15 OFFCURVE",
"341 15 CURVE SMOOTH"
);
},
{
closed = 1;
nodes = (
"262 688 LINE",
"343 774 LINE",
"424 688 LINE",
"453 688 LINE",
"358 790 LINE",
"328 790 LINE",
"233 688 LINE"
);
},
{
closed = 1;
nodes = (
"437 769 LINE",
"437 806 LINE",
"495 812 OFFCURVE",
"519 833 OFFCURVE",
"519 875 CURVE SMOOTH",
"519 920 OFFCURVE",
"488 944 OFFCURVE",
"438 944 CURVE SMOOTH",
"414 944 OFFCURVE",
"394 939 OFFCURVE",
"378 932 CURVE",
"378 907 LINE",
"396 915 OFFCURVE",
"414 920 OFFCURVE",
"438 920 CURVE SMOOTH",
"476 920 OFFCURVE",
"494 904 OFFCURVE",
"494 875 CURVE SMOOTH",
"494 844 OFFCURVE",
"481 829 OFFCURVE",
"409 825 CURVE",
"409 769 LINE"
);
}
);
width = 682;
}
);
leftKerningGroup = O;
note = Ocircumflexhookabove;
rightKerningGroup = O;
unicode = 1ED4;
},
{
glyphname = Ocircumflextilde;
lastChange = "2015-10-25 05:21:50 +0000";
layers = (
{
layerId = "63223F5B-13B6-47A7-8CD6-727EAFF9983D";
name = Light;
paths = (
{
closed = 1;
nodes = (
"536 -10 OFFCURVE",
"622 117 OFFCURVE",
"622 316 CURVE SMOOTH",
"622 546 OFFCURVE",
"537 654 OFFCURVE",
"341 654 CURVE SMOOTH",
"145 654 OFFCURVE",
"60 546 OFFCURVE",
"60 316 CURVE SMOOTH",
"60 117 OFFCURVE",
"145 -10 OFFCURVE",
"341 -10 CURVE SMOOTH"
);
},
{
closed = 1;
nodes = (
"170 15 OFFCURVE",
"87 120 OFFCURVE",
"87 316 CURVE SMOOTH",
"87 546 OFFCURVE",
"170 629 OFFCURVE",
"341 629 CURVE SMOOTH",
"511 629 OFFCURVE",
"595 546 OFFCURVE",
"595 316 CURVE SMOOTH",
"595 120 OFFCURVE",
"511 15 OFFCURVE",
"341 15 CURVE SMOOTH"
);
},
{
closed = 1;
nodes = (
"407 688 OFFCURVE",
"471 720 OFFCURVE",
"471 812 CURVE",
"446 812 LINE",
"446 743 OFFCURVE",
"402 713 OFFCURVE",
"341 713 CURVE SMOOTH",
"280 713 OFFCURVE",
"236 743 OFFCURVE",
"236 812 CURVE",
"211 812 LINE",
"211 720 OFFCURVE",
"275 688 OFFCURVE",
"341 688 CURVE SMOOTH"
);
},
{
closed = 1;
nodes = (
"236 874 OFFCURVE",
"258 880 OFFCURVE",
"286 880 CURVE SMOOTH",
"323 880 OFFCURVE",
"350 848 OFFCURVE",
"396 848 CURVE SMOOTH",
"425 848 OFFCURVE",
"450 857 OFFCURVE",
"466 874 CURVE",
"466 905 LINE",
"443 879 OFFCURVE",
"421 873 OFFCURVE",
"393 873 CURVE SMOOTH",
"350 873 OFFCURVE",
"332 905 OFFCURVE",
"283 905 CURVE SMOOTH",
"254 905 OFFCURVE",
"229 896 OFFCURVE",
"213 879 CURVE",
"213 848 LINE"
);
}
);
width = 682;
}
);
leftKerningGroup = O;
note = Ocircumflextilde;
rightKerningGroup = O;
unicode = 1ED6;
},
{
glyphname = Odieresis;
lastChange = "2015-10-25 05:21:50 +0000";
layers = (
{
layerId = "63223F5B-13B6-47A7-8CD6-727EAFF9983D";
name = Light;
paths = (
{
closed = 1;
nodes = (
"536 -10 OFFCURVE",
"622 117 OFFCURVE",
"622 316 CURVE SMOOTH",
"622 546 OFFCURVE",
"537 654 OFFCURVE",
"341 654 CURVE SMOOTH",
"145 654 OFFCURVE",
"60 546 OFFCURVE",
"60 316 CURVE SMOOTH",
"60 117 OFFCURVE",
"145 -10 OFFCURVE",
"341 -10 CURVE SMOOTH"
);
},
{
closed = 1;
nodes = (
"170 15 OFFCURVE",
"87 120 OFFCURVE",
"87 316 CURVE SMOOTH",
"87 546 OFFCURVE",
"170 629 OFFCURVE",
"341 629 CURVE SMOOTH",
"511 629 OFFCURVE",
"595 546 OFFCURVE",
"595 316 CURVE SMOOTH",
"595 120 OFFCURVE",
"511 15 OFFCURVE",
"341 15 CURVE SMOOTH"
);
},
{
closed = 1;
nodes = (
"280 718 LINE",
"280 753 LINE",
"245 753 LINE",
"245 718 LINE"
);
},
{
closed = 1;
nodes = (
"437 718 LINE",
"437 753 LINE",
"402 753 LINE",
"402 718 LINE"
);
}
);
width = 682;
}
);
leftKerningGroup = O;
note = Odieresis;
rightKerningGroup = O;
unicode = 00D6;
},
{
glyphname = Odotbelow;
lastChange = "2015-11-24 07:51:09 +0000";
layers = (
{
layerId = "63223F5B-13B6-47A7-8CD6-727EAFF9983D";
name = Light;
paths = (
{
closed = 1;
nodes = (
"536 -10 OFFCURVE",
"622 117 OFFCURVE",
"622 316 CURVE SMOOTH",
"622 546 OFFCURVE",
"537 654 OFFCURVE",
"341 654 CURVE SMOOTH",
"145 654 OFFCURVE",
"60 546 OFFCURVE",
"60 316 CURVE SMOOTH",
"60 117 OFFCURVE",
"145 -10 OFFCURVE",
"341 -10 CURVE SMOOTH"
);
},
{
closed = 1;
nodes = (
"170 15 OFFCURVE",
"87 120 OFFCURVE",
"87 316 CURVE SMOOTH",
"87 546 OFFCURVE",
"170 629 OFFCURVE",
"341 629 CURVE SMOOTH",
"511 629 OFFCURVE",
"595 546 OFFCURVE",
"595 316 CURVE SMOOTH",
"595 120 OFFCURVE",
"511 15 OFFCURVE",
"341 15 CURVE SMOOTH"
);
},
{
closed = 1;
nodes = (
"360 -139 LINE",
"360 -102 LINE",
"323 -102 LINE",
"323 -139 LINE"
);
}
);
width = 682;
}
);
leftKerningGroup = O;
note = Odotbelow;
rightKerningGroup = O;
unicode = 1ECC;
},
{
glyphname = Ograve;
lastChange = "2015-10-25 05:21:51 +0000";
layers = (
{
layerId = "63223F5B-13B6-47A7-8CD6-727EAFF9983D";
name = Light;
paths = (
{
closed = 1;
nodes = (
"536 -10 OFFCURVE",
"622 117 OFFCURVE",
"622 316 CURVE SMOOTH",
"622 546 OFFCURVE",
"537 654 OFFCURVE",
"341 654 CURVE SMOOTH",
"145 654 OFFCURVE",
"60 546 OFFCURVE",
"60 316 CURVE SMOOTH",
"60 117 OFFCURVE",
"145 -10 OFFCURVE",
"341 -10 CURVE SMOOTH"
);
},
{
closed = 1;
nodes = (
"170 15 OFFCURVE",
"87 120 OFFCURVE",
"87 316 CURVE SMOOTH",
"87 546 OFFCURVE",
"170 629 OFFCURVE",
"341 629 CURVE SMOOTH",
"511 629 OFFCURVE",
"595 546 OFFCURVE",
"595 316 CURVE SMOOTH",
"595 120 OFFCURVE",
"511 15 OFFCURVE",
"341 15 CURVE SMOOTH"
);
},
{
closed = 1;
nodes = (
"358 688 LINE",
"295 837 LINE",
"265 837 LINE",
"335 688 LINE"
);
}
);
width = 682;
}
);
leftKerningGroup = O;
note = Ograve;
rightKerningGroup = O;
unicode = 00D2;
},
{
glyphname = Ohookabove;
lastChange = "2015-10-25 05:21:51 +0000";
layers = (
{
layerId = "63223F5B-13B6-47A7-8CD6-727EAFF9983D";
name = Light;
paths = (
{
closed = 1;
nodes = (
"536 -10 OFFCURVE",
"622 117 OFFCURVE",
"622 316 CURVE SMOOTH",
"622 546 OFFCURVE",
"537 654 OFFCURVE",
"341 654 CURVE SMOOTH",
"145 654 OFFCURVE",
"60 546 OFFCURVE",
"60 316 CURVE SMOOTH",
"60 117 OFFCURVE",
"145 -10 OFFCURVE",
"341 -10 CURVE SMOOTH"
);
},
{
closed = 1;
nodes = (
"170 15 OFFCURVE",
"87 120 OFFCURVE",
"87 316 CURVE SMOOTH",
"87 546 OFFCURVE",
"170 629 OFFCURVE",
"341 629 CURVE SMOOTH",
"511 629 OFFCURVE",
"595 546 OFFCURVE",
"595 316 CURVE SMOOTH",
"595 120 OFFCURVE",
"511 15 OFFCURVE",
"341 15 CURVE SMOOTH"
);
},
{
closed = 1;
nodes = (
"359 688 LINE",
"359 744 LINE",
"429 750 OFFCURVE",
"451 778 OFFCURVE",
"451 830 CURVE SMOOTH",
"451 885 OFFCURVE",
"413 915 OFFCURVE",
"340 915 CURVE SMOOTH",
"320 915 OFFCURVE",
"286 910 OFFCURVE",
"270 903 CURVE",
"270 878 LINE",
"288 885 OFFCURVE",
"317 890 OFFCURVE",
"339 890 CURVE SMOOTH",
"402 890 OFFCURVE",
"426 869 OFFCURVE",
"426 830 CURVE SMOOTH",
"426 789 OFFCURVE",
"413 767 OFFCURVE",
"331 763 CURVE",
"331 688 LINE"
);
}
);
width = 682;
}
);
leftKerningGroup = O;
note = Ohookabove;
rightKerningGroup = O;
unicode = 1ECE;
},
{
glyphname = Ohorn;
lastChange = "2015-10-25 05:21:50 +0000";
layers = (
{
layerId = "63223F5B-13B6-47A7-8CD6-727EAFF9983D";
name = Light;
paths = (
{
closed = 1;
nodes = (
"536 -10 OFFCURVE",
"622 117 OFFCURVE",
"622 316 CURVE SMOOTH",
"622 408 OFFCURVE",
"608 480 OFFCURVE",
"579 534 CURVE",
"661 539 OFFCURVE",
"709 573 OFFCURVE",
"709 688 CURVE",
"684 688 LINE",
"684 590 OFFCURVE",
"651 559 OFFCURVE",
"564 559 CURVE",
"518 623 OFFCURVE",
"446 654 OFFCURVE",
"341 654 CURVE SMOOTH",
"145 654 OFFCURVE",
"60 546 OFFCURVE",
"60 316 CURVE SMOOTH",
"60 117 OFFCURVE",
"145 -10 OFFCURVE",
"341 -10 CURVE SMOOTH"
);
},
{
closed = 1;
nodes = (
"170 15 OFFCURVE",
"87 120 OFFCURVE",
"87 316 CURVE SMOOTH",
"87 546 OFFCURVE",
"170 629 OFFCURVE",
"341 629 CURVE SMOOTH",
"511 629 OFFCURVE",
"595 546 OFFCURVE",
"595 316 CURVE SMOOTH",
"595 120 OFFCURVE",
"511 15 OFFCURVE",
"341 15 CURVE SMOOTH"
);
}
);
width = 739;
}
);
leftKerningGroup = O;
note = Ohorn;
rightKerningGroup = O;
unicode = 01A0;
},
{
glyphname = Ohornacute;
lastChange = "2015-10-25 05:21:51 +0000";
layers = (
{
layerId = "63223F5B-13B6-47A7-8CD6-727EAFF9983D";
name = Light;
paths = (
{
closed = 1;
nodes = (
"536 -10 OFFCURVE",
"622 117 OFFCURVE",
"622 316 CURVE SMOOTH",
"622 408 OFFCURVE",
"608 480 OFFCURVE",
"579 534 CURVE",
"661 539 OFFCURVE",
"709 573 OFFCURVE",
"709 688 CURVE",
"684 688 LINE",
"684 590 OFFCURVE",
"651 559 OFFCURVE",
"564 559 CURVE",
"518 623 OFFCURVE",
"446 654 OFFCURVE",
"341 654 CURVE SMOOTH",
"145 654 OFFCURVE",
"60 546 OFFCURVE",
"60 316 CURVE SMOOTH",
"60 117 OFFCURVE",
"145 -10 OFFCURVE",
"341 -10 CURVE SMOOTH"
);
},
{
closed = 1;
nodes = (
"170 15 OFFCURVE",
"87 120 OFFCURVE",
"87 316 CURVE SMOOTH",
"87 546 OFFCURVE",
"170 629 OFFCURVE",
"341 629 CURVE SMOOTH",
"511 629 OFFCURVE",
"595 546 OFFCURVE",
"595 316 CURVE SMOOTH",
"595 120 OFFCURVE",
"511 15 OFFCURVE",
"341 15 CURVE SMOOTH"
);
},
{
closed = 1;
nodes = (
"366 688 LINE",
"436 837 LINE",
"406 837 LINE",
"343 688 LINE"
);
}
);
width = 739;
}
);
leftKerningGroup = O;
note = Ohornacute;
rightKerningGroup = O;
unicode = 1EDA;
},
{
glyphname = Ohorndotbelow;
lastChange = "2015-11-24 07:51:14 +0000";
layers = (
{
layerId = "63223F5B-13B6-47A7-8CD6-727EAFF9983D";
name = Light;
paths = (
{
closed = 1;
nodes = (
"536 -10 OFFCURVE",
"622 117 OFFCURVE",
"622 316 CURVE SMOOTH",
"622 408 OFFCURVE",
"608 480 OFFCURVE",
"579 534 CURVE",
"661 539 OFFCURVE",
"709 573 OFFCURVE",
"709 688 CURVE",
"684 688 LINE",
"684 590 OFFCURVE",
"651 559 OFFCURVE",
"564 559 CURVE",
"518 623 OFFCURVE",
"446 654 OFFCURVE",
"341 654 CURVE SMOOTH",
"145 654 OFFCURVE",
"60 546 OFFCURVE",
"60 316 CURVE SMOOTH",
"60 117 OFFCURVE",
"145 -10 OFFCURVE",
"341 -10 CURVE SMOOTH"
);
},
{
closed = 1;
nodes = (
"170 15 OFFCURVE",
"87 120 OFFCURVE",
"87 316 CURVE SMOOTH",
"87 546 OFFCURVE",
"170 629 OFFCURVE",
"341 629 CURVE SMOOTH",
"511 629 OFFCURVE",
"595 546 OFFCURVE",
"595 316 CURVE SMOOTH",
"595 120 OFFCURVE",
"511 15 OFFCURVE",
"341 15 CURVE SMOOTH"
);
},
{
closed = 1;
nodes = (
"364 -139 LINE",
"364 -102 LINE",
"327 -102 LINE",
"327 -139 LINE"
);
}
);
width = 739;
}
);
leftKerningGroup = O;
note = Ohorndotbelow;
rightKerningGroup = O;
unicode = 1EE2;
},
{
glyphname = Ohorngrave;
lastChange = "2015-10-25 05:21:51 +0000";
layers = (
{
layerId = "63223F5B-13B6-47A7-8CD6-727EAFF9983D";
name = Light;
paths = (
{
closed = 1;
nodes = (
"536 -10 OFFCURVE",
"622 117 OFFCURVE",
"622 316 CURVE SMOOTH",
"622 408 OFFCURVE",
"608 480 OFFCURVE",
"579 534 CURVE",
"661 539 OFFCURVE",
"709 573 OFFCURVE",
"709 688 CURVE",
"684 688 LINE",
"684 590 OFFCURVE",
"651 559 OFFCURVE",
"564 559 CURVE",
"518 623 OFFCURVE",
"446 654 OFFCURVE",
"341 654 CURVE SMOOTH",
"145 654 OFFCURVE",
"60 546 OFFCURVE",
"60 316 CURVE SMOOTH",
"60 117 OFFCURVE",
"145 -10 OFFCURVE",
"341 -10 CURVE SMOOTH"
);
},
{
closed = 1;
nodes = (
"170 15 OFFCURVE",
"87 120 OFFCURVE",
"87 316 CURVE SMOOTH",
"87 546 OFFCURVE",
"170 629 OFFCURVE",
"341 629 CURVE SMOOTH",
"511 629 OFFCURVE",
"595 546 OFFCURVE",
"595 316 CURVE SMOOTH",
"595 120 OFFCURVE",
"511 15 OFFCURVE",
"341 15 CURVE SMOOTH"
);
},
{
closed = 1;
nodes = (
"384 688 LINE",
"321 837 LINE",
"291 837 LINE",
"361 688 LINE"
);
}
);
width = 739;
}
);
leftKerningGroup = O;
note = Ohorngrave;
rightKerningGroup = O;
unicode = 1EDC;
},
{
glyphname = Ohornhookabove;
lastChange = "2015-10-25 05:21:51 +0000";
layers = (
{
layerId = "63223F5B-13B6-47A7-8CD6-727EAFF9983D";
name = Light;
paths = (
{
closed = 1;
nodes = (
"536 -10 OFFCURVE",
"622 117 OFFCURVE",
"622 316 CURVE SMOOTH",
"622 408 OFFCURVE",
"608 480 OFFCURVE",
"579 534 CURVE",
"661 539 OFFCURVE",
"709 573 OFFCURVE",
"709 688 CURVE",
"684 688 LINE",
"684 590 OFFCURVE",
"651 559 OFFCURVE",
"564 559 CURVE",
"518 623 OFFCURVE",
"446 654 OFFCURVE",
"341 654 CURVE SMOOTH",
"145 654 OFFCURVE",
"60 546 OFFCURVE",
"60 316 CURVE SMOOTH",
"60 117 OFFCURVE",
"145 -10 OFFCURVE",
"341 -10 CURVE SMOOTH"
);
},
{
closed = 1;
nodes = (
"170 15 OFFCURVE",
"87 120 OFFCURVE",
"87 316 CURVE SMOOTH",
"87 546 OFFCURVE",
"170 629 OFFCURVE",
"341 629 CURVE SMOOTH",
"511 629 OFFCURVE",
"595 546 OFFCURVE",
"595 316 CURVE SMOOTH",
"595 120 OFFCURVE",
"511 15 OFFCURVE",
"341 15 CURVE SMOOTH"
);
},
{
closed = 1;
nodes = (
"366 688 LINE",
"366 744 LINE",
"436 750 OFFCURVE",
"458 778 OFFCURVE",
"458 830 CURVE SMOOTH",
"458 885 OFFCURVE",
"420 915 OFFCURVE",
"347 915 CURVE SMOOTH",
"327 915 OFFCURVE",
"293 910 OFFCURVE",
"277 903 CURVE",
"277 878 LINE",
"295 885 OFFCURVE",
"324 890 OFFCURVE",
"346 890 CURVE SMOOTH",
"409 890 OFFCURVE",
"433 869 OFFCURVE",
"433 830 CURVE SMOOTH",
"433 789 OFFCURVE",
"420 767 OFFCURVE",
"338 763 CURVE",
"338 688 LINE"
);
}
);
width = 739;
}
);
leftKerningGroup = O;
note = Ohornhookabove;
rightKerningGroup = O;
unicode = 1EDE;
},
{
glyphname = Ohorntilde;
lastChange = "2015-10-25 05:21:50 +0000";
layers = (
{
layerId = "63223F5B-13B6-47A7-8CD6-727EAFF9983D";
name = Light;
paths = (
{
closed = 1;
nodes = (
"536 -10 OFFCURVE",
"622 117 OFFCURVE",
"622 316 CURVE SMOOTH",
"622 408 OFFCURVE",
"608 480 OFFCURVE",
"579 534 CURVE",
"661 539 OFFCURVE",
"709 573 OFFCURVE",
"709 688 CURVE",
"684 688 LINE",
"684 590 OFFCURVE",
"651 559 OFFCURVE",
"564 559 CURVE",
"518 623 OFFCURVE",
"446 654 OFFCURVE",
"341 654 CURVE SMOOTH",
"145 654 OFFCURVE",
"60 546 OFFCURVE",
"60 316 CURVE SMOOTH",
"60 117 OFFCURVE",
"145 -10 OFFCURVE",
"341 -10 CURVE SMOOTH"
);
},
{
closed = 1;
nodes = (
"170 15 OFFCURVE",
"87 120 OFFCURVE",
"87 316 CURVE SMOOTH",
"87 546 OFFCURVE",
"170 629 OFFCURVE",
"341 629 CURVE SMOOTH",
"511 629 OFFCURVE",
"595 546 OFFCURVE",
"595 316 CURVE SMOOTH",
"595 120 OFFCURVE",
"511 15 OFFCURVE",
"341 15 CURVE SMOOTH"
);
},
{
closed = 1;
nodes = (
"458 718 OFFCURVE",
"479 728 OFFCURVE",
"492 746 CURVE",
"492 777 LINE",
"474 751 OFFCURVE",
"453 743 OFFCURVE",
"424 743 CURVE SMOOTH",
"381 743 OFFCURVE",
"352 779 OFFCURVE",
"303 779 CURVE SMOOTH",
"275 779 OFFCURVE",
"246 769 OFFCURVE",
"231 751 CURVE",
"231 720 LINE",
"253 747 OFFCURVE",
"278 754 OFFCURVE",
"306 754 CURVE SMOOTH",
"343 754 OFFCURVE",
"381 718 OFFCURVE",
"427 718 CURVE SMOOTH"
);
}
);
width = 739;
}
);
leftKerningGroup = O;
note = Ohorntilde;
rightKerningGroup = O;
unicode = 1EE0;
},
{
glyphname = Ohungarumlaut;
lastChange = "2015-10-25 05:21:50 +0000";
layers = (
{
layerId = "63223F5B-13B6-47A7-8CD6-727EAFF9983D";
name = Light;
paths = (
{
closed = 1;
nodes = (
"536 -10 OFFCURVE",
"622 117 OFFCURVE",
"622 316 CURVE SMOOTH",
"622 546 OFFCURVE",
"537 654 OFFCURVE",
"341 654 CURVE SMOOTH",
"145 654 OFFCURVE",
"60 546 OFFCURVE",
"60 316 CURVE SMOOTH",
"60 117 OFFCURVE",
"145 -10 OFFCURVE",
"341 -10 CURVE SMOOTH"
);
},
{
closed = 1;
nodes = (
"170 15 OFFCURVE",
"87 120 OFFCURVE",
"87 316 CURVE SMOOTH",
"87 546 OFFCURVE",
"170 629 OFFCURVE",
"341 629 CURVE SMOOTH",
"511 629 OFFCURVE",
"595 546 OFFCURVE",
"595 316 CURVE SMOOTH",
"595 120 OFFCURVE",
"511 15 OFFCURVE",
"341 15 CURVE SMOOTH"
);
},
{
closed = 1;
nodes = (
"240 688 LINE",
"310 817 LINE",
"281 817 LINE",
"218 688 LINE"
);
},
{
closed = 1;
nodes = (
"432 688 LINE",
"502 817 LINE",
"473 817 LINE",
"410 688 LINE"
);
}
);
width = 682;
}
);
leftKerningGroup = O;
note = Ohungarumlaut;
rightKerningGroup = O;
unicode = 0150;
},
{
glyphname = Omacron;
lastChange = "2015-10-25 05:21:51 +0000";
layers = (
{
layerId = "63223F5B-13B6-47A7-8CD6-727EAFF9983D";
name = Light;
paths = (
{
closed = 1;
nodes = (
"536 -10 OFFCURVE",
"622 117 OFFCURVE",
"622 316 CURVE SMOOTH",
"622 546 OFFCURVE",
"537 654 OFFCURVE",
"341 654 CURVE SMOOTH",
"145 654 OFFCURVE",
"60 546 OFFCURVE",
"60 316 CURVE SMOOTH",
"60 117 OFFCURVE",
"145 -10 OFFCURVE",
"341 -10 CURVE SMOOTH"
);
},
{
closed = 1;
nodes = (
"170 15 OFFCURVE",
"87 120 OFFCURVE",
"87 316 CURVE SMOOTH",
"87 546 OFFCURVE",
"170 629 OFFCURVE",
"341 629 CURVE SMOOTH",
"511 629 OFFCURVE",
"595 546 OFFCURVE",
"595 316 CURVE SMOOTH",
"595 120 OFFCURVE",
"511 15 OFFCURVE",
"341 15 CURVE SMOOTH"
);
},
{
closed = 1;
nodes = (
"475 718 LINE",
"475 743 LINE",
"208 743 LINE",
"208 718 LINE"
);
}
);
width = 682;
}
);
leftKerningGroup = O;
note = Omacron;
rightKerningGroup = O;
unicode = 014C;
},
{
glyphname = Oslash;
lastChange = "2015-10-25 05:21:50 +0000";
layers = (
{
layerId = "63223F5B-13B6-47A7-8CD6-727EAFF9983D";
name = Light;
paths = (
{
closed = 1;
nodes = (
"207 -53 LINE",
"228 7 LINE",
"261 -4 OFFCURVE",
"298 -10 OFFCURVE",
"341 -10 CURVE SMOOTH",
"536 -10 OFFCURVE",
"622 117 OFFCURVE",
"622 316 CURVE SMOOTH",
"622 496 OFFCURVE",
"569 602 OFFCURVE",
"452 639 CURVE",
"471 693 LINE",
"444 693 LINE",
"427 645 LINE",
"401 651 OFFCURVE",
"372 654 OFFCURVE",
"341 654 CURVE SMOOTH",
"145 654 OFFCURVE",
"60 546 OFFCURVE",
"60 316 CURVE SMOOTH",
"60 171 OFFCURVE",
"105 64 OFFCURVE",
"205 17 CURVE",
"180 -53 LINE"
);
},
{
closed = 1;
nodes = (
"128 84 OFFCURVE",
"87 177 OFFCURVE",
"87 316 CURVE SMOOTH",
"87 546 OFFCURVE",
"170 629 OFFCURVE",
"341 629 CURVE SMOOTH",
"369 629 OFFCURVE",
"395 626 OFFCURVE",
"419 621 CURVE",
"213 41 LINE"
);
},
{
closed = 1;
nodes = (
"301 15 OFFCURVE",
"267 20 OFFCURVE",
"237 31 CURVE",
"443 615 LINE",
"544 583 OFFCURVE",
"595 493 OFFCURVE",
"595 316 CURVE SMOOTH",
"595 120 OFFCURVE",
"511 15 OFFCURVE",
"341 15 CURVE SMOOTH"
);
}
);
width = 682;
}
);
leftKerningGroup = O;
note = Oslash;
rightKerningGroup = O;
unicode = 00D8;
},
{
glyphname = Oslashacute;
lastChange = "2015-10-25 05:21:51 +0000";
layers = (
{
layerId = "63223F5B-13B6-47A7-8CD6-727EAFF9983D";
name = Light;
paths = (
{
closed = 1;
nodes = (
"207 -53 LINE",
"228 7 LINE",
"261 -4 OFFCURVE",
"298 -10 OFFCURVE",
"341 -10 CURVE SMOOTH",
"536 -10 OFFCURVE",
"622 117 OFFCURVE",
"622 316 CURVE SMOOTH",
"622 496 OFFCURVE",
"569 602 OFFCURVE",
"452 639 CURVE",
"471 693 LINE",
"444 693 LINE",
"427 645 LINE",
"401 651 OFFCURVE",
"372 654 OFFCURVE",
"341 654 CURVE SMOOTH",
"145 654 OFFCURVE",
"60 546 OFFCURVE",
"60 316 CURVE SMOOTH",
"60 171 OFFCURVE",
"105 64 OFFCURVE",
"205 17 CURVE",
"180 -53 LINE"
);
},
{
closed = 1;
nodes = (
"128 84 OFFCURVE",
"87 177 OFFCURVE",
"87 316 CURVE SMOOTH",
"87 546 OFFCURVE",
"170 629 OFFCURVE",
"341 629 CURVE SMOOTH",
"369 629 OFFCURVE",
"395 626 OFFCURVE",
"419 621 CURVE",
"213 41 LINE"
);
},
{
closed = 1;
nodes = (
"301 15 OFFCURVE",
"267 20 OFFCURVE",
"237 31 CURVE",
"443 615 LINE",
"544 583 OFFCURVE",
"595 493 OFFCURVE",
"595 316 CURVE SMOOTH",
"595 120 OFFCURVE",
"511 15 OFFCURVE",
"341 15 CURVE SMOOTH"
);
},
{
closed = 1;
nodes = (
"354 688 LINE",
"424 837 LINE",
"394 837 LINE",
"331 688 LINE"
);
}
);
width = 682;
}
);
leftKerningGroup = O;
note = Oslashacute;
rightKerningGroup = O;
unicode = 01FE;
},
{
glyphname = Otilde;
lastChange = "2015-10-25 05:21:50 +0000";
layers = (
{
layerId = "63223F5B-13B6-47A7-8CD6-727EAFF9983D";
name = Light;
paths = (
{
closed = 1;
nodes = (
"536 -10 OFFCURVE",
"622 117 OFFCURVE",
"622 316 CURVE SMOOTH",
"622 546 OFFCURVE",
"537 654 OFFCURVE",
"341 654 CURVE SMOOTH",
"145 654 OFFCURVE",
"60 546 OFFCURVE",
"60 316 CURVE SMOOTH",
"60 117 OFFCURVE",
"145 -10 OFFCURVE",
"341 -10 CURVE SMOOTH"
);
},
{
closed = 1;
nodes = (
"170 15 OFFCURVE",
"87 120 OFFCURVE",
"87 316 CURVE SMOOTH",
"87 546 OFFCURVE",
"170 629 OFFCURVE",
"341 629 CURVE SMOOTH",
"511 629 OFFCURVE",
"595 546 OFFCURVE",
"595 316 CURVE SMOOTH",
"595 120 OFFCURVE",
"511 15 OFFCURVE",
"341 15 CURVE SMOOTH"
);
},
{
closed = 1;
nodes = (
"438 718 OFFCURVE",
"459 728 OFFCURVE",
"472 746 CURVE",
"472 777 LINE",
"454 751 OFFCURVE",
"433 743 OFFCURVE",
"404 743 CURVE SMOOTH",
"361 743 OFFCURVE",
"332 779 OFFCURVE",
"283 779 CURVE SMOOTH",
"255 779 OFFCURVE",
"226 769 OFFCURVE",
"211 751 CURVE",
"211 720 LINE",
"233 747 OFFCURVE",
"258 754 OFFCURVE",
"286 754 CURVE SMOOTH",
"323 754 OFFCURVE",
"361 718 OFFCURVE",
"407 718 CURVE SMOOTH"
);
}
);
width = 682;
}
);
leftKerningGroup = O;
note = Otilde;
rightKerningGroup = O;
unicode = 00D5;
},
{
glyphname = OE;
lastChange = "2015-10-25 05:21:51 +0000";
layers = (
{
layerId = "63223F5B-13B6-47A7-8CD6-727EAFF9983D";
name = Light;
paths = (
{
closed = 1;
nodes = (
"474 -10 OFFCURVE",
"556 49 OFFCURVE",
"595 149 CURVE",
"595 0 LINE",
"1003 0 LINE",
"1003 25 LINE",
"623 25 LINE",
"623 310 LINE",
"968 310 LINE",
"968 335 LINE",
"623 335 LINE",
"623 619 LINE",
"1003 619 LINE",
"1003 644 LINE",
"595 644 LINE",
"595 499 LINE",
"556 604 OFFCURVE",
"474 654 OFFCURVE",
"341 654 CURVE SMOOTH",
"145 654 OFFCURVE",
"60 546 OFFCURVE",
"60 316 CURVE SMOOTH",
"60 117 OFFCURVE",
"145 -10 OFFCURVE",
"341 -10 CURVE SMOOTH"
);
},
{
closed = 1;
nodes = (
"170 15 OFFCURVE",
"87 120 OFFCURVE",
"87 316 CURVE SMOOTH",
"87 546 OFFCURVE",
"170 629 OFFCURVE",
"341 629 CURVE SMOOTH",
"506 629 OFFCURVE",
"591 550 OFFCURVE",
"595 333 CURVE SMOOTH",
"595 316 LINE SMOOTH",
"595 120 OFFCURVE",
"511 15 OFFCURVE",
"341 15 CURVE SMOOTH"
);
}
);
width = 1063;
}
);
leftKerningGroup = O;
note = OE;
rightKerningGroup = E;
unicode = 0152;
},
{
glyphname = P;
lastChange = "2015-10-25 05:21:51 +0000";
layers = (
{
layerId = "63223F5B-13B6-47A7-8CD6-727EAFF9983D";
name = Light;
paths = (
{
closed = 1;
nodes = (
"108 0 LINE",
"108 261 LINE",
"317 261 LINE SMOOTH",
"443 261 OFFCURVE",
"520 331 OFFCURVE",
"520 451 CURVE SMOOTH",
"520 568 OFFCURVE",
"459 644 OFFCURVE",
"321 644 CURVE SMOOTH",
"80 644 LINE",
"80 0 LINE"
);
},
{
closed = 1;
nodes = (
"108 619 LINE",
"324 619 LINE SMOOTH",
"437 619 OFFCURVE",
"493 559 OFFCURVE",
"493 451 CURVE SMOOTH",
"493 350 OFFCURVE",
"434 286 OFFCURVE",
"319 286 CURVE SMOOTH",
"108 286 LINE"
);
}
);
width = 560;
}
);
note = P;
unicode = 0050;
},
{
glyphname = Thorn;
lastChange = "2015-11-24 07:51:28 +0000";
layers = (
{
layerId = "63223F5B-13B6-47A7-8CD6-727EAFF9983D";
name = Light;
paths = (
{
closed = 1;
nodes = (
"108 0 LINE",
"108 130 LINE",
"317 130 LINE SMOOTH",
"443 130 OFFCURVE",
"520 200 OFFCURVE",
"520 320 CURVE SMOOTH",
"520 437 OFFCURVE",
"459 513 OFFCURVE",
"321 513 CURVE SMOOTH",
"108 513 LINE",
"108 644 LINE",
"80 644 LINE",
"80 0 LINE"
);
},
{
closed = 1;
nodes = (
"108 487 LINE",
"324 487 LINE SMOOTH",
"437 487 OFFCURVE",
"493 428 OFFCURVE",
"493 320 CURVE SMOOTH",
"493 219 OFFCURVE",
"434 155 OFFCURVE",
"319 155 CURVE SMOOTH",
"108 155 LINE"
);
}
);
width = 560;
}
);
note = Thorn;
unicode = 00DE;
},
{
glyphname = Q;
lastChange = "2015-10-25 05:21:51 +0000";
layers = (
{
layerId = "63223F5B-13B6-47A7-8CD6-727EAFF9983D";
name = Light;
paths = (
{
closed = 1;
nodes = (
"460 -172 OFFCURVE",
"489 -168 OFFCURVE",
"509 -162 CURVE",
"509 -136 LINE",
"489 -142 OFFCURVE",
"458 -146 OFFCURVE",
"438 -146 CURVE SMOOTH",
"366 -146 OFFCURVE",
"347 -106 OFFCURVE",
"347 -10 CURVE",
"538 -7 OFFCURVE",
"622 119 OFFCURVE",
"622 316 CURVE SMOOTH",
"622 546 OFFCURVE",
"537 654 OFFCURVE",
"341 654 CURVE SMOOTH",
"145 654 OFFCURVE",
"60 546 OFFCURVE",
"60 316 CURVE SMOOTH",
"60 124 OFFCURVE",
"139 0 OFFCURVE",
"320 -9 CURVE",
"321 -110 OFFCURVE",
"343 -172 OFFCURVE",
"438 -172 CURVE SMOOTH"
);
},
{
closed = 1;
nodes = (
"170 15 OFFCURVE",
"87 120 OFFCURVE",
"87 316 CURVE SMOOTH",
"87 546 OFFCURVE",
"170 629 OFFCURVE",
"341 629 CURVE SMOOTH",
"511 629 OFFCURVE",
"595 546 OFFCURVE",
"595 316 CURVE SMOOTH",
"595 120 OFFCURVE",
"511 15 OFFCURVE",
"341 15 CURVE SMOOTH"
);
}
);
width = 682;
}
);
leftKerningGroup = O;
note = Q;
rightKerningGroup = O;
unicode = 0051;
},
{
glyphname = R;
lastChange = "2015-10-25 05:21:51 +0000";
layers = (
{
layerId = "63223F5B-13B6-47A7-8CD6-727EAFF9983D";
name = Light;
paths = (
{
closed = 1;
nodes = (
"108 0 LINE",
"108 273 LINE",
"275 273 LINE SMOOTH",
"362 273 OFFCURVE",
"384 253 OFFCURVE",
"406 202 CURVE SMOOTH",
"494 0 LINE",
"522 0 LINE",
"433 208 LINE SMOOTH",
"417 244 OFFCURVE",
"406 264 OFFCURVE",
"373 278 CURVE",
"472 292 OFFCURVE",
"520 357 OFFCURVE",
"520 460 CURVE SMOOTH",
"520 573 OFFCURVE",
"466 644 OFFCURVE",
"336 644 CURVE SMOOTH",
"80 644 LINE",
"80 0 LINE"
);
},
{
closed = 1;
nodes = (
"108 619 LINE",
"339 619 LINE SMOOTH",
"442 619 OFFCURVE",
"493 566 OFFCURVE",
"493 460 CURVE SMOOTH",
"493 344 OFFCURVE",
"429 298 OFFCURVE",
"326 298 CURVE SMOOTH",
"108 298 LINE"
);
}
);
width = 582;
}
);
note = R;
rightKerningGroup = R;
unicode = 0052;
},
{
glyphname = Racute;
lastChange = "2015-10-25 05:21:50 +0000";
layers = (
{
layerId = "63223F5B-13B6-47A7-8CD6-727EAFF9983D";
name = Light;
paths = (
{
closed = 1;
nodes = (
"108 0 LINE",
"108 273 LINE",
"275 273 LINE SMOOTH",
"362 273 OFFCURVE",
"384 253 OFFCURVE",
"406 202 CURVE SMOOTH",
"494 0 LINE",
"522 0 LINE",
"433 208 LINE SMOOTH",
"417 244 OFFCURVE",
"406 264 OFFCURVE",
"373 278 CURVE",
"472 292 OFFCURVE",
"520 357 OFFCURVE",
"520 460 CURVE SMOOTH",
"520 573 OFFCURVE",
"466 644 OFFCURVE",
"336 644 CURVE SMOOTH",
"80 644 LINE",
"80 0 LINE"
);
},
{
closed = 1;
nodes = (
"108 619 LINE",
"339 619 LINE SMOOTH",
"442 619 OFFCURVE",
"493 566 OFFCURVE",
"493 460 CURVE SMOOTH",
"493 344 OFFCURVE",
"429 298 OFFCURVE",
"326 298 CURVE SMOOTH",
"108 298 LINE"
);
},
{
closed = 1;
nodes = (
"301 688 LINE",
"371 837 LINE",
"341 837 LINE",
"278 688 LINE"
);
}
);
width = 582;
}
);
note = Racute;
rightKerningGroup = R;
unicode = 0154;
},
{
glyphname = Rcaron;
lastChange = "2015-10-25 05:21:51 +0000";
layers = (
{
layerId = "63223F5B-13B6-47A7-8CD6-727EAFF9983D";
name = Light;
paths = (
{
closed = 1;
nodes = (
"108 0 LINE",
"108 273 LINE",
"275 273 LINE SMOOTH",
"362 273 OFFCURVE",
"384 253 OFFCURVE",
"406 202 CURVE SMOOTH",
"494 0 LINE",
"522 0 LINE",
"433 208 LINE SMOOTH",
"417 244 OFFCURVE",
"406 264 OFFCURVE",
"373 278 CURVE",
"472 292 OFFCURVE",
"520 357 OFFCURVE",
"520 460 CURVE SMOOTH",
"520 573 OFFCURVE",
"466 644 OFFCURVE",
"336 644 CURVE SMOOTH",
"80 644 LINE",
"80 0 LINE"
);
},
{
closed = 1;
nodes = (
"108 619 LINE",
"339 619 LINE SMOOTH",
"442 619 OFFCURVE",
"493 566 OFFCURVE",
"493 460 CURVE SMOOTH",
"493 344 OFFCURVE",
"429 298 OFFCURVE",
"326 298 CURVE SMOOTH",
"108 298 LINE"
);
},
{
closed = 1;
nodes = (
"313 688 LINE",
"408 810 LINE",
"379 810 LINE",
"298 706 LINE",
"217 810 LINE",
"188 810 LINE",
"283 688 LINE"
);
}
);
width = 582;
}
);
note = Rcaron;
rightKerningGroup = R;
unicode = 0158;
},
{
glyphname = Rcommaaccent;
lastChange = "2015-11-24 07:51:36 +0000";
layers = (
{
layerId = "63223F5B-13B6-47A7-8CD6-727EAFF9983D";
name = Light;
paths = (
{
closed = 1;
nodes = (
"108 0 LINE",
"108 273 LINE",
"275 273 LINE SMOOTH",
"362 273 OFFCURVE",
"384 253 OFFCURVE",
"406 202 CURVE SMOOTH",
"494 0 LINE",
"522 0 LINE",
"433 208 LINE SMOOTH",
"417 244 OFFCURVE",
"406 264 OFFCURVE",
"373 278 CURVE",
"472 292 OFFCURVE",
"520 357 OFFCURVE",
"520 460 CURVE SMOOTH",
"520 573 OFFCURVE",
"466 644 OFFCURVE",
"336 644 CURVE SMOOTH",
"80 644 LINE",
"80 0 LINE"
);
},
{
closed = 1;
nodes = (
"108 619 LINE",
"339 619 LINE SMOOTH",
"442 619 OFFCURVE",
"493 566 OFFCURVE",
"493 460 CURVE SMOOTH",
"493 344 OFFCURVE",
"429 298 OFFCURVE",
"326 298 CURVE SMOOTH",
"108 298 LINE"
);
},
{
closed = 1;
nodes = (
"251 -190 LINE",
"286 -37 LINE",
"253 -37 LINE",
"229 -190 LINE"
);
}
);
width = 582;
}
);
note = Rcommaaccent;
rightKerningGroup = R;
unicode = 0156;
},
{
glyphname = Rdotbelow;
lastChange = "2015-11-24 07:51:46 +0000";
layers = (
{
layerId = "63223F5B-13B6-47A7-8CD6-727EAFF9983D";
name = Light;
paths = (
{
closed = 1;
nodes = (
"108 0 LINE",
"108 273 LINE",
"275 273 LINE SMOOTH",
"362 273 OFFCURVE",
"384 253 OFFCURVE",
"406 202 CURVE SMOOTH",
"494 0 LINE",
"522 0 LINE",
"433 208 LINE SMOOTH",
"417 244 OFFCURVE",
"406 264 OFFCURVE",
"373 278 CURVE",
"472 292 OFFCURVE",
"520 357 OFFCURVE",
"520 460 CURVE SMOOTH",
"520 573 OFFCURVE",
"466 644 OFFCURVE",
"336 644 CURVE SMOOTH",
"80 644 LINE",
"80 0 LINE"
);
},
{
closed = 1;
nodes = (
"108 619 LINE",
"339 619 LINE SMOOTH",
"442 619 OFFCURVE",
"493 566 OFFCURVE",
"493 460 CURVE SMOOTH",
"493 344 OFFCURVE",
"429 298 OFFCURVE",
"326 298 CURVE SMOOTH",
"108 298 LINE"
);
},
{
closed = 1;
nodes = (
"306 -139 LINE",
"306 -102 LINE",
"269 -102 LINE",
"269 -139 LINE"
);
}
);
width = 582;
}
);
note = Rdotbelow;
rightKerningGroup = R;
unicode = 1E5A;
},
{
glyphname = Rdotbelowmacron;
lastChange = "2015-11-24 07:51:59 +0000";
layers = (
{
layerId = "63223F5B-13B6-47A7-8CD6-727EAFF9983D";
name = Light;
paths = (
{
closed = 1;
nodes = (
"108 0 LINE",
"108 273 LINE",
"275 273 LINE SMOOTH",
"362 273 OFFCURVE",
"384 253 OFFCURVE",
"406 202 CURVE SMOOTH",
"494 0 LINE",
"522 0 LINE",
"433 208 LINE SMOOTH",
"417 244 OFFCURVE",
"406 264 OFFCURVE",
"373 278 CURVE",
"472 292 OFFCURVE",
"520 357 OFFCURVE",
"520 460 CURVE SMOOTH",
"520 573 OFFCURVE",
"466 644 OFFCURVE",
"336 644 CURVE SMOOTH",
"80 644 LINE",
"80 0 LINE"
);
},
{
closed = 1;
nodes = (
"108 619 LINE",
"339 619 LINE SMOOTH",
"442 619 OFFCURVE",
"493 566 OFFCURVE",
"493 460 CURVE SMOOTH",
"493 344 OFFCURVE",
"429 298 OFFCURVE",
"326 298 CURVE SMOOTH",
"108 298 LINE"
);
},
{
closed = 1;
nodes = (
"307 -139 LINE",
"307 -102 LINE",
"270 -102 LINE",
"270 -139 LINE"
);
},
{
closed = 1;
nodes = (
"425 718 LINE",
"425 743 LINE",
"158 743 LINE",
"158 718 LINE"
);
}
);
width = 582;
}
);
note = Rdotbelowmacron;
rightKerningGroup = R;
unicode = 1E5C;
},
{
glyphname = Rlinebelow;
lastChange = "2015-11-24 07:51:55 +0000";
layers = (
{
layerId = "63223F5B-13B6-47A7-8CD6-727EAFF9983D";
name = Light;
paths = (
{
closed = 1;
nodes = (
"108 0 LINE",
"108 273 LINE",
"275 273 LINE SMOOTH",
"362 273 OFFCURVE",
"384 253 OFFCURVE",
"406 202 CURVE SMOOTH",
"494 0 LINE",
"522 0 LINE",
"433 208 LINE SMOOTH",
"417 244 OFFCURVE",
"406 264 OFFCURVE",
"373 278 CURVE",
"472 292 OFFCURVE",
"520 357 OFFCURVE",
"520 460 CURVE SMOOTH",
"520 573 OFFCURVE",
"466 644 OFFCURVE",
"336 644 CURVE SMOOTH",
"80 644 LINE",
"80 0 LINE"
);
},
{
closed = 1;
nodes = (
"108 619 LINE",
"339 619 LINE SMOOTH",
"442 619 OFFCURVE",
"493 566 OFFCURVE",
"493 460 CURVE SMOOTH",
"493 344 OFFCURVE",
"429 298 OFFCURVE",
"326 298 CURVE SMOOTH",
"108 298 LINE"
);
},
{
closed = 1;
nodes = (
"418 -101 LINE",
"418 -76 LINE",
"151 -76 LINE",
"151 -101 LINE"
);
}
);
width = 582;
}
);
note = Rlinebelow;
rightKerningGroup = R;
unicode = 1E5E;
},
{
glyphname = S;
lastChange = "2015-10-25 05:21:49 +0000";
layers = (
{
layerId = "63223F5B-13B6-47A7-8CD6-727EAFF9983D";
name = Light;
paths = (
{
closed = 1;
nodes = (
"408 -10 OFFCURVE",
"491 44 OFFCURVE",
"491 160 CURVE SMOOTH",
"491 253 OFFCURVE",
"438 303 OFFCURVE",
"282 338 CURVE SMOOTH",
"132 372 OFFCURVE",
"87 403 OFFCURVE",
"87 485 CURVE SMOOTH",
"87 584 OFFCURVE",
"157 629 OFFCURVE",
"292 629 CURVE SMOOTH",
"353 629 OFFCURVE",
"408 620 OFFCURVE",
"451 606 CURVE",
"451 631 LINE",
"421 641 OFFCURVE",
"354 654 OFFCURVE",
"284 654 CURVE SMOOTH",
"128 654 OFFCURVE",
"60 585 OFFCURVE",
"60 485 CURVE SMOOTH",
"60 397 OFFCURVE",
"111 350 OFFCURVE",
"261 318 CURVE SMOOTH",
"404 288 OFFCURVE",
"464 252 OFFCURVE",
"464 160 CURVE SMOOTH",
"464 58 OFFCURVE",
"392 14 OFFCURVE",
"257 14 CURVE SMOOTH",
"188 14 OFFCURVE",
"131 23 OFFCURVE",
"78 41 CURVE",
"78 16 LINE",
"124 -1 OFFCURVE",
"181 -10 OFFCURVE",
"257 -10 CURVE SMOOTH"
);
}
);
width = 551;
}
);
leftKerningGroup = S;
note = S;
rightKerningGroup = S;
unicode = 0053;
},
{
glyphname = Sacute;
lastChange = "2015-10-25 05:21:51 +0000";
layers = (
{
layerId = "63223F5B-13B6-47A7-8CD6-727EAFF9983D";
name = Light;
paths = (
{
closed = 1;
nodes = (
"408 -10 OFFCURVE",
"491 44 OFFCURVE",
"491 160 CURVE SMOOTH",
"491 253 OFFCURVE",
"438 303 OFFCURVE",
"282 338 CURVE SMOOTH",
"132 372 OFFCURVE",
"87 403 OFFCURVE",
"87 485 CURVE SMOOTH",
"87 584 OFFCURVE",
"157 629 OFFCURVE",
"292 629 CURVE SMOOTH",
"353 629 OFFCURVE",
"408 620 OFFCURVE",
"451 606 CURVE",
"451 631 LINE",
"421 641 OFFCURVE",
"354 654 OFFCURVE",
"284 654 CURVE SMOOTH",
"128 654 OFFCURVE",
"60 585 OFFCURVE",
"60 485 CURVE SMOOTH",
"60 397 OFFCURVE",
"111 350 OFFCURVE",
"261 318 CURVE SMOOTH",
"404 288 OFFCURVE",
"464 252 OFFCURVE",
"464 160 CURVE SMOOTH",
"464 58 OFFCURVE",
"392 14 OFFCURVE",
"257 14 CURVE SMOOTH",
"188 14 OFFCURVE",
"131 23 OFFCURVE",
"78 41 CURVE",
"78 16 LINE",
"124 -1 OFFCURVE",
"181 -10 OFFCURVE",
"257 -10 CURVE SMOOTH"
);
},
{
closed = 1;
nodes = (
"279 700 LINE",
"349 849 LINE",
"319 849 LINE",
"256 700 LINE"
);
}
);
width = 551;
}
);
leftKerningGroup = S;
note = Sacute;
rightKerningGroup = S;
unicode = 015A;
},
{
glyphname = Scaron;
lastChange = "2015-10-25 05:21:50 +0000";
layers = (
{
layerId = "63223F5B-13B6-47A7-8CD6-727EAFF9983D";
name = Light;
paths = (
{
closed = 1;
nodes = (
"408 -10 OFFCURVE",
"491 44 OFFCURVE",
"491 160 CURVE SMOOTH",
"491 253 OFFCURVE",
"438 303 OFFCURVE",
"282 338 CURVE SMOOTH",
"132 372 OFFCURVE",
"87 403 OFFCURVE",
"87 485 CURVE SMOOTH",
"87 584 OFFCURVE",
"157 629 OFFCURVE",
"292 629 CURVE SMOOTH",
"353 629 OFFCURVE",
"408 620 OFFCURVE",
"451 606 CURVE",
"451 631 LINE",
"421 641 OFFCURVE",
"354 654 OFFCURVE",
"284 654 CURVE SMOOTH",
"128 654 OFFCURVE",
"60 585 OFFCURVE",
"60 485 CURVE SMOOTH",
"60 397 OFFCURVE",
"111 350 OFFCURVE",
"261 318 CURVE SMOOTH",
"404 288 OFFCURVE",
"464 252 OFFCURVE",
"464 160 CURVE SMOOTH",
"464 58 OFFCURVE",
"392 14 OFFCURVE",
"257 14 CURVE SMOOTH",
"188 14 OFFCURVE",
"131 23 OFFCURVE",
"78 41 CURVE",
"78 16 LINE",
"124 -1 OFFCURVE",
"181 -10 OFFCURVE",
"257 -10 CURVE SMOOTH"
);
},
{
closed = 1;
nodes = (
"302 688 LINE",
"397 810 LINE",
"368 810 LINE",
"287 706 LINE",
"206 810 LINE",
"177 810 LINE",
"272 688 LINE"
);
}
);
width = 551;
}
);
leftKerningGroup = S;
note = Scaron;
rightKerningGroup = S;
unicode = 0160;
},
{
glyphname = Scedilla;
lastChange = "2015-10-25 05:21:51 +0000";
layers = (
{
layerId = "63223F5B-13B6-47A7-8CD6-727EAFF9983D";
name = Light;
paths = (
{
closed = 1;
nodes = (
"408 -10 OFFCURVE",
"491 44 OFFCURVE",
"491 160 CURVE SMOOTH",
"491 253 OFFCURVE",
"438 303 OFFCURVE",
"282 338 CURVE SMOOTH",
"132 372 OFFCURVE",
"87 403 OFFCURVE",
"87 485 CURVE SMOOTH",
"87 584 OFFCURVE",
"157 629 OFFCURVE",
"292 629 CURVE SMOOTH",
"353 629 OFFCURVE",
"408 620 OFFCURVE",
"451 606 CURVE",
"451 631 LINE",
"421 641 OFFCURVE",
"354 654 OFFCURVE",
"284 654 CURVE SMOOTH",
"128 654 OFFCURVE",
"60 585 OFFCURVE",
"60 485 CURVE SMOOTH",
"60 397 OFFCURVE",
"111 350 OFFCURVE",
"261 318 CURVE SMOOTH",
"404 288 OFFCURVE",
"464 252 OFFCURVE",
"464 160 CURVE SMOOTH",
"464 58 OFFCURVE",
"392 14 OFFCURVE",
"257 14 CURVE SMOOTH",
"188 14 OFFCURVE",
"131 23 OFFCURVE",
"78 41 CURVE",
"78 16 LINE",
"124 -1 OFFCURVE",
"181 -10 OFFCURVE",
"257 -10 CURVE SMOOTH"
);
},
{
closed = 1;
nodes = (
"353 -240 OFFCURVE",
"391 -204 OFFCURVE",
"391 -139 CURVE SMOOTH",
"391 -81 OFFCURVE",
"348 -53 OFFCURVE",
"273 -53 CURVE",
"292 0 LINE",
"264 0 LINE",
"237 -76 LINE",
"265 -76 LINE SMOOTH",
"332 -76 OFFCURVE",
"364 -93 OFFCURVE",
"364 -141 CURVE SMOOTH",
"364 -195 OFFCURVE",
"329 -215 OFFCURVE",
"257 -215 CURVE SMOOTH",
"234 -215 OFFCURVE",
"211 -212 OFFCURVE",
"193 -207 CURVE",
"193 -232 LINE",
"208 -236 OFFCURVE",
"235 -240 OFFCURVE",
"256 -240 CURVE SMOOTH"
);
}
);
width = 551;
}
);
leftKerningGroup = S;
note = Scedilla;
rightKerningGroup = S;
unicode = 015E;
},
{
glyphname = Scircumflex;
lastChange = "2015-10-25 05:21:50 +0000";
layers = (
{
layerId = "63223F5B-13B6-47A7-8CD6-727EAFF9983D";
name = Light;
paths = (
{
closed = 1;
nodes = (
"408 -10 OFFCURVE",
"491 44 OFFCURVE",
"491 160 CURVE SMOOTH",
"491 253 OFFCURVE",
"438 303 OFFCURVE",
"282 338 CURVE SMOOTH",
"132 372 OFFCURVE",
"87 403 OFFCURVE",
"87 485 CURVE SMOOTH",
"87 584 OFFCURVE",
"157 629 OFFCURVE",
"292 629 CURVE SMOOTH",
"353 629 OFFCURVE",
"408 620 OFFCURVE",
"451 606 CURVE",
"451 631 LINE",
"421 641 OFFCURVE",
"354 654 OFFCURVE",
"284 654 CURVE SMOOTH",
"128 654 OFFCURVE",
"60 585 OFFCURVE",
"60 485 CURVE SMOOTH",
"60 397 OFFCURVE",
"111 350 OFFCURVE",
"261 318 CURVE SMOOTH",
"404 288 OFFCURVE",
"464 252 OFFCURVE",
"464 160 CURVE SMOOTH",
"464 58 OFFCURVE",
"392 14 OFFCURVE",
"257 14 CURVE SMOOTH",
"188 14 OFFCURVE",
"131 23 OFFCURVE",
"78 41 CURVE",
"78 16 LINE",
"124 -1 OFFCURVE",
"181 -10 OFFCURVE",
"257 -10 CURVE SMOOTH"
);
},
{
closed = 1;
nodes = (
"191 720 LINE",
"272 824 LINE",
"353 720 LINE",
"382 720 LINE",
"287 842 LINE",
"257 842 LINE",
"162 720 LINE"
);
}
);
width = 551;
}
);
leftKerningGroup = S;
note = Scircumflex;
rightKerningGroup = S;
unicode = 015C;
},
{
glyphname = Scommaaccent;
lastChange = "2015-10-25 05:21:50 +0000";
layers = (
{
layerId = "63223F5B-13B6-47A7-8CD6-727EAFF9983D";
name = Light;
paths = (
{
closed = 1;
nodes = (
"408 -10 OFFCURVE",
"491 44 OFFCURVE",
"491 160 CURVE SMOOTH",
"491 253 OFFCURVE",
"438 303 OFFCURVE",
"282 338 CURVE SMOOTH",
"132 372 OFFCURVE",
"87 403 OFFCURVE",
"87 485 CURVE SMOOTH",
"87 584 OFFCURVE",
"157 629 OFFCURVE",
"292 629 CURVE SMOOTH",
"353 629 OFFCURVE",
"408 620 OFFCURVE",
"451 606 CURVE",
"451 631 LINE",
"421 641 OFFCURVE",
"354 654 OFFCURVE",
"284 654 CURVE SMOOTH",
"128 654 OFFCURVE",
"60 585 OFFCURVE",
"60 485 CURVE SMOOTH",
"60 397 OFFCURVE",
"111 350 OFFCURVE",
"261 318 CURVE SMOOTH",
"404 288 OFFCURVE",
"464 252 OFFCURVE",
"464 160 CURVE SMOOTH",
"464 58 OFFCURVE",
"392 14 OFFCURVE",
"257 14 CURVE SMOOTH",
"188 14 OFFCURVE",
"131 23 OFFCURVE",
"78 41 CURVE",
"78 16 LINE",
"124 -1 OFFCURVE",
"181 -10 OFFCURVE",
"257 -10 CURVE SMOOTH"
);
},
{
closed = 1;
nodes = (
"258 -210 LINE",
"293 -57 LINE",
"260 -57 LINE",
"236 -210 LINE"
);
}
);
width = 551;
}
);
leftKerningGroup = S;
note = Scommaaccent;
rightKerningGroup = S;
unicode = 0218;
},
{
glyphname = Sdotaccent;
lastChange = "2015-10-25 05:21:51 +0000";
layers = (
{
layerId = "63223F5B-13B6-47A7-8CD6-727EAFF9983D";
name = Light;
paths = (
{
closed = 1;
nodes = (
"408 -10 OFFCURVE",
"491 44 OFFCURVE",
"491 160 CURVE SMOOTH",
"491 253 OFFCURVE",
"438 303 OFFCURVE",
"282 338 CURVE SMOOTH",
"132 372 OFFCURVE",
"87 403 OFFCURVE",
"87 485 CURVE SMOOTH",
"87 584 OFFCURVE",
"157 629 OFFCURVE",
"292 629 CURVE SMOOTH",
"353 629 OFFCURVE",
"408 620 OFFCURVE",
"451 606 CURVE",
"451 631 LINE",
"421 641 OFFCURVE",
"354 654 OFFCURVE",
"284 654 CURVE SMOOTH",
"128 654 OFFCURVE",
"60 585 OFFCURVE",
"60 485 CURVE SMOOTH",
"60 397 OFFCURVE",
"111 350 OFFCURVE",
"261 318 CURVE SMOOTH",
"404 288 OFFCURVE",
"464 252 OFFCURVE",
"464 160 CURVE SMOOTH",
"464 58 OFFCURVE",
"392 14 OFFCURVE",
"257 14 CURVE SMOOTH",
"188 14 OFFCURVE",
"131 23 OFFCURVE",
"78 41 CURVE",
"78 16 LINE",
"124 -1 OFFCURVE",
"181 -10 OFFCURVE",
"257 -10 CURVE SMOOTH"
);
},
{
closed = 1;
nodes = (
"287 718 LINE",
"287 753 LINE",
"252 753 LINE",
"252 718 LINE"
);
}
);
width = 551;
}
);
leftKerningGroup = S;
note = Sdotaccent;
rightKerningGroup = S;
unicode = 1E60;
},
{
glyphname = Sdotbelow;
lastChange = "2015-10-25 05:21:50 +0000";
layers = (
{
layerId = "63223F5B-13B6-47A7-8CD6-727EAFF9983D";
name = Light;
paths = (
{
closed = 1;
nodes = (
"408 -10 OFFCURVE",
"491 44 OFFCURVE",
"491 160 CURVE SMOOTH",
"491 253 OFFCURVE",
"438 303 OFFCURVE",
"282 338 CURVE SMOOTH",
"132 372 OFFCURVE",
"87 403 OFFCURVE",
"87 485 CURVE SMOOTH",
"87 584 OFFCURVE",
"157 629 OFFCURVE",
"292 629 CURVE SMOOTH",
"353 629 OFFCURVE",
"408 620 OFFCURVE",
"451 606 CURVE",
"451 631 LINE",
"421 641 OFFCURVE",
"354 654 OFFCURVE",
"284 654 CURVE SMOOTH",
"128 654 OFFCURVE",
"60 585 OFFCURVE",
"60 485 CURVE SMOOTH",
"60 397 OFFCURVE",
"111 350 OFFCURVE",
"261 318 CURVE SMOOTH",
"404 288 OFFCURVE",
"464 252 OFFCURVE",
"464 160 CURVE SMOOTH",
"464 58 OFFCURVE",
"392 14 OFFCURVE",
"257 14 CURVE SMOOTH",
"188 14 OFFCURVE",
"131 23 OFFCURVE",
"78 41 CURVE",
"78 16 LINE",
"124 -1 OFFCURVE",
"181 -10 OFFCURVE",
"257 -10 CURVE SMOOTH"
);
},
{
closed = 1;
nodes = (
"292 -139 LINE",
"292 -102 LINE",
"255 -102 LINE",
"255 -139 LINE"
);
}
);
width = 551;
}
);
leftKerningGroup = S;
note = Sdotbelow;
rightKerningGroup = S;
unicode = 1E62;
},
{
glyphname = Germandbls;
lastChange = "2015-10-25 05:21:50 +0000";
layers = (
{
layerId = "63223F5B-13B6-47A7-8CD6-727EAFF9983D";
name = Light;
paths = (
{
closed = 1;
nodes = (
"486 -10 OFFCURVE",
"553 51 OFFCURVE",
"553 178 CURVE SMOOTH",
"553 286 OFFCURVE",
"497 347 OFFCURVE",
"375 347 CURVE SMOOTH",
"306 347 LINE",
"516 477 LINE",
"516 580 OFFCURVE",
"454 654 OFFCURVE",
"301 654 CURVE SMOOTH",
"158 654 OFFCURVE",
"75 588 OFFCURVE",
"75 453 CURVE SMOOTH",
"75 0 LINE",
"103 0 LINE",
"103 449 LINE SMOOTH",
"103 574 OFFCURVE",
"169 628 OFFCURVE",
"301 628 CURVE SMOOTH",
"442 628 OFFCURVE",
"488 567 OFFCURVE",
"488 488 CURVE",
"267 351 LINE",
"267 322 LINE",
"369 322 LINE SMOOTH",
"484 322 OFFCURVE",
"526 275 OFFCURVE",
"526 178 CURVE SMOOTH",
"526 66 OFFCURVE",
"469 15 OFFCURVE",
"361 15 CURVE SMOOTH",
"310 15 OFFCURVE",
"259 20 OFFCURVE",
"217 38 CURVE",
"217 12 LINE",
"256 -4 OFFCURVE",
"310 -10 OFFCURVE",
"361 -10 CURVE SMOOTH"
);
}
);
width = 613;
}
);
note = uni1E9E;
unicode = 1E9E;
},
{
glyphname = Schwa;
lastChange = "2015-10-25 05:21:51 +0000";
layers = (
{
layerId = "63223F5B-13B6-47A7-8CD6-727EAFF9983D";
name = Light;
paths = (
{
closed = 1;
nodes = (
"516 -10 OFFCURVE",
"595 113 OFFCURVE",
"595 317 CURVE SMOOTH",
"595 549 OFFCURVE",
"507 654 OFFCURVE",
"275 654 CURVE SMOOTH",
"218 654 OFFCURVE",
"154 642 OFFCURVE",
"103 622 CURVE",
"103 595 LINE",
"160 618 OFFCURVE",
"214 629 OFFCURVE",
"269 629 CURVE SMOOTH",
"493 629 OFFCURVE",
"564 530 OFFCURVE",
"568 343 CURVE",
"60 343 LINE",
"60 241 LINE SMOOTH",
"60 102 OFFCURVE",
"131 -10 OFFCURVE",
"310 -10 CURVE SMOOTH"
);
},
{
closed = 1;
nodes = (
"164 15 OFFCURVE",
"88 98 OFFCURVE",
"88 243 CURVE SMOOTH",
"88 317 LINE",
"568 317 LINE",
"568 125 OFFCURVE",
"494 15 OFFCURVE",
"310 15 CURVE SMOOTH"
);
}
);
width = 655;
}
);
note = uni018F;
unicode = 018F;
},
{
glyphname = T;
lastChange = "2015-10-25 05:21:49 +0000";
layers = (
{
layerId = "63223F5B-13B6-47A7-8CD6-727EAFF9983D";
name = Light;
paths = (
{
closed = 1;
nodes = (
"299 0 LINE",
"299 619 LINE",
"529 619 LINE",
"529 644 LINE",
"40 644 LINE",
"40 619 LINE",
"271 619 LINE",
"271 0 LINE"
);
}
);
width = 569;
}
);
leftKerningGroup = T;
note = T;
rightKerningGroup = T;
unicode = 0054;
},
{
glyphname = Tbar;
lastChange = "2015-10-25 05:21:50 +0000";
layers = (
{
layerId = "63223F5B-13B6-47A7-8CD6-727EAFF9983D";
name = Light;
paths = (
{
closed = 1;
nodes = (
"299 0 LINE",
"299 619 LINE",
"529 619 LINE",
"529 644 LINE",
"40 644 LINE",
"40 619 LINE",
"271 619 LINE",
"271 0 LINE"
);
},
{
closed = 1;
nodes = (
"459 347 LINE",
"459 372 LINE",
"105 372 LINE",
"105 347 LINE"
);
}
);
width = 569;
}
);
leftKerningGroup = T;
note = Tbar;
rightKerningGroup = T;
unicode = 0166;
},
{
glyphname = Tcaron;
lastChange = "2015-10-25 05:21:51 +0000";
layers = (
{
layerId = "63223F5B-13B6-47A7-8CD6-727EAFF9983D";
name = Light;
paths = (
{
closed = 1;
nodes = (
"299 0 LINE",
"299 619 LINE",
"529 619 LINE",
"529 644 LINE",
"40 644 LINE",
"40 619 LINE",
"271 619 LINE",
"271 0 LINE"
);
},
{
closed = 1;
nodes = (
"299 720 LINE",
"394 842 LINE",
"365 842 LINE",
"284 738 LINE",
"203 842 LINE",
"174 842 LINE",
"269 720 LINE"
);
}
);
width = 569;
}
);
leftKerningGroup = T;
note = Tcaron;
rightKerningGroup = T;
unicode = 0164;
},
{
glyphname = Tcedilla;
lastChange = "2015-10-25 05:21:51 +0000";
layers = (
{
layerId = "63223F5B-13B6-47A7-8CD6-727EAFF9983D";
name = Light;
paths = (
{
closed = 1;
nodes = (
"299 0 LINE",
"299 619 LINE",
"529 619 LINE",
"529 644 LINE",
"40 644 LINE",
"40 619 LINE",
"271 619 LINE",
"271 0 LINE"
);
},
{
closed = 1;
nodes = (
"360 -240 OFFCURVE",
"398 -204 OFFCURVE",
"398 -139 CURVE SMOOTH",
"398 -81 OFFCURVE",
"355 -53 OFFCURVE",
"280 -53 CURVE",
"299 0 LINE",
"271 0 LINE",
"244 -76 LINE",
"272 -76 LINE SMOOTH",
"339 -76 OFFCURVE",
"371 -93 OFFCURVE",
"371 -141 CURVE SMOOTH",
"371 -195 OFFCURVE",
"336 -215 OFFCURVE",
"264 -215 CURVE SMOOTH",
"241 -215 OFFCURVE",
"218 -212 OFFCURVE",
"200 -207 CURVE",
"200 -232 LINE",
"215 -236 OFFCURVE",
"242 -240 OFFCURVE",
"263 -240 CURVE SMOOTH"
);
}
);
width = 569;
}
);
leftKerningGroup = T;
note = Tcedilla;
rightKerningGroup = T;
unicode = 0162;
},
{
glyphname = Tcommaaccent;
lastChange = "2015-10-25 05:21:50 +0000";
layers = (
{
layerId = "63223F5B-13B6-47A7-8CD6-727EAFF9983D";
name = Light;
paths = (
{
closed = 1;
nodes = (
"299 0 LINE",
"299 619 LINE",
"529 619 LINE",
"529 644 LINE",
"40 644 LINE",
"40 619 LINE",
"271 619 LINE",
"271 0 LINE"
);
},
{
closed = 1;
nodes = (
"265 -190 LINE",
"300 -37 LINE",
"267 -37 LINE",
"243 -190 LINE"
);
}
);
width = 569;
}
);
leftKerningGroup = T;
note = Tcommaaccent;
rightKerningGroup = T;
unicode = 021A;
},
{
glyphname = Tdotbelow;
lastChange = "2015-10-25 05:21:51 +0000";
layers = (
{
layerId = "63223F5B-13B6-47A7-8CD6-727EAFF9983D";
name = Light;
paths = (
{
closed = 1;
nodes = (
"299 0 LINE",
"299 619 LINE",
"529 619 LINE",
"529 644 LINE",
"40 644 LINE",
"40 619 LINE",
"271 619 LINE",
"271 0 LINE"
);
},
{
closed = 1;
nodes = (
"303 -139 LINE",
"303 -102 LINE",
"266 -102 LINE",
"266 -139 LINE"
);
}
);
width = 569;
}
);
leftKerningGroup = T;
note = Tdotbelow;
rightKerningGroup = T;
unicode = 1E6C;
},
{
glyphname = Tlinebelow;
lastChange = "2015-10-25 05:21:51 +0000";
layers = (
{
layerId = "63223F5B-13B6-47A7-8CD6-727EAFF9983D";
name = Light;
paths = (
{
closed = 1;
nodes = (
"299 0 LINE",
"299 619 LINE",
"529 619 LINE",
"529 644 LINE",
"40 644 LINE",
"40 619 LINE",
"271 619 LINE",
"271 0 LINE"
);
},
{
closed = 1;
nodes = (
"418 -101 LINE",
"418 -76 LINE",
"151 -76 LINE",
"151 -101 LINE"
);
}
);
width = 569;
}
);
leftKerningGroup = T;
note = Tlinebelow;
rightKerningGroup = T;
unicode = 1E6E;
},
{
glyphname = U;
lastChange = "2015-10-25 05:21:49 +0000";
layers = (
{
layerId = "63223F5B-13B6-47A7-8CD6-727EAFF9983D";
name = Light;
paths = (
{
closed = 1;
nodes = (
"501 -10 OFFCURVE",
"581 74 OFFCURVE",
"581 231 CURVE SMOOTH",
"581 644 LINE",
"553 644 LINE",
"553 219 LINE SMOOTH",
"553 82 OFFCURVE",
"470 16 OFFCURVE",
"328 16 CURVE SMOOTH",
"186 16 OFFCURVE",
"103 82 OFFCURVE",
"103 219 CURVE SMOOTH",
"103 644 LINE",
"75 644 LINE",
"75 231 LINE SMOOTH",
"75 74 OFFCURVE",
"155 -10 OFFCURVE",
"328 -10 CURVE SMOOTH"
);
}
);
width = 656;
}
);
leftKerningGroup = U;
note = U;
rightKerningGroup = U;
unicode = 0055;
},
{
glyphname = Uacute;
lastChange = "2015-10-25 05:21:51 +0000";
layers = (
{
layerId = "63223F5B-13B6-47A7-8CD6-727EAFF9983D";
name = Light;
paths = (
{
closed = 1;
nodes = (
"501 -10 OFFCURVE",
"581 74 OFFCURVE",
"581 231 CURVE SMOOTH",
"581 644 LINE",
"553 644 LINE",
"553 219 LINE SMOOTH",
"553 82 OFFCURVE",
"470 16 OFFCURVE",
"328 16 CURVE SMOOTH",
"186 16 OFFCURVE",
"103 82 OFFCURVE",
"103 219 CURVE SMOOTH",
"103 644 LINE",
"75 644 LINE",
"75 231 LINE SMOOTH",
"75 74 OFFCURVE",
"155 -10 OFFCURVE",
"328 -10 CURVE SMOOTH"
);
},
{
closed = 1;
nodes = (
"332 688 LINE",
"402 837 LINE",
"372 837 LINE",
"309 688 LINE"
);
}
);
width = 656;
}
);
leftKerningGroup = U;
note = Uacute;
rightKerningGroup = U;
unicode = 00DA;
},
{
glyphname = Ubreve;
lastChange = "2015-10-25 05:21:51 +0000";
layers = (
{
layerId = "63223F5B-13B6-47A7-8CD6-727EAFF9983D";
name = Light;
paths = (
{
closed = 1;
nodes = (
"501 -10 OFFCURVE",
"581 74 OFFCURVE",
"581 231 CURVE SMOOTH",
"581 644 LINE",
"553 644 LINE",
"553 219 LINE SMOOTH",
"553 82 OFFCURVE",
"470 16 OFFCURVE",
"328 16 CURVE SMOOTH",
"186 16 OFFCURVE",
"103 82 OFFCURVE",
"103 219 CURVE SMOOTH",
"103 644 LINE",
"75 644 LINE",
"75 231 LINE SMOOTH",
"75 74 OFFCURVE",
"155 -10 OFFCURVE",
"328 -10 CURVE SMOOTH"
);
},
{
closed = 1;
nodes = (
"372 688 OFFCURVE",
"414 730 OFFCURVE",
"414 783 CURVE",
"389 783 LINE",
"389 743 OFFCURVE",
"359 713 OFFCURVE",
"318 713 CURVE SMOOTH",
"278 713 OFFCURVE",
"248 743 OFFCURVE",
"248 783 CURVE",
"223 783 LINE",
"223 730 OFFCURVE",
"265 688 OFFCURVE",
"318 688 CURVE SMOOTH"
);
}
);
width = 656;
}
);
leftKerningGroup = U;
note = Ubreve;
rightKerningGroup = U;
unicode = 016C;
},
{
glyphname = Ucaron;
lastChange = "2015-10-25 05:21:51 +0000";
layers = (
{
layerId = "63223F5B-13B6-47A7-8CD6-727EAFF9983D";
name = Light;
paths = (
{
closed = 1;
nodes = (
"501 -10 OFFCURVE",
"581 74 OFFCURVE",
"581 231 CURVE SMOOTH",
"581 644 LINE",
"553 644 LINE",
"553 219 LINE SMOOTH",
"553 82 OFFCURVE",
"470 16 OFFCURVE",
"328 16 CURVE SMOOTH",
"186 16 OFFCURVE",
"103 82 OFFCURVE",
"103 219 CURVE SMOOTH",
"103 644 LINE",
"75 644 LINE",
"75 231 LINE SMOOTH",
"75 74 OFFCURVE",
"155 -10 OFFCURVE",
"328 -10 CURVE SMOOTH"
);
},
{
closed = 1;
nodes = (
"343 688 LINE",
"438 810 LINE",
"409 810 LINE",
"328 706 LINE",
"247 810 LINE",
"218 810 LINE",
"313 688 LINE"
);
}
);
width = 656;
}
);
leftKerningGroup = U;
note = Ucaron;
rightKerningGroup = U;
unicode = 01D3;
},
{
glyphname = Ucircumflex;
lastChange = "2015-10-25 05:21:50 +0000";
layers = (
{
layerId = "63223F5B-13B6-47A7-8CD6-727EAFF9983D";
name = Light;
paths = (
{
closed = 1;
nodes = (
"501 -10 OFFCURVE",
"581 74 OFFCURVE",
"581 231 CURVE SMOOTH",
"581 644 LINE",
"553 644 LINE",
"553 219 LINE SMOOTH",
"553 82 OFFCURVE",
"470 16 OFFCURVE",
"328 16 CURVE SMOOTH",
"186 16 OFFCURVE",
"103 82 OFFCURVE",
"103 219 CURVE SMOOTH",
"103 644 LINE",
"75 644 LINE",
"75 231 LINE SMOOTH",
"75 74 OFFCURVE",
"155 -10 OFFCURVE",
"328 -10 CURVE SMOOTH"
);
},
{
closed = 1;
nodes = (
"247 688 LINE",
"328 792 LINE",
"409 688 LINE",
"438 688 LINE",
"343 810 LINE",
"313 810 LINE",
"218 688 LINE"
);
}
);
width = 656;
}
);
leftKerningGroup = U;
note = Ucircumflex;
rightKerningGroup = U;
unicode = 00DB;
},
{
glyphname = Udieresis;
lastChange = "2015-10-25 05:21:50 +0000";
layers = (
{
layerId = "63223F5B-13B6-47A7-8CD6-727EAFF9983D";
name = Light;
paths = (
{
closed = 1;
nodes = (
"501 -10 OFFCURVE",
"581 74 OFFCURVE",
"581 231 CURVE SMOOTH",
"581 644 LINE",
"553 644 LINE",
"553 219 LINE SMOOTH",
"553 82 OFFCURVE",
"470 16 OFFCURVE",
"328 16 CURVE SMOOTH",
"186 16 OFFCURVE",
"103 82 OFFCURVE",
"103 219 CURVE SMOOTH",
"103 644 LINE",
"75 644 LINE",
"75 231 LINE SMOOTH",
"75 74 OFFCURVE",
"155 -10 OFFCURVE",
"328 -10 CURVE SMOOTH"
);
},
{
closed = 1;
nodes = (
"267 718 LINE",
"267 753 LINE",
"232 753 LINE",
"232 718 LINE"
);
},
{
closed = 1;
nodes = (
"424 718 LINE",
"424 753 LINE",
"389 753 LINE",
"389 718 LINE"
);
}
);
width = 656;
}
);
leftKerningGroup = U;
note = Udieresis;
rightKerningGroup = U;
unicode = 00DC;
},
{
glyphname = Udieresisacute;
lastChange = "2015-10-25 05:21:50 +0000";
layers = (
{
layerId = "63223F5B-13B6-47A7-8CD6-727EAFF9983D";
name = Light;
paths = (
{
closed = 1;
nodes = (
"501 -10 OFFCURVE",
"581 74 OFFCURVE",
"581 231 CURVE SMOOTH",
"581 644 LINE",
"553 644 LINE",
"553 219 LINE SMOOTH",
"553 82 OFFCURVE",
"470 16 OFFCURVE",
"328 16 CURVE SMOOTH",
"186 16 OFFCURVE",
"103 82 OFFCURVE",
"103 219 CURVE SMOOTH",
"103 644 LINE",
"75 644 LINE",
"75 231 LINE SMOOTH",
"75 74 OFFCURVE",
"155 -10 OFFCURVE",
"328 -10 CURVE SMOOTH"
);
},
{
closed = 1;
nodes = (
"267 688 LINE",
"267 723 LINE",
"232 723 LINE",
"232 688 LINE"
);
},
{
closed = 1;
nodes = (
"424 688 LINE",
"424 723 LINE",
"389 723 LINE",
"389 688 LINE"
);
},
{
closed = 1;
nodes = (
"333 758 LINE",
"397 867 LINE",
"368 867 LINE",
"311 758 LINE"
);
}
);
width = 656;
}
);
leftKerningGroup = U;
note = Udieresisacute;
rightKerningGroup = U;
unicode = 01D7;
},
{
glyphname = Udieresiscaron;
lastChange = "2015-10-25 05:21:51 +0000";
layers = (
{
layerId = "63223F5B-13B6-47A7-8CD6-727EAFF9983D";
name = Light;
paths = (
{
closed = 1;
nodes = (
"501 -10 OFFCURVE",
"581 74 OFFCURVE",
"581 231 CURVE SMOOTH",
"581 644 LINE",
"553 644 LINE",
"553 219 LINE SMOOTH",
"553 82 OFFCURVE",
"470 16 OFFCURVE",
"328 16 CURVE SMOOTH",
"186 16 OFFCURVE",
"103 82 OFFCURVE",
"103 219 CURVE SMOOTH",
"103 644 LINE",
"75 644 LINE",
"75 231 LINE SMOOTH",
"75 74 OFFCURVE",
"155 -10 OFFCURVE",
"328 -10 CURVE SMOOTH"
);
},
{
closed = 1;
nodes = (
"267 688 LINE",
"267 723 LINE",
"232 723 LINE",
"232 688 LINE"
);
},
{
closed = 1;
nodes = (
"424 688 LINE",
"424 723 LINE",
"389 723 LINE",
"389 688 LINE"
);
},
{
closed = 1;
nodes = (
"343 758 LINE",
"438 860 LINE",
"409 860 LINE",
"328 774 LINE",
"247 860 LINE",
"218 860 LINE",
"313 758 LINE"
);
}
);
width = 656;
}
);
leftKerningGroup = U;
note = Udieresiscaron;
rightKerningGroup = U;
unicode = 01D9;
},
{
glyphname = Udieresisgrave;
lastChange = "2015-10-25 05:21:51 +0000";
layers = (
{
layerId = "63223F5B-13B6-47A7-8CD6-727EAFF9983D";
name = Light;
paths = (
{
closed = 1;
nodes = (
"501 -10 OFFCURVE",
"581 74 OFFCURVE",
"581 231 CURVE SMOOTH",
"581 644 LINE",
"553 644 LINE",
"553 219 LINE SMOOTH",
"553 82 OFFCURVE",
"470 16 OFFCURVE",
"328 16 CURVE SMOOTH",
"186 16 OFFCURVE",
"103 82 OFFCURVE",
"103 219 CURVE SMOOTH",
"103 644 LINE",
"75 644 LINE",
"75 231 LINE SMOOTH",
"75 74 OFFCURVE",
"155 -10 OFFCURVE",
"328 -10 CURVE SMOOTH"
);
},
{
closed = 1;
nodes = (
"267 688 LINE",
"267 723 LINE",
"232 723 LINE",
"232 688 LINE"
);
},
{
closed = 1;
nodes = (
"424 688 LINE",
"424 723 LINE",
"389 723 LINE",
"389 688 LINE"
);
},
{
closed = 1;
nodes = (
"345 758 LINE",
"288 867 LINE",
"259 867 LINE",
"323 758 LINE"
);
}
);
width = 656;
}
);
leftKerningGroup = U;
note = Udieresisgrave;
rightKerningGroup = U;
unicode = 01DB;
},
{
glyphname = Udieresismacron;
lastChange = "2015-10-25 05:21:51 +0000";
layers = (
{
layerId = "63223F5B-13B6-47A7-8CD6-727EAFF9983D";
name = Light;
paths = (
{
closed = 1;
nodes = (
"501 -10 OFFCURVE",
"581 74 OFFCURVE",
"581 231 CURVE SMOOTH",
"581 644 LINE",
"553 644 LINE",
"553 219 LINE SMOOTH",
"553 82 OFFCURVE",
"470 16 OFFCURVE",
"328 16 CURVE SMOOTH",
"186 16 OFFCURVE",
"103 82 OFFCURVE",
"103 219 CURVE SMOOTH",
"103 644 LINE",
"75 644 LINE",
"75 231 LINE SMOOTH",
"75 74 OFFCURVE",
"155 -10 OFFCURVE",
"328 -10 CURVE SMOOTH"
);
},
{
closed = 1;
nodes = (
"267 718 LINE",
"267 753 LINE",
"232 753 LINE",
"232 718 LINE"
);
},
{
closed = 1;
nodes = (
"424 718 LINE",
"424 753 LINE",
"389 753 LINE",
"389 718 LINE"
);
},
{
closed = 1;
nodes = (
"462 833 LINE",
"462 858 LINE",
"195 858 LINE",
"195 833 LINE"
);
}
);
width = 656;
}
);
leftKerningGroup = U;
note = Udieresismacron;
rightKerningGroup = U;
unicode = 01D5;
},
{
glyphname = Udotbelow;
lastChange = "2015-10-25 05:21:51 +0000";
layers = (
{
layerId = "63223F5B-13B6-47A7-8CD6-727EAFF9983D";
name = Light;
paths = (
{
closed = 1;
nodes = (
"501 -10 OFFCURVE",
"581 74 OFFCURVE",
"581 231 CURVE SMOOTH",
"581 644 LINE",
"553 644 LINE",
"553 219 LINE SMOOTH",
"553 82 OFFCURVE",
"470 16 OFFCURVE",
"328 16 CURVE SMOOTH",
"186 16 OFFCURVE",
"103 82 OFFCURVE",
"103 219 CURVE SMOOTH",
"103 644 LINE",
"75 644 LINE",
"75 231 LINE SMOOTH",
"75 74 OFFCURVE",
"155 -10 OFFCURVE",
"328 -10 CURVE SMOOTH"
);
},
{
closed = 1;
nodes = (
"347 -139 LINE",
"347 -102 LINE",
"310 -102 LINE",
"310 -139 LINE"
);
}
);
width = 656;
}
);
leftKerningGroup = U;
note = Udotbelow;
rightKerningGroup = U;
unicode = 1EE4;
},
{
glyphname = Ugrave;
lastChange = "2015-10-25 05:21:50 +0000";
layers = (
{
layerId = "63223F5B-13B6-47A7-8CD6-727EAFF9983D";
name = Light;
paths = (
{
closed = 1;
nodes = (
"501 -10 OFFCURVE",
"581 74 OFFCURVE",
"581 231 CURVE SMOOTH",
"581 644 LINE",
"553 644 LINE",
"553 219 LINE SMOOTH",
"553 82 OFFCURVE",
"470 16 OFFCURVE",
"328 16 CURVE SMOOTH",
"186 16 OFFCURVE",
"103 82 OFFCURVE",
"103 219 CURVE SMOOTH",
"103 644 LINE",
"75 644 LINE",
"75 231 LINE SMOOTH",
"75 74 OFFCURVE",
"155 -10 OFFCURVE",
"328 -10 CURVE SMOOTH"
);
},
{
closed = 1;
nodes = (
"363 688 LINE",
"300 837 LINE",
"270 837 LINE",
"340 688 LINE"
);
}
);
width = 656;
}
);
leftKerningGroup = U;
note = Ugrave;
rightKerningGroup = U;
unicode = 00D9;
},
{
glyphname = Uhookabove;
lastChange = "2015-10-25 05:21:51 +0000";
layers = (
{
layerId = "63223F5B-13B6-47A7-8CD6-727EAFF9983D";
name = Light;
paths = (
{
closed = 1;
nodes = (
"501 -10 OFFCURVE",
"581 74 OFFCURVE",
"581 231 CURVE SMOOTH",
"581 644 LINE",
"553 644 LINE",
"553 219 LINE SMOOTH",
"553 82 OFFCURVE",
"470 16 OFFCURVE",
"328 16 CURVE SMOOTH",
"186 16 OFFCURVE",
"103 82 OFFCURVE",
"103 219 CURVE SMOOTH",
"103 644 LINE",
"75 644 LINE",
"75 231 LINE SMOOTH",
"75 74 OFFCURVE",
"155 -10 OFFCURVE",
"328 -10 CURVE SMOOTH"
);
},
{
closed = 1;
nodes = (
"339 688 LINE",
"339 744 LINE",
"409 750 OFFCURVE",
"431 778 OFFCURVE",
"431 830 CURVE SMOOTH",
"431 885 OFFCURVE",
"393 915 OFFCURVE",
"320 915 CURVE SMOOTH",
"300 915 OFFCURVE",
"266 910 OFFCURVE",
"250 903 CURVE",
"250 878 LINE",
"268 885 OFFCURVE",
"297 890 OFFCURVE",
"319 890 CURVE SMOOTH",
"382 890 OFFCURVE",
"406 869 OFFCURVE",
"406 830 CURVE SMOOTH",
"406 789 OFFCURVE",
"393 767 OFFCURVE",
"311 763 CURVE",
"311 688 LINE"
);
}
);
width = 656;
}
);
leftKerningGroup = U;
note = Uhookabove;
rightKerningGroup = U;
unicode = 1EE6;
},
{
glyphname = Uhorn;
lastChange = "2015-10-25 05:21:50 +0000";
layers = (
{
layerId = "63223F5B-13B6-47A7-8CD6-727EAFF9983D";
name = Light;
paths = (
{
closed = 1;
nodes = (
"501 -10 OFFCURVE",
"581 74 OFFCURVE",
"581 231 CURVE SMOOTH",
"581 534 LINE",
"672 535 OFFCURVE",
"726 566 OFFCURVE",
"726 688 CURVE",
"701 688 LINE",
"701 589 OFFCURVE",
"667 559 OFFCURVE",
"581 559 CURVE",
"581 644 LINE",
"553 644 LINE",
"553 219 LINE SMOOTH",
"553 82 OFFCURVE",
"470 16 OFFCURVE",
"328 16 CURVE SMOOTH",
"186 16 OFFCURVE",
"103 82 OFFCURVE",
"103 219 CURVE SMOOTH",
"103 644 LINE",
"75 644 LINE",
"75 231 LINE SMOOTH",
"75 74 OFFCURVE",
"155 -10 OFFCURVE",
"328 -10 CURVE SMOOTH"
);
}
);
width = 766;
}
);
leftKerningGroup = U;
note = Uhorn;
rightKerningGroup = U;
unicode = 01AF;
},
{
glyphname = Uhornacute;
lastChange = "2015-10-25 05:21:50 +0000";
layers = (
{
layerId = "63223F5B-13B6-47A7-8CD6-727EAFF9983D";
name = Light;
paths = (
{
closed = 1;
nodes = (
"501 -10 OFFCURVE",
"581 74 OFFCURVE",
"581 231 CURVE SMOOTH",
"581 534 LINE",
"672 535 OFFCURVE",
"726 566 OFFCURVE",
"726 688 CURVE",
"701 688 LINE",
"701 589 OFFCURVE",
"667 559 OFFCURVE",
"581 559 CURVE",
"581 644 LINE",
"553 644 LINE",
"553 219 LINE SMOOTH",
"553 82 OFFCURVE",
"470 16 OFFCURVE",
"328 16 CURVE SMOOTH",
"186 16 OFFCURVE",
"103 82 OFFCURVE",
"103 219 CURVE SMOOTH",
"103 644 LINE",
"75 644 LINE",
"75 231 LINE SMOOTH",
"75 74 OFFCURVE",
"155 -10 OFFCURVE",
"328 -10 CURVE SMOOTH"
);
},
{
closed = 1;
nodes = (
"351 688 LINE",
"421 837 LINE",
"391 837 LINE",
"328 688 LINE"
);
}
);
width = 766;
}
);
leftKerningGroup = U;
note = Uhornacute;
rightKerningGroup = U;
unicode = 1EE8;
},
{
glyphname = Uhorndotbelow;
lastChange = "2015-10-25 05:21:50 +0000";
layers = (
{
layerId = "63223F5B-13B6-47A7-8CD6-727EAFF9983D";
name = Light;
paths = (
{
closed = 1;
nodes = (
"501 -10 OFFCURVE",
"581 74 OFFCURVE",
"581 231 CURVE SMOOTH",
"581 534 LINE",
"672 535 OFFCURVE",
"726 566 OFFCURVE",
"726 688 CURVE",
"701 688 LINE",
"701 589 OFFCURVE",
"667 559 OFFCURVE",
"581 559 CURVE",
"581 644 LINE",
"553 644 LINE",
"553 219 LINE SMOOTH",
"553 82 OFFCURVE",
"470 16 OFFCURVE",
"328 16 CURVE SMOOTH",
"186 16 OFFCURVE",
"103 82 OFFCURVE",
"103 219 CURVE SMOOTH",
"103 644 LINE",
"75 644 LINE",
"75 231 LINE SMOOTH",
"75 74 OFFCURVE",
"155 -10 OFFCURVE",
"328 -10 CURVE SMOOTH"
);
},
{
closed = 1;
nodes = (
"343 -139 LINE",
"343 -102 LINE",
"306 -102 LINE",
"306 -139 LINE"
);
}
);
width = 766;
}
);
leftKerningGroup = U;
note = Uhorndotbelow;
rightKerningGroup = U;
unicode = 1EF0;
},
{
glyphname = Uhorngrave;
lastChange = "2015-10-25 05:21:51 +0000";
layers = (
{
layerId = "63223F5B-13B6-47A7-8CD6-727EAFF9983D";
name = Light;
paths = (
{
closed = 1;
nodes = (
"501 -10 OFFCURVE",
"581 74 OFFCURVE",
"581 231 CURVE SMOOTH",
"581 534 LINE",
"672 535 OFFCURVE",
"726 566 OFFCURVE",
"726 688 CURVE",
"701 688 LINE",
"701 589 OFFCURVE",
"667 559 OFFCURVE",
"581 559 CURVE",
"581 644 LINE",
"553 644 LINE",
"553 219 LINE SMOOTH",
"553 82 OFFCURVE",
"470 16 OFFCURVE",
"328 16 CURVE SMOOTH",
"186 16 OFFCURVE",
"103 82 OFFCURVE",
"103 219 CURVE SMOOTH",
"103 644 LINE",
"75 644 LINE",
"75 231 LINE SMOOTH",
"75 74 OFFCURVE",
"155 -10 OFFCURVE",
"328 -10 CURVE SMOOTH"
);
},
{
closed = 1;
nodes = (
"350 688 LINE",
"287 837 LINE",
"257 837 LINE",
"327 688 LINE"
);
}
);
width = 766;
}
);
leftKerningGroup = U;
note = Uhorngrave;
rightKerningGroup = U;
unicode = 1EEA;
},
{
glyphname = Uhornhookabove;
lastChange = "2015-10-25 05:21:50 +0000";
layers = (
{
layerId = "63223F5B-13B6-47A7-8CD6-727EAFF9983D";
name = Light;
paths = (
{
closed = 1;
nodes = (
"501 -10 OFFCURVE",
"581 74 OFFCURVE",
"581 231 CURVE SMOOTH",
"581 534 LINE",
"672 535 OFFCURVE",
"726 566 OFFCURVE",
"726 688 CURVE",
"701 688 LINE",
"701 589 OFFCURVE",
"667 559 OFFCURVE",
"581 559 CURVE",
"581 644 LINE",
"553 644 LINE",
"553 219 LINE SMOOTH",
"553 82 OFFCURVE",
"470 16 OFFCURVE",
"328 16 CURVE SMOOTH",
"186 16 OFFCURVE",
"103 82 OFFCURVE",
"103 219 CURVE SMOOTH",
"103 644 LINE",
"75 644 LINE",
"75 231 LINE SMOOTH",
"75 74 OFFCURVE",
"155 -10 OFFCURVE",
"328 -10 CURVE SMOOTH"
);
},
{
closed = 1;
nodes = (
"350 688 LINE",
"350 744 LINE",
"420 750 OFFCURVE",
"442 778 OFFCURVE",
"442 830 CURVE SMOOTH",
"442 885 OFFCURVE",
"404 915 OFFCURVE",
"331 915 CURVE SMOOTH",
"311 915 OFFCURVE",
"277 910 OFFCURVE",
"261 903 CURVE",
"261 878 LINE",
"279 885 OFFCURVE",
"308 890 OFFCURVE",
"330 890 CURVE SMOOTH",
"393 890 OFFCURVE",
"417 869 OFFCURVE",
"417 830 CURVE SMOOTH",
"417 789 OFFCURVE",
"404 767 OFFCURVE",
"322 763 CURVE",
"322 688 LINE"
);
}
);
width = 766;
}
);
leftKerningGroup = U;
note = Uhornhookabove;
rightKerningGroup = U;
unicode = 1EEC;
},
{
glyphname = Uhorntilde;
lastChange = "2015-10-25 05:21:51 +0000";
layers = (
{
layerId = "63223F5B-13B6-47A7-8CD6-727EAFF9983D";
name = Light;
paths = (
{
closed = 1;
nodes = (
"501 -10 OFFCURVE",
"581 74 OFFCURVE",
"581 231 CURVE SMOOTH",
"581 534 LINE",
"672 535 OFFCURVE",
"726 566 OFFCURVE",
"726 688 CURVE",
"701 688 LINE",
"701 589 OFFCURVE",
"667 559 OFFCURVE",
"581 559 CURVE",
"581 644 LINE",
"553 644 LINE",
"553 219 LINE SMOOTH",
"553 82 OFFCURVE",
"470 16 OFFCURVE",
"328 16 CURVE SMOOTH",
"186 16 OFFCURVE",
"103 82 OFFCURVE",
"103 219 CURVE SMOOTH",
"103 644 LINE",
"75 644 LINE",
"75 231 LINE SMOOTH",
"75 74 OFFCURVE",
"155 -10 OFFCURVE",
"328 -10 CURVE SMOOTH"
);
},
{
closed = 1;
nodes = (
"422 718 OFFCURVE",
"443 728 OFFCURVE",
"456 746 CURVE",
"456 777 LINE",
"438 751 OFFCURVE",
"417 743 OFFCURVE",
"388 743 CURVE SMOOTH",
"345 743 OFFCURVE",
"316 779 OFFCURVE",
"267 779 CURVE SMOOTH",
"239 779 OFFCURVE",
"210 769 OFFCURVE",
"195 751 CURVE",
"195 720 LINE",
"217 747 OFFCURVE",
"242 754 OFFCURVE",
"270 754 CURVE SMOOTH",
"307 754 OFFCURVE",
"345 718 OFFCURVE",
"391 718 CURVE SMOOTH"
);
}
);
width = 766;
}
);
leftKerningGroup = U;
note = Uhorntilde;
rightKerningGroup = U;
unicode = 1EEE;
},
{
glyphname = Uhungarumlaut;
lastChange = "2015-10-25 05:21:51 +0000";
layers = (
{
layerId = "63223F5B-13B6-47A7-8CD6-727EAFF9983D";
name = Light;
paths = (
{
closed = 1;
nodes = (
"501 -10 OFFCURVE",
"581 74 OFFCURVE",
"581 231 CURVE SMOOTH",
"581 644 LINE",
"553 644 LINE",
"553 219 LINE SMOOTH",
"553 82 OFFCURVE",
"470 16 OFFCURVE",
"328 16 CURVE SMOOTH",
"186 16 OFFCURVE",
"103 82 OFFCURVE",
"103 219 CURVE SMOOTH",
"103 644 LINE",
"75 644 LINE",
"75 231 LINE SMOOTH",
"75 74 OFFCURVE",
"155 -10 OFFCURVE",
"328 -10 CURVE SMOOTH"
);
},
{
closed = 1;
nodes = (
"213 688 LINE",
"283 817 LINE",
"254 817 LINE",
"191 688 LINE"
);
},
{
closed = 1;
nodes = (
"405 688 LINE",
"475 817 LINE",
"446 817 LINE",
"383 688 LINE"
);
}
);
width = 656;
}
);
leftKerningGroup = U;
note = Uhungarumlaut;
rightKerningGroup = U;
unicode = 0170;
},
{
glyphname = Umacron;
lastChange = "2015-10-25 05:21:51 +0000";
layers = (
{
layerId = "63223F5B-13B6-47A7-8CD6-727EAFF9983D";
name = Light;
paths = (
{
closed = 1;
nodes = (
"501 -10 OFFCURVE",
"581 74 OFFCURVE",
"581 231 CURVE SMOOTH",
"581 644 LINE",
"553 644 LINE",
"553 219 LINE SMOOTH",
"553 82 OFFCURVE",
"470 16 OFFCURVE",
"328 16 CURVE SMOOTH",
"186 16 OFFCURVE",
"103 82 OFFCURVE",
"103 219 CURVE SMOOTH",
"103 644 LINE",
"75 644 LINE",
"75 231 LINE SMOOTH",
"75 74 OFFCURVE",
"155 -10 OFFCURVE",
"328 -10 CURVE SMOOTH"
);
},
{
closed = 1;
nodes = (
"462 718 LINE",
"462 743 LINE",
"195 743 LINE",
"195 718 LINE"
);
}
);
width = 656;
}
);
leftKerningGroup = U;
note = Umacron;
rightKerningGroup = U;
unicode = 016A;
},
{
glyphname = Uogonek;
lastChange = "2015-10-25 05:21:50 +0000";
layers = (
{
layerId = "63223F5B-13B6-47A7-8CD6-727EAFF9983D";
name = Light;
paths = (
{
closed = 1;
nodes = (
"501 -10 OFFCURVE",
"581 74 OFFCURVE",
"581 231 CURVE SMOOTH",
"581 644 LINE",
"553 644 LINE",
"553 219 LINE SMOOTH",
"553 82 OFFCURVE",
"470 16 OFFCURVE",
"328 16 CURVE SMOOTH",
"186 16 OFFCURVE",
"103 82 OFFCURVE",
"103 219 CURVE SMOOTH",
"103 644 LINE",
"75 644 LINE",
"75 231 LINE SMOOTH",
"75 74 OFFCURVE",
"155 -10 OFFCURVE",
"328 -10 CURVE SMOOTH"
);
},
{
closed = 1;
nodes = (
"354 -220 OFFCURVE",
"375 -217 OFFCURVE",
"389 -209 CURVE",
"389 -184 LINE",
"377 -191 OFFCURVE",
"356 -195 OFFCURVE",
"339 -195 CURVE SMOOTH",
"299 -195 OFFCURVE",
"283 -176 OFFCURVE",
"283 -135 CURVE SMOOTH",
"283 -88 OFFCURVE",
"307 -39 OFFCURVE",
"360 0 CURVE",
"332 0 LINE",
"291 -27 OFFCURVE",
"256 -80 OFFCURVE",
"256 -135 CURVE SMOOTH",
"256 -198 OFFCURVE",
"292 -220 OFFCURVE",
"339 -220 CURVE SMOOTH"
);
}
);
width = 656;
}
);
leftKerningGroup = U;
note = Uogonek;
rightKerningGroup = U;
unicode = 0172;
},
{
glyphname = Uring;
lastChange = "2015-10-25 05:21:50 +0000";
layers = (
{
layerId = "63223F5B-13B6-47A7-8CD6-727EAFF9983D";
name = Light;
paths = (
{
closed = 1;
nodes = (
"501 -10 OFFCURVE",
"581 74 OFFCURVE",
"581 231 CURVE SMOOTH",
"581 644 LINE",
"553 644 LINE",
"553 219 LINE SMOOTH",
"553 82 OFFCURVE",
"470 16 OFFCURVE",
"328 16 CURVE SMOOTH",
"186 16 OFFCURVE",
"103 82 OFFCURVE",
"103 219 CURVE SMOOTH",
"103 644 LINE",
"75 644 LINE",
"75 231 LINE SMOOTH",
"75 74 OFFCURVE",
"155 -10 OFFCURVE",
"328 -10 CURVE SMOOTH"
);
},
{
closed = 1;
nodes = (
"382 688 OFFCURVE",
"424 730 OFFCURVE",
"424 783 CURVE SMOOTH",
"424 837 OFFCURVE",
"382 879 OFFCURVE",
"328 879 CURVE SMOOTH",
"275 879 OFFCURVE",
"233 837 OFFCURVE",
"233 783 CURVE SMOOTH",
"233 730 OFFCURVE",
"275 688 OFFCURVE",
"328 688 CURVE SMOOTH"
);
},
{
closed = 1;
nodes = (
"288 713 OFFCURVE",
"258 743 OFFCURVE",
"258 783 CURVE SMOOTH",
"258 824 OFFCURVE",
"288 854 OFFCURVE",
"328 854 CURVE SMOOTH",
"369 854 OFFCURVE",
"399 824 OFFCURVE",
"399 783 CURVE SMOOTH",
"399 743 OFFCURVE",
"369 713 OFFCURVE",
"328 713 CURVE SMOOTH"
);
}
);
width = 656;
}
);
leftKerningGroup = U;
note = Uring;
rightKerningGroup = U;
unicode = 016E;
},
{
glyphname = Utilde;
lastChange = "2015-10-25 05:21:51 +0000";
layers = (
{
layerId = "63223F5B-13B6-47A7-8CD6-727EAFF9983D";
name = Light;
paths = (
{
closed = 1;
nodes = (
"501 -10 OFFCURVE",
"581 74 OFFCURVE",
"581 231 CURVE SMOOTH",
"581 644 LINE",
"553 644 LINE",
"553 219 LINE SMOOTH",
"553 82 OFFCURVE",
"470 16 OFFCURVE",
"328 16 CURVE SMOOTH",
"186 16 OFFCURVE",
"103 82 OFFCURVE",
"103 219 CURVE SMOOTH",
"103 644 LINE",
"75 644 LINE",
"75 231 LINE SMOOTH",
"75 74 OFFCURVE",
"155 -10 OFFCURVE",
"328 -10 CURVE SMOOTH"
);
},
{
closed = 1;
nodes = (
"425 718 OFFCURVE",
"446 728 OFFCURVE",
"459 746 CURVE",
"459 777 LINE",
"441 751 OFFCURVE",
"420 743 OFFCURVE",
"391 743 CURVE SMOOTH",
"348 743 OFFCURVE",
"319 779 OFFCURVE",
"270 779 CURVE SMOOTH",
"242 779 OFFCURVE",
"213 769 OFFCURVE",
"198 751 CURVE",
"198 720 LINE",
"220 747 OFFCURVE",
"245 754 OFFCURVE",
"273 754 CURVE SMOOTH",
"310 754 OFFCURVE",
"348 718 OFFCURVE",
"394 718 CURVE SMOOTH"
);
}
);
width = 656;
}
);
leftKerningGroup = U;
note = Utilde;
rightKerningGroup = U;
unicode = 0168;
},
{
glyphname = V;
lastChange = "2015-10-25 05:21:49 +0000";
layers = (
{
layerId = "63223F5B-13B6-47A7-8CD6-727EAFF9983D";
name = Light;
paths = (
{
closed = 1;
nodes = (
"348 0 LINE",
"590 644 LINE",
"561 644 LINE",
"325 16 LINE",
"89 644 LINE",
"60 644 LINE",
"303 0 LINE"
);
}
);
width = 650;
}
);
note = V;
unicode = 0056;
},
{
glyphname = W;
lastChange = "2015-10-25 05:21:49 +0000";
layers = (
{
layerId = "63223F5B-13B6-47A7-8CD6-727EAFF9983D";
name = Light;
paths = (
{
closed = 1;
nodes = (
"256 0 LINE",
"427 570 LINE",
"586 0 LINE",
"631 0 LINE",
"780 644 LINE",
"752 644 LINE",
"607 20 LINE",
"431 644 LINE",
"407 644 LINE",
"407 586 LINE",
"234 20 LINE",
"89 644 LINE",
"60 644 LINE",
"210 0 LINE"
);
}
);
width = 840;
}
);
leftKerningGroup = W;
note = W;
rightKerningGroup = W;
unicode = 0057;
},
{
glyphname = Wacute;
lastChange = "2015-10-25 05:21:50 +0000";
layers = (
{
layerId = "63223F5B-13B6-47A7-8CD6-727EAFF9983D";
name = Light;
paths = (
{
closed = 1;
nodes = (
"256 0 LINE",
"427 570 LINE",
"586 0 LINE",
"631 0 LINE",
"780 644 LINE",
"752 644 LINE",
"607 20 LINE",
"431 644 LINE",
"407 644 LINE",
"407 586 LINE",
"234 20 LINE",
"89 644 LINE",
"60 644 LINE",
"210 0 LINE"
);
},
{
closed = 1;
nodes = (
"444 688 LINE",
"514 837 LINE",
"484 837 LINE",
"421 688 LINE"
);
}
);
width = 840;
}
);
leftKerningGroup = W;
note = Wacute;
rightKerningGroup = W;
unicode = 1E82;
},
{
glyphname = Wcircumflex;
lastChange = "2015-10-25 05:21:50 +0000";
layers = (
{
layerId = "63223F5B-13B6-47A7-8CD6-727EAFF9983D";
name = Light;
paths = (
{
closed = 1;
nodes = (
"256 0 LINE",
"427 570 LINE",
"586 0 LINE",
"631 0 LINE",
"780 644 LINE",
"752 644 LINE",
"607 20 LINE",
"431 644 LINE",
"407 644 LINE",
"407 586 LINE",
"234 20 LINE",
"89 644 LINE",
"60 644 LINE",
"210 0 LINE"
);
},
{
closed = 1;
nodes = (
"346 688 LINE",
"427 792 LINE",
"508 688 LINE",
"537 688 LINE",
"442 810 LINE",
"412 810 LINE",
"317 688 LINE"
);
}
);
width = 840;
}
);
leftKerningGroup = W;
note = Wcircumflex;
rightKerningGroup = W;
unicode = 0174;
},
{
glyphname = Wdieresis;
lastChange = "2015-10-25 05:21:50 +0000";
layers = (
{
layerId = "63223F5B-13B6-47A7-8CD6-727EAFF9983D";
name = Light;
paths = (
{
closed = 1;
nodes = (
"256 0 LINE",
"427 570 LINE",
"586 0 LINE",
"631 0 LINE",
"780 644 LINE",
"752 644 LINE",
"607 20 LINE",
"431 644 LINE",
"407 644 LINE",
"407 586 LINE",
"234 20 LINE",
"89 644 LINE",
"60 644 LINE",
"210 0 LINE"
);
},
{
closed = 1;
nodes = (
"366 718 LINE",
"366 753 LINE",
"331 753 LINE",
"331 718 LINE"
);
},
{
closed = 1;
nodes = (
"523 718 LINE",
"523 753 LINE",
"488 753 LINE",
"488 718 LINE"
);
}
);
width = 840;
}
);
leftKerningGroup = W;
note = Wdieresis;
rightKerningGroup = W;
unicode = 1E84;
},
{
glyphname = Wgrave;
lastChange = "2015-10-25 05:21:51 +0000";
layers = (
{
layerId = "63223F5B-13B6-47A7-8CD6-727EAFF9983D";
name = Light;
paths = (
{
closed = 1;
nodes = (
"256 0 LINE",
"427 570 LINE",
"586 0 LINE",
"631 0 LINE",
"780 644 LINE",
"752 644 LINE",
"607 20 LINE",
"431 644 LINE",
"407 644 LINE",
"407 586 LINE",
"234 20 LINE",
"89 644 LINE",
"60 644 LINE",
"210 0 LINE"
);
},
{
closed = 1;
nodes = (
"432 688 LINE",
"369 837 LINE",
"339 837 LINE",
"409 688 LINE"
);
}
);
width = 840;
}
);
leftKerningGroup = W;
note = Wgrave;
rightKerningGroup = W;
unicode = 1E80;
},
{
glyphname = X;
lastChange = "2015-10-25 05:21:49 +0000";
layers = (
{
layerId = "63223F5B-13B6-47A7-8CD6-727EAFF9983D";
name = Light;
paths = (
{
closed = 1;
nodes = (
"89 0 LINE",
"298 299 LINE",
"507 0 LINE",
"536 0 LINE",
"314 317 LINE",
"536 644 LINE",
"507 644 LINE",
"298 333 LINE",
"89 644 LINE",
"60 644 LINE",
"281 317 LINE",
"60 0 LINE"
);
}
);
width = 596;
}
);
note = X;
unicode = 0058;
},
{
glyphname = Y;
lastChange = "2015-10-25 05:21:49 +0000";
layers = (
{
layerId = "63223F5B-13B6-47A7-8CD6-727EAFF9983D";
name = Light;
paths = (
{
closed = 1;
nodes = (
"317 0 LINE",
"317 242 LINE",
"546 644 LINE",
"517 644 LINE",
"303 268 LINE",
"89 644 LINE",
"60 644 LINE",
"289 242 LINE",
"289 0 LINE"
);
}
);
width = 606;
}
);
leftKerningGroup = Y;
note = Y;
rightKerningGroup = Y;
unicode = 0059;
},
{
glyphname = Yacute;
lastChange = "2015-10-25 05:21:50 +0000";
layers = (
{
layerId = "63223F5B-13B6-47A7-8CD6-727EAFF9983D";
name = Light;
paths = (
{
closed = 1;
nodes = (
"317 0 LINE",
"317 242 LINE",
"546 644 LINE",
"517 644 LINE",
"303 268 LINE",
"89 644 LINE",
"60 644 LINE",
"289 242 LINE",
"289 0 LINE"
);
},
{
closed = 1;
nodes = (
"300 688 LINE",
"370 837 LINE",
"340 837 LINE",
"277 688 LINE"
);
}
);
width = 606;
}
);
leftKerningGroup = Y;
note = Yacute;
rightKerningGroup = Y;
unicode = 00DD;
},
{
glyphname = Ycircumflex;
lastChange = "2015-10-25 05:21:51 +0000";
layers = (
{
layerId = "63223F5B-13B6-47A7-8CD6-727EAFF9983D";
name = Light;
paths = (
{
closed = 1;
nodes = (
"317 0 LINE",
"317 242 LINE",
"546 644 LINE",
"517 644 LINE",
"303 268 LINE",
"89 644 LINE",
"60 644 LINE",
"289 242 LINE",
"289 0 LINE"
);
},
{
closed = 1;
nodes = (
"222 688 LINE",
"303 792 LINE",
"384 688 LINE",
"413 688 LINE",
"318 810 LINE",
"288 810 LINE",
"193 688 LINE"
);
}
);
width = 606;
}
);
leftKerningGroup = Y;
note = Ycircumflex;
rightKerningGroup = Y;
unicode = 0176;
},
{
glyphname = Ydieresis;
lastChange = "2015-10-25 05:21:51 +0000";
layers = (
{
layerId = "63223F5B-13B6-47A7-8CD6-727EAFF9983D";
name = Light;
paths = (
{
closed = 1;
nodes = (
"317 0 LINE",
"317 242 LINE",
"546 644 LINE",
"517 644 LINE",
"303 268 LINE",
"89 644 LINE",
"60 644 LINE",
"289 242 LINE",
"289 0 LINE"
);
},
{
closed = 1;
nodes = (
"242 718 LINE",
"242 753 LINE",
"207 753 LINE",
"207 718 LINE"
);
},
{
closed = 1;
nodes = (
"399 718 LINE",
"399 753 LINE",
"364 753 LINE",
"364 718 LINE"
);
}
);
width = 606;
}
);
leftKerningGroup = Y;
note = Ydieresis;
rightKerningGroup = Y;
unicode = 0178;
},
{
glyphname = Ydotaccent;
lastChange = "2015-10-25 05:21:51 +0000";
layers = (
{
layerId = "63223F5B-13B6-47A7-8CD6-727EAFF9983D";
name = Light;
paths = (
{
closed = 1;
nodes = (
"317 0 LINE",
"317 242 LINE",
"546 644 LINE",
"517 644 LINE",
"303 268 LINE",
"89 644 LINE",
"60 644 LINE",
"289 242 LINE",
"289 0 LINE"
);
},
{
closed = 1;
nodes = (
"321 718 LINE",
"321 753 LINE",
"286 753 LINE",
"286 718 LINE"
);
}
);
width = 606;
}
);
leftKerningGroup = Y;
note = Ydotaccent;
rightKerningGroup = Y;
unicode = 1E8E;
},
{
glyphname = Ydotbelow;
lastChange = "2015-10-25 05:21:51 +0000";
layers = (
{
layerId = "63223F5B-13B6-47A7-8CD6-727EAFF9983D";
name = Light;
paths = (
{
closed = 1;
nodes = (
"317 0 LINE",
"317 242 LINE",
"546 644 LINE",
"517 644 LINE",
"303 268 LINE",
"89 644 LINE",
"60 644 LINE",
"289 242 LINE",
"289 0 LINE"
);
},
{
closed = 1;
nodes = (
"322 -119 LINE",
"322 -82 LINE",
"285 -82 LINE",
"285 -119 LINE"
);
}
);
width = 606;
}
);
leftKerningGroup = Y;
note = Ydotbelow;
rightKerningGroup = Y;
unicode = 1EF4;
},
{
glyphname = Ygrave;
lastChange = "2015-10-25 05:21:51 +0000";
layers = (
{
layerId = "63223F5B-13B6-47A7-8CD6-727EAFF9983D";
name = Light;
paths = (
{
closed = 1;
nodes = (
"317 0 LINE",
"317 242 LINE",
"546 644 LINE",
"517 644 LINE",
"303 268 LINE",
"89 644 LINE",
"60 644 LINE",
"289 242 LINE",
"289 0 LINE"
);
},
{
closed = 1;
nodes = (
"330 688 LINE",
"267 837 LINE",
"237 837 LINE",
"307 688 LINE"
);
}
);
width = 606;
}
);
leftKerningGroup = Y;
note = Ygrave;
rightKerningGroup = Y;
unicode = 1EF2;
},
{
glyphname = Yhookabove;
lastChange = "2015-10-25 05:21:50 +0000";
layers = (
{
layerId = "63223F5B-13B6-47A7-8CD6-727EAFF9983D";
name = Light;
paths = (
{
closed = 1;
nodes = (
"317 0 LINE",
"317 242 LINE",
"546 644 LINE",
"517 644 LINE",
"303 268 LINE",
"89 644 LINE",
"60 644 LINE",
"289 242 LINE",
"289 0 LINE"
);
},
{
closed = 1;
nodes = (
"304 688 LINE",
"304 744 LINE",
"374 750 OFFCURVE",
"396 778 OFFCURVE",
"396 830 CURVE SMOOTH",
"396 885 OFFCURVE",
"358 915 OFFCURVE",
"285 915 CURVE SMOOTH",
"265 915 OFFCURVE",
"231 910 OFFCURVE",
"215 903 CURVE",
"215 878 LINE",
"233 885 OFFCURVE",
"262 890 OFFCURVE",
"284 890 CURVE SMOOTH",
"347 890 OFFCURVE",
"371 869 OFFCURVE",
"371 830 CURVE SMOOTH",
"371 789 OFFCURVE",
"358 767 OFFCURVE",
"276 763 CURVE",
"276 688 LINE"
);
}
);
width = 606;
}
);
leftKerningGroup = Y;
note = Yhookabove;
rightKerningGroup = Y;
unicode = 1EF6;
},
{
glyphname = Ytilde;
lastChange = "2015-10-25 05:21:51 +0000";
layers = (
{
layerId = "63223F5B-13B6-47A7-8CD6-727EAFF9983D";
name = Light;
paths = (
{
closed = 1;
nodes = (
"317 0 LINE",
"317 242 LINE",
"546 644 LINE",
"517 644 LINE",
"303 268 LINE",
"89 644 LINE",
"60 644 LINE",
"289 242 LINE",
"289 0 LINE"
);
},
{
closed = 1;
nodes = (
"400 718 OFFCURVE",
"421 728 OFFCURVE",
"434 746 CURVE",
"434 777 LINE",
"416 751 OFFCURVE",
"395 743 OFFCURVE",
"366 743 CURVE SMOOTH",
"323 743 OFFCURVE",
"294 779 OFFCURVE",
"245 779 CURVE SMOOTH",
"217 779 OFFCURVE",
"188 769 OFFCURVE",
"173 751 CURVE",
"173 720 LINE",
"195 747 OFFCURVE",
"220 754 OFFCURVE",
"248 754 CURVE SMOOTH",
"285 754 OFFCURVE",
"323 718 OFFCURVE",
"369 718 CURVE SMOOTH"
);
}
);
width = 606;
}
);
leftKerningGroup = Y;
note = Ytilde;
rightKerningGroup = Y;
unicode = 1EF8;
},
{
glyphname = Z;
lastChange = "2015-10-25 05:21:49 +0000";
layers = (
{
layerId = "63223F5B-13B6-47A7-8CD6-727EAFF9983D";
name = Light;
paths = (
{
closed = 1;
nodes = (
"509 0 LINE",
"509 25 LINE",
"95 25 LINE",
"504 618 LINE",
"504 644 LINE",
"77 644 LINE",
"77 619 LINE",
"472 619 LINE",
"60 22 LINE",
"60 0 LINE"
);
}
);
width = 564;
}
);
leftKerningGroup = Z;
note = Z;
rightKerningGroup = Z;
unicode = 005A;
},
{
glyphname = Zacute;
lastChange = "2015-10-25 05:21:50 +0000";
layers = (
{
layerId = "63223F5B-13B6-47A7-8CD6-727EAFF9983D";
name = Light;
paths = (
{
closed = 1;
nodes = (
"509 0 LINE",
"509 25 LINE",
"95 25 LINE",
"504 618 LINE",
"504 644 LINE",
"77 644 LINE",
"77 619 LINE",
"472 619 LINE",
"60 22 LINE",
"60 0 LINE"
);
},
{
closed = 1;
nodes = (
"323 688 LINE",
"393 837 LINE",
"363 837 LINE",
"300 688 LINE"
);
}
);
width = 564;
}
);
leftKerningGroup = Z;
note = Zacute;
rightKerningGroup = Z;
unicode = 0179;
},
{
glyphname = Zcaron;
lastChange = "2015-10-25 05:21:51 +0000";
layers = (
{
layerId = "63223F5B-13B6-47A7-8CD6-727EAFF9983D";
name = Light;
paths = (
{
closed = 1;
nodes = (
"509 0 LINE",
"509 25 LINE",
"95 25 LINE",
"504 618 LINE",
"504 644 LINE",
"77 644 LINE",
"77 619 LINE",
"472 619 LINE",
"60 22 LINE",
"60 0 LINE"
);
},
{
closed = 1;
nodes = (
"328 688 LINE",
"423 810 LINE",
"394 810 LINE",
"313 706 LINE",
"232 810 LINE",
"203 810 LINE",
"298 688 LINE"
);
}
);
width = 564;
}
);
leftKerningGroup = Z;
note = Zcaron;
rightKerningGroup = Z;
unicode = 017D;
},
{
glyphname = Zdotaccent;
lastChange = "2015-10-25 05:21:50 +0000";
layers = (
{
layerId = "63223F5B-13B6-47A7-8CD6-727EAFF9983D";
name = Light;
paths = (
{
closed = 1;
nodes = (
"509 0 LINE",
"509 25 LINE",
"95 25 LINE",
"504 618 LINE",
"504 644 LINE",
"77 644 LINE",
"77 619 LINE",
"472 619 LINE",
"60 22 LINE",
"60 0 LINE"
);
},
{
closed = 1;
nodes = (
"323 718 LINE",
"323 753 LINE",
"288 753 LINE",
"288 718 LINE"
);
}
);
width = 564;
}
);
leftKerningGroup = Z;
note = Zdotaccent;
rightKerningGroup = Z;
unicode = 017B;
},
{
glyphname = Zdotbelow;
lastChange = "2015-10-25 05:21:51 +0000";
layers = (
{
layerId = "63223F5B-13B6-47A7-8CD6-727EAFF9983D";
name = Light;
paths = (
{
closed = 1;
nodes = (
"509 0 LINE",
"509 25 LINE",
"95 25 LINE",
"504 618 LINE",
"504 644 LINE",
"77 644 LINE",
"77 619 LINE",
"472 619 LINE",
"60 22 LINE",
"60 0 LINE"
);
},
{
closed = 1;
nodes = (
"324 -139 LINE",
"324 -102 LINE",
"287 -102 LINE",
"287 -139 LINE"
);
}
);
width = 564;
}
);
leftKerningGroup = Z;
note = Zdotbelow;
rightKerningGroup = Z;
unicode = 1E92;
},
{
glyphname = a;
lastChange = "2015-10-25 05:21:51 +0000";
layers = (
{
layerId = "63223F5B-13B6-47A7-8CD6-727EAFF9983D";
name = Light;
paths = (
{
closed = 1;
nodes = (
"316 -10 OFFCURVE",
"375 14 OFFCURVE",
"421 65 CURVE",
"425 0 LINE",
"447 0 LINE",
"447 319 LINE SMOOTH",
"447 438 OFFCURVE",
"392 484 OFFCURVE",
"267 484 CURVE SMOOTH",
"208 484 OFFCURVE",
"153 476 OFFCURVE",
"113 460 CURVE",
"113 434 LINE",
"157 450 OFFCURVE",
"204 459 OFFCURVE",
"258 459 CURVE SMOOTH",
"388 459 OFFCURVE",
"419 419 OFFCURVE",
"419 317 CURVE SMOOTH",
"419 256 LINE",
"230 256 LINE SMOOTH",
"102 256 OFFCURVE",
"60 201 OFFCURVE",
"60 120 CURVE SMOOTH",
"60 26 OFFCURVE",
"134 -10 OFFCURVE",
"224 -10 CURVE SMOOTH"
);
},
{
closed = 1;
nodes = (
"143 15 OFFCURVE",
"87 45 OFFCURVE",
"87 120 CURVE SMOOTH",
"87 191 OFFCURVE",
"119 230 OFFCURVE",
"232 230 CURVE SMOOTH",
"419 230 LINE",
"419 95 LINE",
"372 39 OFFCURVE",
"314 15 OFFCURVE",
"231 15 CURVE SMOOTH"
);
}
);
width = 522;
}
);
leftKerningGroup = a;
note = a;
rightKerningGroup = a;
unicode = 0061;
},
{
glyphname = aacute;
lastChange = "2015-11-24 07:53:00 +0000";
layers = (
{
layerId = "63223F5B-13B6-47A7-8CD6-727EAFF9983D";
name = Light;
paths = (
{
closed = 1;
nodes = (
"316 -10 OFFCURVE",
"375 14 OFFCURVE",
"421 65 CURVE",
"425 0 LINE",
"447 0 LINE",
"447 319 LINE SMOOTH",
"447 438 OFFCURVE",
"392 484 OFFCURVE",
"267 484 CURVE SMOOTH",
"208 484 OFFCURVE",
"153 476 OFFCURVE",
"113 460 CURVE",
"113 434 LINE",
"157 450 OFFCURVE",
"204 459 OFFCURVE",
"258 459 CURVE SMOOTH",
"388 459 OFFCURVE",
"419 419 OFFCURVE",
"419 317 CURVE SMOOTH",
"419 256 LINE",
"230 256 LINE SMOOTH",
"102 256 OFFCURVE",
"60 201 OFFCURVE",
"60 120 CURVE SMOOTH",
"60 26 OFFCURVE",
"134 -10 OFFCURVE",
"224 -10 CURVE SMOOTH"
);
},
{
closed = 1;
nodes = (
"143 15 OFFCURVE",
"87 45 OFFCURVE",
"87 120 CURVE SMOOTH",
"87 191 OFFCURVE",
"119 230 OFFCURVE",
"232 230 CURVE SMOOTH",
"419 230 LINE",
"419 95 LINE",
"372 39 OFFCURVE",
"314 15 OFFCURVE",
"231 15 CURVE SMOOTH"
);
},
{
closed = 1;
nodes = (
"284 522 LINE",
"354 671 LINE",
"324 671 LINE",
"261 522 LINE"
);
}
);
width = 522;
}
);
leftKerningGroup = a;
note = aacute;
rightKerningGroup = a;
unicode = 00E1;
},
{
glyphname = abreve;
lastChange = "2015-10-25 05:21:50 +0000";
layers = (
{
layerId = "63223F5B-13B6-47A7-8CD6-727EAFF9983D";
name = Light;
paths = (
{
closed = 1;
nodes = (
"316 -10 OFFCURVE",
"375 14 OFFCURVE",
"421 65 CURVE",
"425 0 LINE",
"447 0 LINE",
"447 319 LINE SMOOTH",
"447 438 OFFCURVE",
"392 484 OFFCURVE",
"267 484 CURVE SMOOTH",
"208 484 OFFCURVE",
"153 476 OFFCURVE",
"113 460 CURVE",
"113 434 LINE",
"157 450 OFFCURVE",
"204 459 OFFCURVE",
"258 459 CURVE SMOOTH",
"388 459 OFFCURVE",
"419 419 OFFCURVE",
"419 317 CURVE SMOOTH",
"419 256 LINE",
"230 256 LINE SMOOTH",
"102 256 OFFCURVE",
"60 201 OFFCURVE",
"60 120 CURVE SMOOTH",
"60 26 OFFCURVE",
"134 -10 OFFCURVE",
"224 -10 CURVE SMOOTH"
);
},
{
closed = 1;
nodes = (
"143 15 OFFCURVE",
"87 45 OFFCURVE",
"87 120 CURVE SMOOTH",
"87 191 OFFCURVE",
"119 230 OFFCURVE",
"232 230 CURVE SMOOTH",
"419 230 LINE",
"419 95 LINE",
"372 39 OFFCURVE",
"314 15 OFFCURVE",
"231 15 CURVE SMOOTH"
);
},
{
closed = 1;
nodes = (
"342 522 OFFCURVE",
"384 564 OFFCURVE",
"384 617 CURVE",
"359 617 LINE",
"359 577 OFFCURVE",
"329 547 OFFCURVE",
"288 547 CURVE SMOOTH",
"248 547 OFFCURVE",
"218 577 OFFCURVE",
"218 617 CURVE",
"193 617 LINE",
"193 564 OFFCURVE",
"235 522 OFFCURVE",
"288 522 CURVE SMOOTH"
);
}
);
width = 522;
}
);
leftKerningGroup = a;
note = abreve;
rightKerningGroup = a;
unicode = 0103;
},
{
glyphname = abreveacute;
lastChange = "2015-10-25 05:21:50 +0000";
layers = (
{
layerId = "63223F5B-13B6-47A7-8CD6-727EAFF9983D";
name = Light;
paths = (
{
closed = 1;
nodes = (
"316 -10 OFFCURVE",
"375 14 OFFCURVE",
"421 65 CURVE",
"425 0 LINE",
"447 0 LINE",
"447 319 LINE SMOOTH",
"447 438 OFFCURVE",
"392 484 OFFCURVE",
"267 484 CURVE SMOOTH",
"208 484 OFFCURVE",
"153 476 OFFCURVE",
"113 460 CURVE",
"113 434 LINE",
"157 450 OFFCURVE",
"204 459 OFFCURVE",
"258 459 CURVE SMOOTH",
"388 459 OFFCURVE",
"419 419 OFFCURVE",
"419 317 CURVE SMOOTH",
"419 256 LINE",
"230 256 LINE SMOOTH",
"102 256 OFFCURVE",
"60 201 OFFCURVE",
"60 120 CURVE SMOOTH",
"60 26 OFFCURVE",
"134 -10 OFFCURVE",
"224 -10 CURVE SMOOTH"
);
},
{
closed = 1;
nodes = (
"143 15 OFFCURVE",
"87 45 OFFCURVE",
"87 120 CURVE SMOOTH",
"87 191 OFFCURVE",
"119 230 OFFCURVE",
"232 230 CURVE SMOOTH",
"419 230 LINE",
"419 95 LINE",
"372 39 OFFCURVE",
"314 15 OFFCURVE",
"231 15 CURVE SMOOTH"
);
},
{
closed = 1;
nodes = (
"352 522 OFFCURVE",
"416 554 OFFCURVE",
"416 646 CURVE",
"391 646 LINE",
"391 577 OFFCURVE",
"347 547 OFFCURVE",
"286 547 CURVE SMOOTH",
"225 547 OFFCURVE",
"181 577 OFFCURVE",
"181 646 CURVE",
"156 646 LINE",
"156 554 OFFCURVE",
"220 522 OFFCURVE",
"286 522 CURVE SMOOTH"
);
},
{
closed = 1;
nodes = (
"284 614 LINE",
"348 723 LINE",
"319 723 LINE",
"262 614 LINE"
);
}
);
width = 522;
}
);
leftKerningGroup = a;
note = abreveacute;
rightKerningGroup = a;
unicode = 1EAF;
},
{
glyphname = abrevedotbelow;
lastChange = "2015-11-24 07:53:07 +0000";
layers = (
{
layerId = "63223F5B-13B6-47A7-8CD6-727EAFF9983D";
name = Light;
paths = (
{
closed = 1;
nodes = (
"316 -10 OFFCURVE",
"375 14 OFFCURVE",
"421 65 CURVE",
"425 0 LINE",
"447 0 LINE",
"447 319 LINE SMOOTH",
"447 438 OFFCURVE",
"392 484 OFFCURVE",
"267 484 CURVE SMOOTH",
"208 484 OFFCURVE",
"153 476 OFFCURVE",
"113 460 CURVE",
"113 434 LINE",
"157 450 OFFCURVE",
"204 459 OFFCURVE",
"258 459 CURVE SMOOTH",
"388 459 OFFCURVE",
"419 419 OFFCURVE",
"419 317 CURVE SMOOTH",
"419 256 LINE",
"230 256 LINE SMOOTH",
"102 256 OFFCURVE",
"60 201 OFFCURVE",
"60 120 CURVE SMOOTH",
"60 26 OFFCURVE",
"134 -10 OFFCURVE",
"224 -10 CURVE SMOOTH"
);
},
{
closed = 1;
nodes = (
"143 15 OFFCURVE",
"87 45 OFFCURVE",
"87 120 CURVE SMOOTH",
"87 191 OFFCURVE",
"119 230 OFFCURVE",
"232 230 CURVE SMOOTH",
"419 230 LINE",
"419 95 LINE",
"372 39 OFFCURVE",
"314 15 OFFCURVE",
"231 15 CURVE SMOOTH"
);
},
{
closed = 1;
nodes = (
"334 522 OFFCURVE",
"376 564 OFFCURVE",
"376 617 CURVE",
"351 617 LINE",
"351 577 OFFCURVE",
"321 547 OFFCURVE",
"280 547 CURVE SMOOTH",
"240 547 OFFCURVE",
"210 577 OFFCURVE",
"210 617 CURVE",
"185 617 LINE",
"185 564 OFFCURVE",
"227 522 OFFCURVE",
"280 522 CURVE SMOOTH"
);
},
{
closed = 1;
nodes = (
"300 -139 LINE",
"300 -102 LINE",
"263 -102 LINE",
"263 -139 LINE"
);
}
);
width = 522;
}
);
leftKerningGroup = a;
note = abrevedotbelow;
rightKerningGroup = a;
unicode = 1EB7;
},
{
glyphname = abrevegrave;
lastChange = "2015-11-24 07:53:24 +0000";
layers = (
{
layerId = "63223F5B-13B6-47A7-8CD6-727EAFF9983D";
name = Light;
paths = (
{
closed = 1;
nodes = (
"316 -10 OFFCURVE",
"375 14 OFFCURVE",
"421 65 CURVE",
"425 0 LINE",
"447 0 LINE",
"447 319 LINE SMOOTH",
"447 438 OFFCURVE",
"392 484 OFFCURVE",
"267 484 CURVE SMOOTH",
"208 484 OFFCURVE",
"153 476 OFFCURVE",
"113 460 CURVE",
"113 434 LINE",
"157 450 OFFCURVE",
"204 459 OFFCURVE",
"258 459 CURVE SMOOTH",
"388 459 OFFCURVE",
"419 419 OFFCURVE",
"419 317 CURVE SMOOTH",
"419 256 LINE",
"230 256 LINE SMOOTH",
"102 256 OFFCURVE",
"60 201 OFFCURVE",
"60 120 CURVE SMOOTH",
"60 26 OFFCURVE",
"134 -10 OFFCURVE",
"224 -10 CURVE SMOOTH"
);
},
{
closed = 1;
nodes = (
"143 15 OFFCURVE",
"87 45 OFFCURVE",
"87 120 CURVE SMOOTH",
"87 191 OFFCURVE",
"119 230 OFFCURVE",
"232 230 CURVE SMOOTH",
"419 230 LINE",
"419 95 LINE",
"372 39 OFFCURVE",
"314 15 OFFCURVE",
"231 15 CURVE SMOOTH"
);
},
{
closed = 1;
nodes = (
"338 522 OFFCURVE",
"402 554 OFFCURVE",
"402 646 CURVE",
"377 646 LINE",
"377 577 OFFCURVE",
"333 547 OFFCURVE",
"272 547 CURVE SMOOTH",
"211 547 OFFCURVE",
"167 577 OFFCURVE",
"167 646 CURVE",
"142 646 LINE",
"142 554 OFFCURVE",
"206 522 OFFCURVE",
"272 522 CURVE SMOOTH"
);
},
{
closed = 1;
nodes = (
"296 614 LINE",
"239 723 LINE",
"210 723 LINE",
"274 614 LINE"
);
}
);
width = 522;
}
);
leftKerningGroup = a;
note = abrevegrave;
rightKerningGroup = a;
unicode = 1EB1;
},
{
glyphname = abrevehookabove;
lastChange = "2015-11-24 07:53:20 +0000";
layers = (
{
layerId = "63223F5B-13B6-47A7-8CD6-727EAFF9983D";
name = Light;
paths = (
{
closed = 1;
nodes = (
"316 -10 OFFCURVE",
"375 14 OFFCURVE",
"421 65 CURVE",
"425 0 LINE",
"447 0 LINE",
"447 319 LINE SMOOTH",
"447 438 OFFCURVE",
"392 484 OFFCURVE",
"267 484 CURVE SMOOTH",
"208 484 OFFCURVE",
"153 476 OFFCURVE",
"113 460 CURVE",
"113 434 LINE",
"157 450 OFFCURVE",
"204 459 OFFCURVE",
"258 459 CURVE SMOOTH",
"388 459 OFFCURVE",
"419 419 OFFCURVE",
"419 317 CURVE SMOOTH",
"419 256 LINE",
"230 256 LINE SMOOTH",
"102 256 OFFCURVE",
"60 201 OFFCURVE",
"60 120 CURVE SMOOTH",
"60 26 OFFCURVE",
"134 -10 OFFCURVE",
"224 -10 CURVE SMOOTH"
);
},
{
closed = 1;
nodes = (
"143 15 OFFCURVE",
"87 45 OFFCURVE",
"87 120 CURVE SMOOTH",
"87 191 OFFCURVE",
"119 230 OFFCURVE",
"232 230 CURVE SMOOTH",
"419 230 LINE",
"419 95 LINE",
"372 39 OFFCURVE",
"314 15 OFFCURVE",
"231 15 CURVE SMOOTH"
);
},
{
closed = 1;
nodes = (
"334 522 OFFCURVE",
"398 554 OFFCURVE",
"398 646 CURVE",
"373 646 LINE",
"373 577 OFFCURVE",
"329 547 OFFCURVE",
"268 547 CURVE SMOOTH",
"207 547 OFFCURVE",
"163 577 OFFCURVE",
"163 646 CURVE",
"138 646 LINE",
"138 554 OFFCURVE",
"202 522 OFFCURVE",
"268 522 CURVE SMOOTH"
);
},
{
closed = 1;
nodes = (
"264 593 LINE",
"264 630 LINE",
"322 636 OFFCURVE",
"346 657 OFFCURVE",
"346 699 CURVE SMOOTH",
"346 744 OFFCURVE",
"315 768 OFFCURVE",
"265 768 CURVE SMOOTH",
"241 768 OFFCURVE",
"221 763 OFFCURVE",
"205 756 CURVE",
"205 731 LINE",
"223 739 OFFCURVE",
"241 744 OFFCURVE",
"265 744 CURVE SMOOTH",
"303 744 OFFCURVE",
"321 728 OFFCURVE",
"321 699 CURVE SMOOTH",
"321 668 OFFCURVE",
"308 653 OFFCURVE",
"236 649 CURVE",
"236 593 LINE"
);
}
);
width = 522;
}
);
leftKerningGroup = a;
note = abrevehookabove;
rightKerningGroup = a;
unicode = 1EB3;
},
{
glyphname = abrevetilde;
lastChange = "2015-11-24 07:53:14 +0000";
layers = (
{
layerId = "63223F5B-13B6-47A7-8CD6-727EAFF9983D";
name = Light;
paths = (
{
closed = 1;
nodes = (
"316 -10 OFFCURVE",
"375 14 OFFCURVE",
"421 65 CURVE",
"425 0 LINE",
"447 0 LINE",
"447 319 LINE SMOOTH",
"447 438 OFFCURVE",
"392 484 OFFCURVE",
"267 484 CURVE SMOOTH",
"208 484 OFFCURVE",
"153 476 OFFCURVE",
"113 460 CURVE",
"113 434 LINE",
"157 450 OFFCURVE",
"204 459 OFFCURVE",
"258 459 CURVE SMOOTH",
"388 459 OFFCURVE",
"419 419 OFFCURVE",
"419 317 CURVE SMOOTH",
"419 256 LINE",
"230 256 LINE SMOOTH",
"102 256 OFFCURVE",
"60 201 OFFCURVE",
"60 120 CURVE SMOOTH",
"60 26 OFFCURVE",
"134 -10 OFFCURVE",
"224 -10 CURVE SMOOTH"
);
},
{
closed = 1;
nodes = (
"143 15 OFFCURVE",
"87 45 OFFCURVE",
"87 120 CURVE SMOOTH",
"87 191 OFFCURVE",
"119 230 OFFCURVE",
"232 230 CURVE SMOOTH",
"419 230 LINE",
"419 95 LINE",
"372 39 OFFCURVE",
"314 15 OFFCURVE",
"231 15 CURVE SMOOTH"
);
},
{
closed = 1;
nodes = (
"337 522 OFFCURVE",
"401 554 OFFCURVE",
"401 646 CURVE",
"376 646 LINE",
"376 577 OFFCURVE",
"332 547 OFFCURVE",
"271 547 CURVE SMOOTH",
"210 547 OFFCURVE",
"166 577 OFFCURVE",
"166 646 CURVE",
"141 646 LINE",
"141 554 OFFCURVE",
"205 522 OFFCURVE",
"271 522 CURVE SMOOTH"
);
},
{
closed = 1;
nodes = (
"166 708 OFFCURVE",
"188 714 OFFCURVE",
"216 714 CURVE SMOOTH",
"253 714 OFFCURVE",
"280 682 OFFCURVE",
"326 682 CURVE SMOOTH",
"355 682 OFFCURVE",
"380 691 OFFCURVE",
"396 708 CURVE",
"396 739 LINE",
"373 713 OFFCURVE",
"351 707 OFFCURVE",
"323 707 CURVE SMOOTH",
"280 707 OFFCURVE",
"262 739 OFFCURVE",
"213 739 CURVE SMOOTH",
"184 739 OFFCURVE",
"159 730 OFFCURVE",
"143 713 CURVE",
"143 682 LINE"
);
}
);
width = 522;
}
);
leftKerningGroup = a;
note = abrevetilde;
rightKerningGroup = a;
unicode = 1EB5;
},
{
glyphname = acaron;
lastChange = "2015-10-25 05:21:51 +0000";
layers = (
{
layerId = "63223F5B-13B6-47A7-8CD6-727EAFF9983D";
name = Light;
paths = (
{
closed = 1;
nodes = (
"316 -10 OFFCURVE",
"375 14 OFFCURVE",
"421 65 CURVE",
"425 0 LINE",
"447 0 LINE",
"447 319 LINE SMOOTH",
"447 438 OFFCURVE",
"392 484 OFFCURVE",
"267 484 CURVE SMOOTH",
"208 484 OFFCURVE",
"153 476 OFFCURVE",
"113 460 CURVE",
"113 434 LINE",
"157 450 OFFCURVE",
"204 459 OFFCURVE",
"258 459 CURVE SMOOTH",
"388 459 OFFCURVE",
"419 419 OFFCURVE",
"419 317 CURVE SMOOTH",
"419 256 LINE",
"230 256 LINE SMOOTH",
"102 256 OFFCURVE",
"60 201 OFFCURVE",
"60 120 CURVE SMOOTH",
"60 26 OFFCURVE",
"134 -10 OFFCURVE",
"224 -10 CURVE SMOOTH"
);
},
{
closed = 1;
nodes = (
"143 15 OFFCURVE",
"87 45 OFFCURVE",
"87 120 CURVE SMOOTH",
"87 191 OFFCURVE",
"119 230 OFFCURVE",
"232 230 CURVE SMOOTH",
"419 230 LINE",
"419 95 LINE",
"372 39 OFFCURVE",
"314 15 OFFCURVE",
"231 15 CURVE SMOOTH"
);
},
{
closed = 1;
nodes = (
"289 522 LINE",
"384 644 LINE",
"355 644 LINE",
"274 540 LINE",
"193 644 LINE",
"164 644 LINE",
"259 522 LINE"
);
}
);
width = 522;
}
);
leftKerningGroup = a;
note = acaron;
rightKerningGroup = a;
unicode = 01CE;
},
{
glyphname = acircumflex;
lastChange = "2015-10-25 05:21:51 +0000";
layers = (
{
layerId = "63223F5B-13B6-47A7-8CD6-727EAFF9983D";
name = Light;
paths = (
{
closed = 1;
nodes = (
"316 -10 OFFCURVE",
"375 14 OFFCURVE",
"421 65 CURVE",
"425 0 LINE",
"447 0 LINE",
"447 319 LINE SMOOTH",
"447 438 OFFCURVE",
"392 484 OFFCURVE",
"267 484 CURVE SMOOTH",
"208 484 OFFCURVE",
"153 476 OFFCURVE",
"113 460 CURVE",
"113 434 LINE",
"157 450 OFFCURVE",
"204 459 OFFCURVE",
"258 459 CURVE SMOOTH",
"388 459 OFFCURVE",
"419 419 OFFCURVE",
"419 317 CURVE SMOOTH",
"419 256 LINE",
"230 256 LINE SMOOTH",
"102 256 OFFCURVE",
"60 201 OFFCURVE",
"60 120 CURVE SMOOTH",
"60 26 OFFCURVE",
"134 -10 OFFCURVE",
"224 -10 CURVE SMOOTH"
);
},
{
closed = 1;
nodes = (
"143 15 OFFCURVE",
"87 45 OFFCURVE",
"87 120 CURVE SMOOTH",
"87 191 OFFCURVE",
"119 230 OFFCURVE",
"232 230 CURVE SMOOTH",
"419 230 LINE",
"419 95 LINE",
"372 39 OFFCURVE",
"314 15 OFFCURVE",
"231 15 CURVE SMOOTH"
);
},
{
closed = 1;
nodes = (
"194 522 LINE",
"275 626 LINE",
"356 522 LINE",
"385 522 LINE",
"290 644 LINE",
"260 644 LINE",
"165 522 LINE"
);
}
);
width = 522;
}
);
leftKerningGroup = a;
note = acircumflex;
rightKerningGroup = a;
unicode = 00E2;
},
{
glyphname = acircumflexacute;
lastChange = "2015-10-25 05:21:51 +0000";
layers = (
{
layerId = "63223F5B-13B6-47A7-8CD6-727EAFF9983D";
name = Light;
paths = (
{
closed = 1;
nodes = (
"316 -10 OFFCURVE",
"375 14 OFFCURVE",
"421 65 CURVE",
"425 0 LINE",
"447 0 LINE",
"447 319 LINE SMOOTH",
"447 438 OFFCURVE",
"392 484 OFFCURVE",
"267 484 CURVE SMOOTH",
"208 484 OFFCURVE",
"153 476 OFFCURVE",
"113 460 CURVE",
"113 434 LINE",
"157 450 OFFCURVE",
"204 459 OFFCURVE",
"258 459 CURVE SMOOTH",
"388 459 OFFCURVE",
"419 419 OFFCURVE",
"419 317 CURVE SMOOTH",
"419 256 LINE",
"230 256 LINE SMOOTH",
"102 256 OFFCURVE",
"60 201 OFFCURVE",
"60 120 CURVE SMOOTH",
"60 26 OFFCURVE",
"134 -10 OFFCURVE",
"224 -10 CURVE SMOOTH"
);
},
{
closed = 1;
nodes = (
"143 15 OFFCURVE",
"87 45 OFFCURVE",
"87 120 CURVE SMOOTH",
"87 191 OFFCURVE",
"119 230 OFFCURVE",
"232 230 CURVE SMOOTH",
"419 230 LINE",
"419 95 LINE",
"372 39 OFFCURVE",
"314 15 OFFCURVE",
"231 15 CURVE SMOOTH"
);
},
{
closed = 1;
nodes = (
"202 522 LINE",
"283 608 LINE",
"364 522 LINE",
"393 522 LINE",
"298 624 LINE",
"268 624 LINE",
"173 522 LINE"
);
},
{
closed = 1;
nodes = (
"364 624 LINE",
"428 733 LINE",
"399 733 LINE",
"342 624 LINE"
);
}
);
width = 522;
}
);
leftKerningGroup = a;
note = acircumflexacute;
rightKerningGroup = a;
unicode = 1EA5;
},
{
glyphname = acircumflexdotbelow;
lastChange = "2015-11-24 07:53:32 +0000";
layers = (
{
layerId = "63223F5B-13B6-47A7-8CD6-727EAFF9983D";
name = Light;
paths = (
{
closed = 1;
nodes = (
"316 -10 OFFCURVE",
"375 14 OFFCURVE",
"421 65 CURVE",
"425 0 LINE",
"447 0 LINE",
"447 319 LINE SMOOTH",
"447 438 OFFCURVE",
"392 484 OFFCURVE",
"267 484 CURVE SMOOTH",
"208 484 OFFCURVE",
"153 476 OFFCURVE",
"113 460 CURVE",
"113 434 LINE",
"157 450 OFFCURVE",
"204 459 OFFCURVE",
"258 459 CURVE SMOOTH",
"388 459 OFFCURVE",
"419 419 OFFCURVE",
"419 317 CURVE SMOOTH",
"419 256 LINE",
"230 256 LINE SMOOTH",
"102 256 OFFCURVE",
"60 201 OFFCURVE",
"60 120 CURVE SMOOTH",
"60 26 OFFCURVE",
"134 -10 OFFCURVE",
"224 -10 CURVE SMOOTH"
);
},
{
closed = 1;
nodes = (
"143 15 OFFCURVE",
"87 45 OFFCURVE",
"87 120 CURVE SMOOTH",
"87 191 OFFCURVE",
"119 230 OFFCURVE",
"232 230 CURVE SMOOTH",
"419 230 LINE",
"419 95 LINE",
"372 39 OFFCURVE",
"314 15 OFFCURVE",
"231 15 CURVE SMOOTH"
);
},
{
closed = 1;
nodes = (
"197 522 LINE",
"278 626 LINE",
"359 522 LINE",
"388 522 LINE",
"293 644 LINE",
"263 644 LINE",
"168 522 LINE"
);
},
{
closed = 1;
nodes = (
"298 -139 LINE",
"298 -102 LINE",
"261 -102 LINE",
"261 -139 LINE"
);
}
);
width = 522;
}
);
leftKerningGroup = a;
note = acircumflexdotbelow;
rightKerningGroup = a;
unicode = 1EAD;
},
{
glyphname = acircumflexgrave;
lastChange = "2015-10-25 05:21:51 +0000";
layers = (
{
layerId = "63223F5B-13B6-47A7-8CD6-727EAFF9983D";
name = Light;
paths = (
{
closed = 1;
nodes = (
"316 -10 OFFCURVE",
"375 14 OFFCURVE",
"421 65 CURVE",
"425 0 LINE",
"447 0 LINE",
"447 319 LINE SMOOTH",
"447 438 OFFCURVE",
"392 484 OFFCURVE",
"267 484 CURVE SMOOTH",
"208 484 OFFCURVE",
"153 476 OFFCURVE",
"113 460 CURVE",
"113 434 LINE",
"157 450 OFFCURVE",
"204 459 OFFCURVE",
"258 459 CURVE SMOOTH",
"388 459 OFFCURVE",
"419 419 OFFCURVE",
"419 317 CURVE SMOOTH",
"419 256 LINE",
"230 256 LINE SMOOTH",
"102 256 OFFCURVE",
"60 201 OFFCURVE",
"60 120 CURVE SMOOTH",
"60 26 OFFCURVE",
"134 -10 OFFCURVE",
"224 -10 CURVE SMOOTH"
);
},
{
closed = 1;
nodes = (
"143 15 OFFCURVE",
"87 45 OFFCURVE",
"87 120 CURVE SMOOTH",
"87 191 OFFCURVE",
"119 230 OFFCURVE",
"232 230 CURVE SMOOTH",
"419 230 LINE",
"419 95 LINE",
"372 39 OFFCURVE",
"314 15 OFFCURVE",
"231 15 CURVE SMOOTH"
);
},
{
closed = 1;
nodes = (
"201 522 LINE",
"282 608 LINE",
"363 522 LINE",
"392 522 LINE",
"297 624 LINE",
"267 624 LINE",
"172 522 LINE"
);
},
{
closed = 1;
nodes = (
"223 624 LINE",
"166 733 LINE",
"137 733 LINE",
"201 624 LINE"
);
}
);
width = 522;
}
);
leftKerningGroup = a;
note = acircumflexgrave;
rightKerningGroup = a;
unicode = 1EA7;
},
{
glyphname = acircumflexhookabove;
lastChange = "2015-11-24 07:53:48 +0000";
layers = (
{
layerId = "63223F5B-13B6-47A7-8CD6-727EAFF9983D";
name = Light;
paths = (
{
closed = 1;
nodes = (
"316 -10 OFFCURVE",
"375 14 OFFCURVE",
"421 65 CURVE",
"425 0 LINE",
"447 0 LINE",
"447 319 LINE SMOOTH",
"447 438 OFFCURVE",
"392 484 OFFCURVE",
"267 484 CURVE SMOOTH",
"208 484 OFFCURVE",
"153 476 OFFCURVE",
"113 460 CURVE",
"113 434 LINE",
"157 450 OFFCURVE",
"204 459 OFFCURVE",
"258 459 CURVE SMOOTH",
"388 459 OFFCURVE",
"419 419 OFFCURVE",
"419 317 CURVE SMOOTH",
"419 256 LINE",
"230 256 LINE SMOOTH",
"102 256 OFFCURVE",
"60 201 OFFCURVE",
"60 120 CURVE SMOOTH",
"60 26 OFFCURVE",
"134 -10 OFFCURVE",
"224 -10 CURVE SMOOTH"
);
},
{
closed = 1;
nodes = (
"143 15 OFFCURVE",
"87 45 OFFCURVE",
"87 120 CURVE SMOOTH",
"87 191 OFFCURVE",
"119 230 OFFCURVE",
"232 230 CURVE SMOOTH",
"419 230 LINE",
"419 95 LINE",
"372 39 OFFCURVE",
"314 15 OFFCURVE",
"231 15 CURVE SMOOTH"
);
},
{
closed = 1;
nodes = (
"196 522 LINE",
"277 608 LINE",
"358 522 LINE",
"387 522 LINE",
"292 624 LINE",
"262 624 LINE",
"167 522 LINE"
);
},
{
closed = 1;
nodes = (
"371 603 LINE",
"371 640 LINE",
"429 646 OFFCURVE",
"453 667 OFFCURVE",
"453 709 CURVE SMOOTH",
"453 754 OFFCURVE",
"422 778 OFFCURVE",
"372 778 CURVE SMOOTH",
"348 778 OFFCURVE",
"328 773 OFFCURVE",
"312 766 CURVE",
"312 741 LINE",
"330 749 OFFCURVE",
"348 754 OFFCURVE",
"372 754 CURVE SMOOTH",
"410 754 OFFCURVE",
"428 738 OFFCURVE",
"428 709 CURVE SMOOTH",
"428 678 OFFCURVE",
"415 663 OFFCURVE",
"343 659 CURVE",
"343 603 LINE"
);
}
);
width = 522;
}
);
leftKerningGroup = a;
note = acircumflexhookabove;
rightKerningGroup = a;
unicode = 1EA9;
},
{
glyphname = acircumflextilde;
lastChange = "2015-10-25 05:21:50 +0000";
layers = (
{
layerId = "63223F5B-13B6-47A7-8CD6-727EAFF9983D";
name = Light;
paths = (
{
closed = 1;
nodes = (
"316 -10 OFFCURVE",
"375 14 OFFCURVE",
"421 65 CURVE",
"425 0 LINE",
"447 0 LINE",
"447 319 LINE SMOOTH",
"447 438 OFFCURVE",
"392 484 OFFCURVE",
"267 484 CURVE SMOOTH",
"208 484 OFFCURVE",
"153 476 OFFCURVE",
"113 460 CURVE",
"113 434 LINE",
"157 450 OFFCURVE",
"204 459 OFFCURVE",
"258 459 CURVE SMOOTH",
"388 459 OFFCURVE",
"419 419 OFFCURVE",
"419 317 CURVE SMOOTH",
"419 256 LINE",
"230 256 LINE SMOOTH",
"102 256 OFFCURVE",
"60 201 OFFCURVE",
"60 120 CURVE SMOOTH",
"60 26 OFFCURVE",
"134 -10 OFFCURVE",
"224 -10 CURVE SMOOTH"
);
},
{
closed = 1;
nodes = (
"143 15 OFFCURVE",
"87 45 OFFCURVE",
"87 120 CURVE SMOOTH",
"87 191 OFFCURVE",
"119 230 OFFCURVE",
"232 230 CURVE SMOOTH",
"419 230 LINE",
"419 95 LINE",
"372 39 OFFCURVE",
"314 15 OFFCURVE",
"231 15 CURVE SMOOTH"
);
},
{
closed = 1;
nodes = (
"200 522 LINE",
"281 608 LINE",
"362 522 LINE",
"391 522 LINE",
"296 624 LINE",
"266 624 LINE",
"171 522 LINE"
);
},
{
closed = 1;
nodes = (
"180 663 OFFCURVE",
"202 669 OFFCURVE",
"230 669 CURVE SMOOTH",
"267 669 OFFCURVE",
"294 637 OFFCURVE",
"340 637 CURVE SMOOTH",
"369 637 OFFCURVE",
"394 646 OFFCURVE",
"410 663 CURVE",
"410 694 LINE",
"387 668 OFFCURVE",
"365 662 OFFCURVE",
"337 662 CURVE SMOOTH",
"294 662 OFFCURVE",
"276 694 OFFCURVE",
"227 694 CURVE SMOOTH",
"198 694 OFFCURVE",
"173 685 OFFCURVE",
"157 668 CURVE",
"157 637 LINE"
);
}
);
width = 522;
}
);
leftKerningGroup = a;
note = acircumflextilde;
rightKerningGroup = a;
unicode = 1EAB;
},
{
glyphname = adieresis;
lastChange = "2015-10-25 05:21:51 +0000";
layers = (
{
layerId = "63223F5B-13B6-47A7-8CD6-727EAFF9983D";
name = Light;
paths = (
{
closed = 1;
nodes = (
"316 -10 OFFCURVE",
"375 14 OFFCURVE",
"421 65 CURVE",
"425 0 LINE",
"447 0 LINE",
"447 319 LINE SMOOTH",
"447 438 OFFCURVE",
"392 484 OFFCURVE",
"267 484 CURVE SMOOTH",
"208 484 OFFCURVE",
"153 476 OFFCURVE",
"113 460 CURVE",
"113 434 LINE",
"157 450 OFFCURVE",
"204 459 OFFCURVE",
"258 459 CURVE SMOOTH",
"388 459 OFFCURVE",
"419 419 OFFCURVE",
"419 317 CURVE SMOOTH",
"419 256 LINE",
"230 256 LINE SMOOTH",
"102 256 OFFCURVE",
"60 201 OFFCURVE",
"60 120 CURVE SMOOTH",
"60 26 OFFCURVE",
"134 -10 OFFCURVE",
"224 -10 CURVE SMOOTH"
);
},
{
closed = 1;
nodes = (
"143 15 OFFCURVE",
"87 45 OFFCURVE",
"87 120 CURVE SMOOTH",
"87 191 OFFCURVE",
"119 230 OFFCURVE",
"232 230 CURVE SMOOTH",
"419 230 LINE",
"419 95 LINE",
"372 39 OFFCURVE",
"314 15 OFFCURVE",
"231 15 CURVE SMOOTH"
);
},
{
closed = 1;
nodes = (
"218 552 LINE",
"218 587 LINE",
"183 587 LINE",
"183 552 LINE"
);
},
{
closed = 1;
nodes = (
"375 552 LINE",
"375 587 LINE",
"340 587 LINE",
"340 552 LINE"
);
}
);
width = 522;
}
);
leftKerningGroup = a;
note = adieresis;
rightKerningGroup = a;
unicode = 00E4;
},
{
glyphname = adotbelow;
lastChange = "2015-11-24 07:54:10 +0000";
layers = (
{
layerId = "63223F5B-13B6-47A7-8CD6-727EAFF9983D";
name = Light;
paths = (
{
closed = 1;
nodes = (
"316 -10 OFFCURVE",
"375 14 OFFCURVE",
"421 65 CURVE",
"425 0 LINE",
"447 0 LINE",
"447 319 LINE SMOOTH",
"447 438 OFFCURVE",
"392 484 OFFCURVE",
"267 484 CURVE SMOOTH",
"208 484 OFFCURVE",
"153 476 OFFCURVE",
"113 460 CURVE",
"113 434 LINE",
"157 450 OFFCURVE",
"204 459 OFFCURVE",
"258 459 CURVE SMOOTH",
"388 459 OFFCURVE",
"419 419 OFFCURVE",
"419 317 CURVE SMOOTH",
"419 256 LINE",
"230 256 LINE SMOOTH",
"102 256 OFFCURVE",
"60 201 OFFCURVE",
"60 120 CURVE SMOOTH",
"60 26 OFFCURVE",
"134 -10 OFFCURVE",
"224 -10 CURVE SMOOTH"
);
},
{
closed = 1;
nodes = (
"143 15 OFFCURVE",
"87 45 OFFCURVE",
"87 120 CURVE SMOOTH",
"87 191 OFFCURVE",
"119 230 OFFCURVE",
"232 230 CURVE SMOOTH",
"419 230 LINE",
"419 95 LINE",
"372 39 OFFCURVE",
"314 15 OFFCURVE",
"231 15 CURVE SMOOTH"
);
},
{
closed = 1;
nodes = (
"298 -139 LINE",
"298 -102 LINE",
"261 -102 LINE",
"261 -139 LINE"
);
}
);
width = 522;
}
);
leftKerningGroup = a;
note = adotbelow;
rightKerningGroup = a;
unicode = 1EA1;
},
{
glyphname = agrave;
lastChange = "2015-10-25 05:21:50 +0000";
layers = (
{
layerId = "63223F5B-13B6-47A7-8CD6-727EAFF9983D";
name = Light;
paths = (
{
closed = 1;
nodes = (
"316 -10 OFFCURVE",
"375 14 OFFCURVE",
"421 65 CURVE",
"425 0 LINE",
"447 0 LINE",
"447 319 LINE SMOOTH",
"447 438 OFFCURVE",
"392 484 OFFCURVE",
"267 484 CURVE SMOOTH",
"208 484 OFFCURVE",
"153 476 OFFCURVE",
"113 460 CURVE",
"113 434 LINE",
"157 450 OFFCURVE",
"204 459 OFFCURVE",
"258 459 CURVE SMOOTH",
"388 459 OFFCURVE",
"419 419 OFFCURVE",
"419 317 CURVE SMOOTH",
"419 256 LINE",
"230 256 LINE SMOOTH",
"102 256 OFFCURVE",
"60 201 OFFCURVE",
"60 120 CURVE SMOOTH",
"60 26 OFFCURVE",
"134 -10 OFFCURVE",
"224 -10 CURVE SMOOTH"
);
},
{
closed = 1;
nodes = (
"143 15 OFFCURVE",
"87 45 OFFCURVE",
"87 120 CURVE SMOOTH",
"87 191 OFFCURVE",
"119 230 OFFCURVE",
"232 230 CURVE SMOOTH",
"419 230 LINE",
"419 95 LINE",
"372 39 OFFCURVE",
"314 15 OFFCURVE",
"231 15 CURVE SMOOTH"
);
},
{
closed = 1;
nodes = (
"300 522 LINE",
"237 671 LINE",
"207 671 LINE",
"277 522 LINE"
);
}
);
width = 522;
}
);
leftKerningGroup = a;
note = agrave;
rightKerningGroup = a;
unicode = 00E0;
},
{
glyphname = ahookabove;
lastChange = "2015-10-25 05:21:50 +0000";
layers = (
{
layerId = "63223F5B-13B6-47A7-8CD6-727EAFF9983D";
name = Light;
paths = (
{
closed = 1;
nodes = (
"316 -10 OFFCURVE",
"375 14 OFFCURVE",
"421 65 CURVE",
"425 0 LINE",
"447 0 LINE",
"447 319 LINE SMOOTH",
"447 438 OFFCURVE",
"392 484 OFFCURVE",
"267 484 CURVE SMOOTH",
"208 484 OFFCURVE",
"153 476 OFFCURVE",
"113 460 CURVE",
"113 434 LINE",
"157 450 OFFCURVE",
"204 459 OFFCURVE",
"258 459 CURVE SMOOTH",
"388 459 OFFCURVE",
"419 419 OFFCURVE",
"419 317 CURVE SMOOTH",
"419 256 LINE",
"230 256 LINE SMOOTH",
"102 256 OFFCURVE",
"60 201 OFFCURVE",
"60 120 CURVE SMOOTH",
"60 26 OFFCURVE",
"134 -10 OFFCURVE",
"224 -10 CURVE SMOOTH"
);
},
{
closed = 1;
nodes = (
"143 15 OFFCURVE",
"87 45 OFFCURVE",
"87 120 CURVE SMOOTH",
"87 191 OFFCURVE",
"119 230 OFFCURVE",
"232 230 CURVE SMOOTH",
"419 230 LINE",
"419 95 LINE",
"372 39 OFFCURVE",
"314 15 OFFCURVE",
"231 15 CURVE SMOOTH"
);
},
{
closed = 1;
nodes = (
"280 512 LINE",
"280 568 LINE",
"350 574 OFFCURVE",
"372 602 OFFCURVE",
"372 654 CURVE SMOOTH",
"372 709 OFFCURVE",
"334 739 OFFCURVE",
"261 739 CURVE SMOOTH",
"241 739 OFFCURVE",
"207 734 OFFCURVE",
"191 727 CURVE",
"191 702 LINE",
"209 709 OFFCURVE",
"238 714 OFFCURVE",
"260 714 CURVE SMOOTH",
"323 714 OFFCURVE",
"347 693 OFFCURVE",
"347 654 CURVE SMOOTH",
"347 613 OFFCURVE",
"334 591 OFFCURVE",
"252 587 CURVE",
"252 512 LINE"
);
}
);
width = 522;
}
);
leftKerningGroup = a;
note = ahookabove;
rightKerningGroup = a;
unicode = 1EA3;
},
{
glyphname = "alpha-latin";
lastChange = "2015-10-25 05:21:51 +0000";
layers = (
{
layerId = "63223F5B-13B6-47A7-8CD6-727EAFF9983D";
name = Light;
paths = (
{
closed = 1;
nodes = (
"346 -10 OFFCURVE",
"400 11 OFFCURVE",
"447 57 CURVE",
"451 0 LINE",
"474 0 LINE",
"474 474 LINE",
"446 474 LINE",
"446 430 LINE",
"394 470 OFFCURVE",
"349 484 OFFCURVE",
"279 484 CURVE SMOOTH",
"148 484 OFFCURVE",
"60 404 OFFCURVE",
"60 231 CURVE SMOOTH",
"60 58 OFFCURVE",
"153 -10 OFFCURVE",
"271 -10 CURVE SMOOTH"
);
},
{
closed = 1;
nodes = (
"155 15 OFFCURVE",
"87 85 OFFCURVE",
"87 231 CURVE SMOOTH",
"87 385 OFFCURVE",
"159 459 OFFCURVE",
"288 459 CURVE SMOOTH",
"360 459 OFFCURVE",
"404 437 OFFCURVE",
"446 401 CURVE",
"446 86 LINE",
"399 37 OFFCURVE",
"345 15 OFFCURVE",
"276 15 CURVE SMOOTH"
);
}
);
width = 554;
}
);
leftKerningGroup = a;
note = ascript;
rightKerningGroup = a;
unicode = 0251;
},
{
glyphname = amacron;
lastChange = "2015-10-25 05:21:51 +0000";
layers = (
{
layerId = "63223F5B-13B6-47A7-8CD6-727EAFF9983D";
name = Light;
paths = (
{
closed = 1;
nodes = (
"316 -10 OFFCURVE",
"375 14 OFFCURVE",
"421 65 CURVE",
"425 0 LINE",
"447 0 LINE",
"447 319 LINE SMOOTH",
"447 438 OFFCURVE",
"392 484 OFFCURVE",
"267 484 CURVE SMOOTH",
"208 484 OFFCURVE",
"153 476 OFFCURVE",
"113 460 CURVE",
"113 434 LINE",
"157 450 OFFCURVE",
"204 459 OFFCURVE",
"258 459 CURVE SMOOTH",
"388 459 OFFCURVE",
"419 419 OFFCURVE",
"419 317 CURVE SMOOTH",
"419 256 LINE",
"230 256 LINE SMOOTH",
"102 256 OFFCURVE",
"60 201 OFFCURVE",
"60 120 CURVE SMOOTH",
"60 26 OFFCURVE",
"134 -10 OFFCURVE",
"224 -10 CURVE SMOOTH"
);
},
{
closed = 1;
nodes = (
"143 15 OFFCURVE",
"87 45 OFFCURVE",
"87 120 CURVE SMOOTH",
"87 191 OFFCURVE",
"119 230 OFFCURVE",
"232 230 CURVE SMOOTH",
"419 230 LINE",
"419 95 LINE",
"372 39 OFFCURVE",
"314 15 OFFCURVE",
"231 15 CURVE SMOOTH"
);
},
{
closed = 1;
nodes = (
"410 552 LINE",
"410 577 LINE",
"143 577 LINE",
"143 552 LINE"
);
}
);
width = 522;
}
);
leftKerningGroup = a;
note = amacron;
rightKerningGroup = a;
unicode = 0101;
},
{
glyphname = aogonek;
lastChange = "2015-10-25 05:21:51 +0000";
layers = (
{
layerId = "63223F5B-13B6-47A7-8CD6-727EAFF9983D";
name = Light;
paths = (
{
closed = 1;
nodes = (
"441 -220 OFFCURVE",
"462 -217 OFFCURVE",
"476 -209 CURVE",
"476 -184 LINE",
"464 -191 OFFCURVE",
"443 -195 OFFCURVE",
"426 -195 CURVE SMOOTH",
"386 -195 OFFCURVE",
"370 -176 OFFCURVE",
"370 -135 CURVE SMOOTH",
"370 -88 OFFCURVE",
"394 -39 OFFCURVE",
"447 0 CURVE",
"447 319 LINE SMOOTH",
"447 438 OFFCURVE",
"392 484 OFFCURVE",
"267 484 CURVE SMOOTH",
"208 484 OFFCURVE",
"153 476 OFFCURVE",
"113 460 CURVE",
"113 434 LINE",
"157 450 OFFCURVE",
"204 459 OFFCURVE",
"258 459 CURVE SMOOTH",
"388 459 OFFCURVE",
"419 419 OFFCURVE",
"419 317 CURVE SMOOTH",
"419 256 LINE",
"230 256 LINE SMOOTH",
"102 256 OFFCURVE",
"60 201 OFFCURVE",
"60 120 CURVE SMOOTH",
"60 26 OFFCURVE",
"134 -10 OFFCURVE",
"224 -10 CURVE SMOOTH",
"316 -10 OFFCURVE",
"375 14 OFFCURVE",
"421 65 CURVE",
"422 0 LINE",
"381 -27 OFFCURVE",
"343 -80 OFFCURVE",
"343 -135 CURVE SMOOTH",
"343 -198 OFFCURVE",
"379 -220 OFFCURVE",
"426 -220 CURVE SMOOTH"
);
},
{
closed = 1;
nodes = (
"143 15 OFFCURVE",
"87 45 OFFCURVE",
"87 120 CURVE SMOOTH",
"87 191 OFFCURVE",
"119 230 OFFCURVE",
"232 230 CURVE SMOOTH",
"419 230 LINE",
"419 95 LINE",
"372 39 OFFCURVE",
"314 15 OFFCURVE",
"231 15 CURVE SMOOTH"
);
}
);
width = 561;
}
);
leftKerningGroup = a;
note = aogonek;
rightKerningGroup = a;
unicode = 0105;
},
{
glyphname = aring;
lastChange = "2015-10-25 05:21:50 +0000";
layers = (
{
layerId = "63223F5B-13B6-47A7-8CD6-727EAFF9983D";
name = Light;
paths = (
{
closed = 1;
nodes = (
"316 -10 OFFCURVE",
"375 14 OFFCURVE",
"421 65 CURVE",
"425 0 LINE",
"447 0 LINE",
"447 319 LINE SMOOTH",
"447 438 OFFCURVE",
"392 484 OFFCURVE",
"267 484 CURVE SMOOTH",
"208 484 OFFCURVE",
"153 476 OFFCURVE",
"113 460 CURVE",
"113 434 LINE",
"157 450 OFFCURVE",
"204 459 OFFCURVE",
"258 459 CURVE SMOOTH",
"388 459 OFFCURVE",
"419 419 OFFCURVE",
"419 317 CURVE SMOOTH",
"419 256 LINE",
"230 256 LINE SMOOTH",
"102 256 OFFCURVE",
"60 201 OFFCURVE",
"60 120 CURVE SMOOTH",
"60 26 OFFCURVE",
"134 -10 OFFCURVE",
"224 -10 CURVE SMOOTH"
);
},
{
closed = 1;
nodes = (
"143 15 OFFCURVE",
"87 45 OFFCURVE",
"87 120 CURVE SMOOTH",
"87 191 OFFCURVE",
"119 230 OFFCURVE",
"232 230 CURVE SMOOTH",
"419 230 LINE",
"419 95 LINE",
"372 39 OFFCURVE",
"314 15 OFFCURVE",
"231 15 CURVE SMOOTH"
);
},
{
closed = 1;
nodes = (
"339 522 OFFCURVE",
"381 564 OFFCURVE",
"381 617 CURVE SMOOTH",
"381 671 OFFCURVE",
"339 713 OFFCURVE",
"285 713 CURVE SMOOTH",
"232 713 OFFCURVE",
"190 671 OFFCURVE",
"190 617 CURVE SMOOTH",
"190 564 OFFCURVE",
"232 522 OFFCURVE",
"285 522 CURVE SMOOTH"
);
},
{
closed = 1;
nodes = (
"245 547 OFFCURVE",
"215 577 OFFCURVE",
"215 617 CURVE SMOOTH",
"215 658 OFFCURVE",
"245 688 OFFCURVE",
"285 688 CURVE SMOOTH",
"326 688 OFFCURVE",
"356 658 OFFCURVE",
"356 617 CURVE SMOOTH",
"356 577 OFFCURVE",
"326 547 OFFCURVE",
"285 547 CURVE SMOOTH"
);
}
);
width = 522;
}
);
leftKerningGroup = a;
note = aring;
rightKerningGroup = a;
unicode = 00E5;
},
{
glyphname = aringacute;
lastChange = "2015-11-24 07:54:20 +0000";
layers = (
{
layerId = "63223F5B-13B6-47A7-8CD6-727EAFF9983D";
name = Light;
paths = (
{
closed = 1;
nodes = (
"316 -10 OFFCURVE",
"375 14 OFFCURVE",
"421 65 CURVE",
"425 0 LINE",
"447 0 LINE",
"447 319 LINE SMOOTH",
"447 438 OFFCURVE",
"392 484 OFFCURVE",
"267 484 CURVE SMOOTH",
"208 484 OFFCURVE",
"153 476 OFFCURVE",
"113 460 CURVE",
"113 434 LINE",
"157 450 OFFCURVE",
"204 459 OFFCURVE",
"258 459 CURVE SMOOTH",
"388 459 OFFCURVE",
"419 419 OFFCURVE",
"419 317 CURVE SMOOTH",
"419 256 LINE",
"230 256 LINE SMOOTH",
"102 256 OFFCURVE",
"60 201 OFFCURVE",
"60 120 CURVE SMOOTH",
"60 26 OFFCURVE",
"134 -10 OFFCURVE",
"224 -10 CURVE SMOOTH"
);
},
{
closed = 1;
nodes = (
"143 15 OFFCURVE",
"87 45 OFFCURVE",
"87 120 CURVE SMOOTH",
"87 191 OFFCURVE",
"119 230 OFFCURVE",
"232 230 CURVE SMOOTH",
"419 230 LINE",
"419 95 LINE",
"372 39 OFFCURVE",
"314 15 OFFCURVE",
"231 15 CURVE SMOOTH"
);
},
{
closed = 1;
nodes = (
"336 522 OFFCURVE",
"378 564 OFFCURVE",
"378 617 CURVE SMOOTH",
"378 671 OFFCURVE",
"336 713 OFFCURVE",
"282 713 CURVE SMOOTH",
"229 713 OFFCURVE",
"187 671 OFFCURVE",
"187 617 CURVE SMOOTH",
"187 564 OFFCURVE",
"229 522 OFFCURVE",
"282 522 CURVE SMOOTH"
);
},
{
closed = 1;
nodes = (
"242 547 OFFCURVE",
"212 577 OFFCURVE",
"212 617 CURVE SMOOTH",
"212 658 OFFCURVE",
"242 688 OFFCURVE",
"282 688 CURVE SMOOTH",
"323 688 OFFCURVE",
"353 658 OFFCURVE",
"353 617 CURVE SMOOTH",
"353 577 OFFCURVE",
"323 547 OFFCURVE",
"282 547 CURVE SMOOTH"
);
},
{
closed = 1;
nodes = (
"290 780 LINE",
"360 899 LINE",
"330 899 LINE",
"267 780 LINE"
);
}
);
width = 522;
}
);
leftKerningGroup = a;
note = aringacute;
rightKerningGroup = a;
unicode = 01FB;
},
{
glyphname = atilde;
lastChange = "2015-10-25 05:21:51 +0000";
layers = (
{
layerId = "63223F5B-13B6-47A7-8CD6-727EAFF9983D";
name = Light;
paths = (
{
closed = 1;
nodes = (
"316 -10 OFFCURVE",
"375 14 OFFCURVE",
"421 65 CURVE",
"425 0 LINE",
"447 0 LINE",
"447 319 LINE SMOOTH",
"447 438 OFFCURVE",
"392 484 OFFCURVE",
"267 484 CURVE SMOOTH",
"208 484 OFFCURVE",
"153 476 OFFCURVE",
"113 460 CURVE",
"113 434 LINE",
"157 450 OFFCURVE",
"204 459 OFFCURVE",
"258 459 CURVE SMOOTH",
"388 459 OFFCURVE",
"419 419 OFFCURVE",
"419 317 CURVE SMOOTH",
"419 256 LINE",
"230 256 LINE SMOOTH",
"102 256 OFFCURVE",
"60 201 OFFCURVE",
"60 120 CURVE SMOOTH",
"60 26 OFFCURVE",
"134 -10 OFFCURVE",
"224 -10 CURVE SMOOTH"
);
},
{
closed = 1;
nodes = (
"143 15 OFFCURVE",
"87 45 OFFCURVE",
"87 120 CURVE SMOOTH",
"87 191 OFFCURVE",
"119 230 OFFCURVE",
"232 230 CURVE SMOOTH",
"419 230 LINE",
"419 95 LINE",
"372 39 OFFCURVE",
"314 15 OFFCURVE",
"231 15 CURVE SMOOTH"
);
},
{
closed = 1;
nodes = (
"375 552 OFFCURVE",
"396 562 OFFCURVE",
"409 580 CURVE",
"409 611 LINE",
"391 585 OFFCURVE",
"370 577 OFFCURVE",
"341 577 CURVE SMOOTH",
"298 577 OFFCURVE",
"269 613 OFFCURVE",
"220 613 CURVE SMOOTH",
"192 613 OFFCURVE",
"163 603 OFFCURVE",
"148 585 CURVE",
"148 554 LINE",
"170 581 OFFCURVE",
"195 588 OFFCURVE",
"223 588 CURVE SMOOTH",
"260 588 OFFCURVE",
"298 552 OFFCURVE",
"344 552 CURVE SMOOTH"
);
}
);
width = 522;
}
);
leftKerningGroup = a;
note = atilde;
rightKerningGroup = a;
unicode = 00E3;
},
{
glyphname = ae;
lastChange = "2015-10-25 05:21:51 +0000";
layers = (
{
layerId = "63223F5B-13B6-47A7-8CD6-727EAFF9983D";
name = Light;
paths = (
{
closed = 1;
nodes = (
"322 -10 OFFCURVE",
"401 27 OFFCURVE",
"437 108 CURVE",
"467 25 OFFCURVE",
"535 -10 OFFCURVE",
"657 -10 CURVE SMOOTH",
"700 -10 OFFCURVE",
"747 -1 OFFCURVE",
"785 14 CURVE",
"785 40 LINE",
"743 23 OFFCURVE",
"703 15 OFFCURVE",
"662 15 CURVE SMOOTH",
"503 15 OFFCURVE",
"447 74 OFFCURVE",
"447 218 CURVE",
"817 218 LINE",
"817 300 LINE SMOOTH",
"817 400 OFFCURVE",
"764 484 OFFCURVE",
"631 484 CURVE SMOOTH",
"531 484 OFFCURVE",
"471 444 OFFCURVE",
"441 373 CURVE",
"426 453 OFFCURVE",
"369 484 OFFCURVE",
"267 484 CURVE SMOOTH",
"208 484 OFFCURVE",
"153 476 OFFCURVE",
"113 460 CURVE",
"113 434 LINE",
"157 450 OFFCURVE",
"207 459 OFFCURVE",
"261 459 CURVE SMOOTH",
"389 459 OFFCURVE",
"419 419 OFFCURVE",
"419 317 CURVE SMOOTH",
"419 256 LINE",
"230 256 LINE SMOOTH",
"102 256 OFFCURVE",
"60 201 OFFCURVE",
"60 120 CURVE SMOOTH",
"60 26 OFFCURVE",
"134 -10 OFFCURVE",
"224 -10 CURVE SMOOTH"
);
},
{
closed = 1;
nodes = (
"143 15 OFFCURVE",
"87 45 OFFCURVE",
"87 120 CURVE SMOOTH",
"87 191 OFFCURVE",
"119 230 OFFCURVE",
"232 230 CURVE SMOOTH",
"419 230 LINE",
"419 154 LINE SMOOTH",
"419 67 OFFCURVE",
"330 15 OFFCURVE",
"231 15 CURVE SMOOTH"
);
},
{
closed = 1;
nodes = (
"447 377 OFFCURVE",
"494 459 OFFCURVE",
"631 459 CURVE SMOOTH",
"742 459 OFFCURVE",
"789 395 OFFCURVE",
"789 296 CURVE SMOOTH",
"789 244 LINE",
"447 244 LINE"
);
}
);
width = 877;
}
);
leftKerningGroup = a;
note = ae;
rightKerningGroup = e;
unicode = 00E6;
},
{
glyphname = aeacute;
lastChange = "2015-10-25 05:21:51 +0000";
layers = (
{
layerId = "63223F5B-13B6-47A7-8CD6-727EAFF9983D";
name = Light;
paths = (
{
closed = 1;
nodes = (
"322 -10 OFFCURVE",
"401 27 OFFCURVE",
"437 108 CURVE",
"467 25 OFFCURVE",
"535 -10 OFFCURVE",
"657 -10 CURVE SMOOTH",
"700 -10 OFFCURVE",
"747 -1 OFFCURVE",
"785 14 CURVE",
"785 40 LINE",
"743 23 OFFCURVE",
"703 15 OFFCURVE",
"662 15 CURVE SMOOTH",
"503 15 OFFCURVE",
"447 74 OFFCURVE",
"447 218 CURVE",
"817 218 LINE",
"817 300 LINE SMOOTH",
"817 400 OFFCURVE",
"764 484 OFFCURVE",
"631 484 CURVE SMOOTH",
"531 484 OFFCURVE",
"471 444 OFFCURVE",
"441 373 CURVE",
"426 453 OFFCURVE",
"369 484 OFFCURVE",
"267 484 CURVE SMOOTH",
"208 484 OFFCURVE",
"153 476 OFFCURVE",
"113 460 CURVE",
"113 434 LINE",
"157 450 OFFCURVE",
"207 459 OFFCURVE",
"261 459 CURVE SMOOTH",
"389 459 OFFCURVE",
"419 419 OFFCURVE",
"419 317 CURVE SMOOTH",
"419 256 LINE",
"230 256 LINE SMOOTH",
"102 256 OFFCURVE",
"60 201 OFFCURVE",
"60 120 CURVE SMOOTH",
"60 26 OFFCURVE",
"134 -10 OFFCURVE",
"224 -10 CURVE SMOOTH"
);
},
{
closed = 1;
nodes = (
"143 15 OFFCURVE",
"87 45 OFFCURVE",
"87 120 CURVE SMOOTH",
"87 191 OFFCURVE",
"119 230 OFFCURVE",
"232 230 CURVE SMOOTH",
"419 230 LINE",
"419 154 LINE SMOOTH",
"419 67 OFFCURVE",
"330 15 OFFCURVE",
"231 15 CURVE SMOOTH"
);
},
{
closed = 1;
nodes = (
"447 377 OFFCURVE",
"494 459 OFFCURVE",
"631 459 CURVE SMOOTH",
"742 459 OFFCURVE",
"789 395 OFFCURVE",
"789 296 CURVE SMOOTH",
"789 244 LINE",
"447 244 LINE"
);
},
{
closed = 1;
nodes = (
"466 522 LINE",
"536 671 LINE",
"506 671 LINE",
"443 522 LINE"
);
}
);
width = 877;
}
);
leftKerningGroup = a;
note = aeacute;
rightKerningGroup = e;
unicode = 01FD;
},
{
glyphname = b;
lastChange = "2015-10-25 05:21:51 +0000";
layers = (
{
layerId = "63223F5B-13B6-47A7-8CD6-727EAFF9983D";
name = Light;
paths = (
{
closed = 1;
nodes = (
"416 -10 OFFCURVE",
"494 68 OFFCURVE",
"494 241 CURVE SMOOTH",
"494 414 OFFCURVE",
"416 484 OFFCURVE",
"285 484 CURVE SMOOTH",
"215 484 OFFCURVE",
"160 468 OFFCURVE",
"108 430 CURVE",
"108 674 LINE",
"80 674 LINE",
"80 0 LINE",
"103 0 LINE",
"107 57 LINE",
"154 11 OFFCURVE",
"208 -10 OFFCURVE",
"283 -10 CURVE SMOOTH"
);
},
{
closed = 1;
nodes = (
"209 15 OFFCURVE",
"155 37 OFFCURVE",
"108 86 CURVE",
"108 401 LINE",
"150 435 OFFCURVE",
"204 459 OFFCURVE",
"276 459 CURVE SMOOTH",
"405 459 OFFCURVE",
"467 395 OFFCURVE",
"467 241 CURVE SMOOTH",
"467 95 OFFCURVE",
"414 15 OFFCURVE",
"278 15 CURVE SMOOTH"
);
}
);
width = 554;
}
);
note = b;
unicode = 0062;
},
